RobotoSlab-Light.ufo
<glyph name="numbersign" format="1">
  <advance width="1246"/>
  <unicode hex="0023"/>
  <outline>
    <contour>
      <point x="731" y="410" type="line"/>
      <point x="417" y="410" type="line"/>
      <point x="340" y="0" type="line"/>
      <point x="241" y="0" type="line"/>
      <point x="318" y="410" type="line"/>
      <point x="63" y="410" type="line"/>
      <point x="63" y="503" type="line"/>
      <point x="335" y="503" type="line"/>
      <point x="418" y="944" type="line"/>
      <point x="139" y="944" type="line"/>
      <point x="139" y="1040" type="line"/>
      <point x="436" y="1040" type="line"/>
      <point x="515" y="1456" type="line"/>
      <point x="614" y="1456" type="line"/>
      <point x="535" y="1040" type="line"/>
      <point x="850" y="1040" type="line"/>
      <point x="929" y="1456" type="line"/>
      <point x="1028" y="1456" type="line"/>
      <point x="949" y="1040" type="line"/>
      <point x="1179" y="1040" type="line"/>
      <point x="1179" y="944" type="line"/>
      <point x="931" y="944" type="line"/>
      <point x="848" y="503" type="line"/>
      <point x="1104" y="503" type="line"/>
      <point x="1104" y="410" type="line"/>
      <point x="830" y="410" type="line"/>
      <point x="753" y="0" type="line"/>
      <point x="654" y="0" type="line"/>
    </contour>
    <contour>
      <point x="434" y="503" type="line"/>
      <point x="749" y="503" type="line"/>
      <point x="832" y="944" type="line"/>
      <point x="517" y="944" type="line"/>
    </contour>
  </outline>
</glyph>
<glyph name="dollar" format="1">
  <advance width="1097"/>
  <unicode hex="0024"/>
  <outline>
    <contour>
      <point x="536" y="674" type="curve" smooth="yes"/>
      <point x="258.666666667" y="762.0"/>
      <point x="128.0" y="869.666666667"/>
      <point x="128" y="1095" type="curve" smooth="yes"/>
      <point x="128.0" y="1311.0"/>
      <point x="270.666666667" y="1456.33333333"/>
      <point x="500" y="1475" type="curve"/>
      <point x="500" y="1677" type="line"/>
      <point x="602" y="1677" type="line"/>
      <point x="602" y="1475" type="line"/>
      <point x="835.333333333" y="1453.66666667"/>
      <point x="970.666666667" y="1294.33333333"/>
      <point x="968" y="1033" type="curve"/>
      <point x="965" y="1028" type="line"/>
      <point x="853" y="1028" type="line"/>
      <point x="853.0" y="1230.66666667"/>
      <point x="739.666666667" y="1370.0"/>
      <point x="549" y="1370" type="curve" smooth="yes"/>
      <point x="351.666666667" y="1370.0"/>
      <point x="248.0" y="1254.33333333"/>
      <point x="248" y="1097" type="curve" smooth="yes"/>
      <point x="248.0" y="945.0"/>
      <point x="319.666666667" y="865.333333333"/>
      <point x="577" y="780" type="curve" smooth="yes"/>
      <point x="851.666666667" y="688.0"/>
      <point x="982.0" y="583.666666667"/>
      <point x="982" y="361" type="curve" smooth="yes"/>
      <point x="982.0" y="139.666666667"/>
      <point x="833.666666667" y="0.666666666667"/>
      <point x="599" y="-18" type="curve"/>
      <point x="599" y="-208" type="line"/>
      <point x="497" y="-208" type="line"/>
      <point x="497" y="-19" type="line"/>
      <point x="255.666666667" y="-3.0"/>
      <point x="76.6666666667" y="130.666666667"/>
      <point x="82" y="412" type="curve"/>
      <point x="85" y="418" type="line"/>
      <point x="196" y="418" type="line"/>
      <point x="196.0" y="182.0"/>
      <point x="351.333333333" y="85.0"/>
      <point x="542" y="85" type="curve" smooth="yes"/>
      <point x="738.0" y="85.0"/>
      <point x="862.0" y="200.333333333"/>
      <point x="862" y="359" type="curve" smooth="yes"/>
      <point x="862.0" y="507.0"/>
      <point x="778.666666667" y="588.666666667"/>
    </contour>
  </outline>
</glyph>
<glyph name="percent" format="1">
  <advance width="1458"/>
  <unicode hex="0025"/>
  <outline>
    <contour>
      <point x="77" y="1176" type="line" smooth="yes"/>
      <point x="77.0" y="1345.3333333333335"/>
      <point x="191.33333333333337" y="1477.0"/>
      <point x="362" y="1477" type="curve" smooth="yes"/>
      <point x="532.6666666666666" y="1477.0"/>
      <point x="647.0" y="1345.3333333333335"/>
      <point x="647" y="1176" type="curve" smooth="yes"/>
      <point x="647" y="1099" type="line" smooth="yes"/>
      <point x="647.0" y="931.0"/>
      <point x="532.0" y="800.0"/>
      <point x="364" y="800" type="curve" smooth="yes"/>
      <point x="192.0" y="800.0"/>
      <point x="77.0" y="931.0"/>
      <point x="77" y="1099" type="curve" smooth="yes"/>
    </contour>
    <contour>
      <point x="174" y="1099" type="line" smooth="yes"/>
      <point x="174.0" y="981.6666666666665"/>
      <point x="241.33333333333337" y="887.0"/>
      <point x="364" y="887" type="curve" smooth="yes"/>
      <point x="482.6666666666667" y="887.0"/>
      <point x="550.0" y="981.6666666666665"/>
      <point x="550" y="1099" type="curve" smooth="yes"/>
      <point x="550" y="1176" type="line" smooth="yes"/>
      <point x="550.0" y="1293.3333333333335"/>
      <point x="482.0" y="1390.0"/>
      <point x="362" y="1390" type="curve" smooth="yes"/>
      <point x="242.0" y="1390.0"/>
      <point x="174.0" y="1293.3333333333335"/>
      <point x="174" y="1176" type="curve" smooth="yes"/>
    </contour>
    <contour>
      <point x="810" y="357" type="line" smooth="yes"/>
      <point x="810.0" y="525.0"/>
      <point x="924.6666666666667" y="657.0"/>
      <point x="1094" y="657" type="curve" smooth="yes"/>
      <point x="1264.6666666666665" y="657.0"/>
      <point x="1380.0" y="525.0"/>
      <point x="1380" y="357" type="curve" smooth="yes"/>
      <point x="1380" y="279" type="line" smooth="yes"/>
      <point x="1380.0" y="109.66666666666669"/>
      <point x="1264.0" y="-21.0"/>
      <point x="1096" y="-21" type="curve" smooth="yes"/>
      <point x="924.0" y="-21.0"/>
      <point x="810.0" y="109.66666666666669"/>
      <point x="810" y="279" type="curve" smooth="yes"/>
    </contour>
    <contour>
      <point x="906" y="279" type="line" smooth="yes"/>
      <point x="906.0" y="161.66666666666669"/>
      <point x="973.3333333333335" y="66.0"/>
      <point x="1096" y="66" type="curve" smooth="yes"/>
      <point x="1214.6666666666665" y="66.0"/>
      <point x="1283.0" y="160.33333333333337"/>
      <point x="1283" y="279" type="curve" smooth="yes"/>
      <point x="1283" y="357" type="line" smooth="yes"/>
      <point x="1283.0" y="478.3333333333333"/>
      <point x="1215.3333333333335" y="570.0"/>
      <point x="1094" y="570" type="curve" smooth="yes"/>
      <point x="974.0" y="570.0"/>
      <point x="906.0" y="477.0"/>
      <point x="906" y="357" type="curve" smooth="yes"/>
    </contour>
    <contour>
      <point x="405" y="121" type="line"/>
      <point x="331" y="169" type="line"/>
      <point x="1042" y="1307" type="line"/>
      <point x="1116" y="1259" type="line"/>
    </contour>
  </outline>
</glyph>
<glyph name="ampersand" format="1">
  <advance width="1269"/>
  <unicode hex="0026"/>
  <outline>
    <contour>
      <point x="74" y="371" type="curve" smooth="yes"/>
      <point x="74.0" y="531.0"/>
      <point x="173.333333333" y="650.666666667"/>
      <point x="356" y="784" type="curve" smooth="yes"/>
      <point x="370" y="794" type="line"/>
      <point x="262.0" y="928.666666667"/>
      <point x="212.0" y="1031.0"/>
      <point x="212" y="1147" type="curve" smooth="yes"/>
      <point x="212.0" y="1357.66666667"/>
      <point x="337.333333333" y="1477.0"/>
      <point x="544" y="1477" type="curve" smooth="yes"/>
      <point x="736.0" y="1477.0"/>
      <point x="857.0" y="1356.0"/>
      <point x="857" y="1192" type="curve" smooth="yes"/>
      <point x="857.0" y="1070.66666667"/>
      <point x="795.333333333" y="993.666666667"/>
      <point x="682" y="907" type="curve" smooth="yes"/>
      <point x="524" y="785" type="line"/>
      <point x="935" y="305" type="line"/>
      <point x="1000.33333333" y="399.666666667"/>
      <point x="1038.0" y="519.0"/>
      <point x="1038" y="651" type="curve"/>
      <point x="1149" y="651" type="line"/>
      <point x="1149.0" y="480.333333333"/>
      <point x="1097.66666667" y="338.0"/>
      <point x="1007" y="222" type="curve"/>
      <point x="1192" y="5" type="line"/>
      <point x="1190" y="0" type="line"/>
      <point x="1052" y="0" type="line"/>
      <point x="930" y="141" type="line"/>
      <point x="816.666666667" y="37.0"/>
      <point x="682.0" y="-21.0"/>
      <point x="526" y="-21" type="curve" smooth="yes"/>
      <point x="247.333333333" y="-21.0"/>
      <point x="74.0" y="133.666666667"/>
    </contour>
    <contour>
      <point x="526" y="80" type="curve" smooth="yes"/>
      <point x="648.666666667" y="80.0"/>
      <point x="769.666666667" y="129.666666667"/>
      <point x="863" y="219" type="curve"/>
      <point x="435" y="717" type="line"/>
      <point x="388" y="681" type="line" smooth="yes"/>
      <point x="234.666666667" y="555.666666667"/>
      <point x="193.0" y="456.333333333"/>
      <point x="193" y="371" type="curve" smooth="yes"/>
      <point x="193.0" y="205.666666667"/>
      <point x="310.0" y="80.0"/>
    </contour>
    <contour>
      <point x="332" y="1149" type="curve" smooth="yes"/>
      <point x="332.0" y="1061.0"/>
      <point x="373.666666667" y="965.0"/>
      <point x="459" y="861" type="curve"/>
      <point x="636" y="993" type="line" smooth="yes"/>
      <point x="714.666666667" y="1053.0"/>
      <point x="744.0" y="1117.33333333"/>
      <point x="744" y="1192" type="curve" smooth="yes"/>
      <point x="744.0" y="1297.33333333"/>
      <point x="669.333333333" y="1375.0"/>
      <point x="544" y="1375" type="curve" smooth="yes"/>
      <point x="408.0" y="1375.0"/>
      <point x="332.0" y="1277.0"/>
    </contour>
  </outline>
</glyph>
<glyph name="quotesingle" format="1">
  <advance width="438"/>
  <unicode hex="0027"/>
  <outline>
    <contour>
      <point x="276" y="1365" type="line"/>
      <point x="237" y="1090" type="line"/>
      <point x="166" y="1090" type="line"/>
      <point x="174" y="1356" type="line"/>
      <point x="174" y="1560" type="line"/>
      <point x="276" y="1560" type="line"/>
    </contour>
  </outline>
</glyph>
<glyph name="parenleft" format="1">
  <advance width="636"/>
  <unicode hex="0028"/>
  <outline>
    <contour>
      <point x="114" y="588" type="line" smooth="yes"/>
      <point x="114.0" y="1072.0"/>
      <point x="334.0" y="1494.6666666666665"/>
      <point x="562" y="1624" type="curve"/>
      <point x="568" y="1624" type="line"/>
      <point x="594" y="1551" type="line"/>
      <point x="400.66666666666674" y="1413.6666666666665"/>
      <point x="233.0" y="1032.3333333333333"/>
      <point x="233" y="591" type="curve" smooth="yes"/>
      <point x="233" y="571" type="line" smooth="yes"/>
      <point x="233.0" y="129.66666666666674"/>
      <point x="400.66666666666674" y="-250.33333333333337"/>
      <point x="594" y="-393" type="curve"/>
      <point x="568" y="-463" type="line"/>
      <point x="562" y="-463" type="line"/>
      <point x="331.33333333333337" y="-329.66666666666674"/>
      <point x="114.0" y="77.0"/>
      <point x="114" y="573" type="curve" smooth="yes"/>
    </contour>
  </outline>
</glyph>
<glyph name="parenright" format="1">
  <advance width="629"/>
  <unicode hex="0029"/>
  <outline>
    <contour>
      <point x="491" y="573" type="line" smooth="yes"/>
      <point x="491.0" y="77.0"/>
      <point x="271.3333333333333" y="-329.66666666666674"/>
      <point x="42" y="-463" type="curve"/>
      <point x="36" y="-462" type="line"/>
      <point x="11" y="-393" type="line"/>
      <point x="203.0" y="-257.0"/>
      <point x="372.0" y="128.33333333333337"/>
      <point x="372" y="571" type="curve" smooth="yes"/>
      <point x="372" y="591" type="line" smooth="yes"/>
      <point x="372.0" y="1029.6666666666667"/>
      <point x="197.66666666666657" y="1419.0"/>
      <point x="11" y="1555" type="curve"/>
      <point x="36" y="1624" type="line"/>
      <point x="42" y="1625" type="line"/>
      <point x="268.66666666666663" y="1494.3333333333335"/>
      <point x="491.0" y="1072.0"/>
      <point x="491" y="588" type="curve" smooth="yes"/>
    </contour>
  </outline>
</glyph>
<glyph name="asterisk" format="1">
  <advance width="952"/>
  <unicode hex="002A"/>
  <outline>
    <contour>
      <point x="398" y="1000" type="line"/>
      <point x="66" y="1108" type="line"/>
      <point x="98" y="1209" type="line"/>
      <point x="430" y="1086" type="line"/>
      <point x="426" y="1456" type="line"/>
      <point x="530" y="1456" type="line"/>
      <point x="522" y="1083" type="line"/>
      <point x="846" y="1210" type="line"/>
      <point x="879" y="1109" type="line"/>
      <point x="546" y="994" type="line"/>
      <point x="769" y="700" type="line"/>
      <point x="683" y="637" type="line"/>
      <point x="470" y="942" type="line"/>
      <point x="266" y="639" type="line"/>
      <point x="181" y="700" type="line"/>
    </contour>
  </outline>
</glyph>
<glyph name="plus" format="1">
  <advance width="1145"/>
  <unicode hex="002B"/>
  <outline>
    <contour>
      <point x="627" y="740" type="line"/>
      <point x="1071" y="740" type="line"/>
      <point x="1071" y="628" type="line"/>
      <point x="627" y="628" type="line"/>
      <point x="627" y="146" type="line"/>
      <point x="507" y="146" type="line"/>
      <point x="507" y="628" type="line"/>
      <point x="73" y="628" type="line"/>
      <point x="73" y="740" type="line"/>
      <point x="507" y="740" type="line"/>
      <point x="507" y="1206" type="line"/>
      <point x="627" y="1206" type="line"/>
    </contour>
  </outline>
</glyph>
<glyph name="comma" format="1">
  <advance width="392"/>
  <unicode hex="002C"/>
  <outline>
    <contour>
      <point x="271" y="48" type="line" smooth="yes"/>
      <point x="271.0" y="-74.66666666666666"/>
      <point x="217.66666666666663" y="-199.66666666666669"/>
      <point x="131" y="-281" type="curve"/>
      <point x="60" y="-229" type="line"/>
      <point x="122.66666666666666" y="-141.0"/>
      <point x="152.0" y="-59.33333333333333"/>
      <point x="152" y="46" type="curve" smooth="yes"/>
      <point x="152" y="188" type="line"/>
      <point x="271" y="188" type="line"/>
    </contour>
  </outline>
</glyph>
<glyph name="period" format="1">
  <advance width="466"/>
  <unicode hex="002E"/>
  <outline>
    <contour>
      <point x="282" y="0" type="line"/>
      <point x="145" y="0" type="line"/>
      <point x="145" y="164" type="line"/>
      <point x="282" y="164" type="line"/>
    </contour>
  </outline>
</glyph>
<glyph name="slash" format="1">
  <advance width="798"/>
  <unicode hex="002F"/>
  <outline>
    <contour>
      <point x="108" y="-125" type="line"/>
      <point x="0" y="-125" type="line"/>
      <point x="608" y="1456" type="line"/>
      <point x="716" y="1456" type="line"/>
    </contour>
  </outline>
</glyph>
<glyph name="one" format="1">
  <advance width="831"/>
  <unicode hex="0031"/>
  <outline>
    <contour>
      <point x="114" y="88" type="line"/>
      <point x="375" y="101" type="line"/>
      <point x="375" y="1329" type="line"/>
      <point x="88" y="1288" type="line"/>
      <point x="88" y="1372" type="line"/>
      <point x="495" y="1460" type="line"/>
      <point x="495" y="101" type="line"/>
      <point x="756" y="88" type="line"/>
      <point x="756" y="0" type="line"/>
      <point x="114" y="0" type="line"/>
    </contour>
  </outline>
</glyph>
<glyph name="three" format="1">
  <advance width="1102"/>
  <unicode hex="0033"/>
  <outline>
    <contour>
      <point x="374" y="793" type="line"/>
      <point x="512" y="793" type="line" smooth="yes"/>
      <point x="724.0" y="793.0"/>
      <point x="835.0" y="910.3333333333333"/>
      <point x="835" y="1077" type="curve" smooth="yes"/>
      <point x="835.0" y="1258.3333333333335"/>
      <point x="731.3333333333333" y="1375.0"/>
      <point x="530" y="1375" type="curve" smooth="yes"/>
      <point x="342.0" y="1375.0"/>
      <point x="210.0" y="1255.0"/>
      <point x="210" y="1075" type="curve"/>
      <point x="98" y="1075" type="line"/>
      <point x="96" y="1081" type="line"/>
      <point x="89.33333333333334" y="1307.6666666666665"/>
      <point x="276.66666666666674" y="1477.0"/>
      <point x="530" y="1477" type="curve" smooth="yes"/>
      <point x="788.6666666666665" y="1477.0"/>
      <point x="955.0" y="1326.3333333333335"/>
      <point x="955" y="1073" type="curve" smooth="yes"/>
      <point x="955.0" y="935.6666666666667"/>
      <point x="865.6666666666667" y="803.6666666666667"/>
      <point x="711" y="745" type="curve"/>
      <point x="892.3333333333333" y="693.0"/>
      <point x="982.0" y="563.0"/>
      <point x="982" y="395" type="curve" smooth="yes"/>
      <point x="982.0" y="136.33333333333337"/>
      <point x="796.6666666666665" y="-21.0"/>
      <point x="534" y="-21" type="curve" smooth="yes"/>
      <point x="279.33333333333337" y="-21.0"/>
      <point x="68.33333333333334" y="131.66666666666674"/>
      <point x="75" y="389" type="curve"/>
      <point x="77" y="395" type="line"/>
      <point x="188" y="395" type="line"/>
      <point x="188.0" y="209.66666666666674"/>
      <point x="330.0" y="80.0"/>
      <point x="534" y="80" type="curve" smooth="yes"/>
      <point x="740.6666666666667" y="80.0"/>
      <point x="863.0" y="191.0"/>
      <point x="863" y="391" type="curve" smooth="yes"/>
      <point x="863.0" y="595.0"/>
      <point x="737.3333333333333" y="691.0"/>
      <point x="512" y="691" type="curve" smooth="yes"/>
      <point x="374" y="691" type="line"/>
    </contour>
  </outline>
</glyph>
<glyph name="five" format="1">
  <advance width="1070"/>
  <unicode hex="0035"/>
  <outline>
    <contour>
      <point x="827" y="1219" type="line"/>
      <point x="815" y="1345" type="line"/>
      <point x="295" y="1345" type="line"/>
      <point x="241" y="826" type="line"/>
      <point x="314.33333333333337" y="892.6666666666667"/>
      <point x="390.33333333333337" y="929.0"/>
      <point x="541" y="933" type="curve" smooth="yes"/>
      <point x="789.0" y="937.0"/>
      <point x="955.0" y="752.0"/>
      <point x="955" y="464" type="curve" smooth="yes"/>
      <point x="955.0" y="169.33333333333337"/>
      <point x="807.0" y="-21.0"/>
      <point x="511" y="-21" type="curve" smooth="yes"/>
      <point x="270.99999999999994" y="-21.0"/>
      <point x="90.33333333333334" y="114.33333333333337"/>
      <point x="97" y="377" type="curve"/>
      <point x="99" y="383" type="line"/>
      <point x="206" y="383" type="line"/>
      <point x="206.0" y="187.0"/>
      <point x="325.66666666666674" y="80.0"/>
      <point x="511" y="80" type="curve" smooth="yes"/>
      <point x="728.3333333333333" y="80.0"/>
      <point x="835.0" y="214.0"/>
      <point x="835" y="462" type="curve" smooth="yes"/>
      <point x="835.0" y="679.3333333333333"/>
      <point x="722.3333333333333" y="822.0"/>
      <point x="529" y="822" type="curve" smooth="yes"/>
      <point x="342.33333333333337" y="822.0"/>
      <point x="253.0" y="763.0"/>
      <point x="209" y="643" type="curve"/>
      <point x="112" y="659" type="line"/>
      <point x="192" y="1456" type="line"/>
      <point x="924" y="1456" type="line"/>
      <point x="924" y="1219" type="line"/>
    </contour>
  </outline>
</glyph>
<glyph name="seven" format="1">
  <advance width="1115"/>
  <unicode hex="0037"/>
  <outline>
    <contour>
      <point x="1031" y="1354" type="line"/>
      <point x="716.3333333333335" y="982.0"/>
      <point x="558.0" y="622.0"/>
      <point x="502" y="122" type="curve" smooth="yes"/>
      <point x="492" y="0" type="line"/>
      <point x="372" y="0" type="line"/>
      <point x="382" y="122" type="line" smooth="yes"/>
      <point x="439.33333333333337" y="616.6666666666666"/>
      <point x="615.0" y="1004.6666666666665"/>
      <point x="907" y="1354" type="curve"/>
      <point x="190" y="1354" type="line"/>
      <point x="182" y="1149" type="line"/>
      <point x="76" y="1149" type="line"/>
      <point x="76" y="1456" type="line"/>
      <point x="1031" y="1456" type="line"/>
    </contour>
  </outline>
</glyph>
<glyph name="nine" format="1">
  <advance width="1138"/>
  <unicode hex="0039"/>
  <outline>
    <contour>
      <point x="505" y="80" type="curve" smooth="yes"/>
      <point x="731.6666666666667" y="80.0"/>
      <point x="867.0" y="249.66666666666674"/>
      <point x="867" y="611" type="curve" smooth="yes"/>
      <point x="867" y="653" type="line"/>
      <point x="795.0" y="531.6666666666667"/>
      <point x="671.3333333333333" y="463.0"/>
      <point x="526" y="463" type="curve" smooth="yes"/>
      <point x="260.66666666666674" y="463.0"/>
      <point x="84.0" y="664.6666666666667"/>
      <point x="84" y="958" type="curve" smooth="yes"/>
      <point x="84.0" y="1252.6666666666665"/>
      <point x="275.0" y="1477.0"/>
      <point x="527" y="1477" type="curve" smooth="yes"/>
      <point x="811.0" y="1477.0"/>
      <point x="991.0" y="1292.6666666666665"/>
      <point x="991" y="918" type="curve" smooth="yes"/>
      <point x="991" y="613" type="line" smooth="yes"/>
      <point x="991.0" y="187.66666666666674"/>
      <point x="802.3333333333333" y="-21.0"/>
      <point x="505" y="-21" type="curve" smooth="yes"/>
      <point x="402.33333333333337" y="-21.0"/>
      <point x="293.66666666666663" y="-1.3333333333333286"/>
      <point x="199" y="40" type="curve"/>
      <point x="221" y="140" type="line"/>
      <point x="311.66666666666663" y="97.33333333333334"/>
      <point x="394.33333333333337" y="80.0"/>
    </contour>
    <contour>
      <point x="526" y="564" type="curve" smooth="yes"/>
      <point x="699.3333333333333" y="564.0"/>
      <point x="817.6666666666667" y="664.3333333333333"/>
      <point x="867" y="795" type="curve"/>
      <point x="867" y="927" type="line" smooth="yes"/>
      <point x="867.0" y="1228.3333333333335"/>
      <point x="740.0" y="1375.0"/>
      <point x="532" y="1375" type="curve" smooth="yes"/>
      <point x="344.0" y="1375.0"/>
      <point x="208.0" y="1188.6666666666665"/>
      <point x="208" y="958" type="curve" smooth="yes"/>
      <point x="208.0" y="732.6666666666667"/>
      <point x="330.0" y="564.0"/>
    </contour>
  </outline>
</glyph>
<glyph name="less" format="1">
  <advance width="1022"/>
  <unicode hex="003C"/>
  <outline>
    <contour>
      <point x="181" y="550" type="line"/>
      <point x="181" y="544" type="line"/>
      <point x="289" y="516" type="line"/>
      <point x="903" y="248" type="line"/>
      <point x="903" y="122" type="line"/>
      <point x="76" y="501" type="line"/>
      <point x="76" y="598" type="line"/>
      <point x="903" y="976" type="line"/>
      <point x="903" y="850" type="line"/>
      <point x="289" y="578" type="line"/>
    </contour>
  </outline>
</glyph>
<glyph name="equal" format="1">
  <advance width="1127"/>
  <unicode hex="003D"/>
  <outline>
    <contour>
      <point x="981" y="833" type="line"/>
      <point x="147" y="833" type="line"/>
      <point x="147" y="939" type="line"/>
      <point x="981" y="939" type="line"/>
    </contour>
    <contour>
      <point x="981" y="422" type="line"/>
      <point x="147" y="422" type="line"/>
      <point x="147" y="528" type="line"/>
      <point x="981" y="528" type="line"/>
    </contour>
  </outline>
</glyph>
<glyph name="greater" format="1">
  <advance width="1056"/>
  <unicode hex="003E"/>
  <outline>
    <contour>
      <point x="864" y="538" type="line"/>
      <point x="864" y="544" type="line"/>
      <point x="756" y="573" type="line"/>
      <point x="125" y="844" type="line"/>
      <point x="125" y="967" type="line"/>
      <point x="969" y="589" type="line"/>
      <point x="969" y="492" type="line"/>
      <point x="125" y="113" type="line"/>
      <point x="125" y="237" type="line"/>
      <point x="756" y="511" type="line"/>
    </contour>
  </outline>
</glyph>
<glyph name="at" format="1">
  <advance width="1809"/>
  <unicode hex="0040"/>
  <outline>
    <contour>
      <point x="1715" y="513" type="curve" smooth="yes"/>
      <point x="1701.66666667" y="225.0"/>
      <point x="1559.66666667" y="-21.0"/>
      <point x="1285" y="-21" type="curve" smooth="yes"/>
      <point x="1181.0" y="-21.0"/>
      <point x="1106.33333333" y="51.0"/>
      <point x="1085" y="171" type="curve"/>
      <point x="1014.33333333" y="43.0"/>
      <point x="911.333333333" y="-21.0"/>
      <point x="774" y="-21" type="curve" smooth="yes"/>
      <point x="599.333333333" y="-21.0"/>
      <point x="500.666666667" y="152.0"/>
      <point x="526" y="416" type="curve" smooth="yes"/>
      <point x="556.666666667" y="754.666666667"/>
      <point x="729.0" y="977.0"/>
      <point x="953" y="977" type="curve" smooth="yes"/>
      <point x="1077.0" y="977.0"/>
      <point x="1138.0" y="941.0"/>
      <point x="1230" y="869" type="curve"/>
      <point x="1228" y="867" type="line"/>
      <point x="1231" y="867" type="line"/>
      <point x="1181" y="293" type="line" smooth="yes"/>
      <point x="1167.66666667" y="117.0"/>
      <point x="1232.66666667" y="65.0"/>
      <point x="1306" y="65" type="curve" smooth="yes"/>
      <point x="1495.33333333" y="65.0"/>
      <point x="1609.66666667" y="247.666666667"/>
      <point x="1623" y="513" type="curve" smooth="yes"/>
      <point x="1648.33333333" y="1031.66666667"/>
      <point x="1426.66666667" y="1333.0"/>
      <point x="944" y="1333" type="curve" smooth="yes"/>
      <point x="512.0" y="1333.0"/>
      <point x="206.666666667" y="990.0"/>
      <point x="184" y="478" type="curve" smooth="yes"/>
      <point x="158.666666667" y="-27.3333333333"/>
      <point x="417.666666667" y="-368.0"/>
      <point x="867" y="-368" type="curve" smooth="yes"/>
      <point x="984.333333333" y="-368.0"/>
      <point x="1114.33333333" y="-335.666666667"/>
      <point x="1197" y="-289" type="curve"/>
      <point x="1228" y="-364" type="line"/>
      <point x="1142.66666667" y="-418.666666667"/>
      <point x="989.666666667" y="-453.0"/>
      <point x="863" y="-453" type="curve" smooth="yes"/>
      <point x="356.333333333" y="-453.0"/>
      <point x="60.6666666667" y="-98.0"/>
      <point x="86" y="478" type="curve" smooth="yes"/>
      <point x="110.0" y="1043.33333333"/>
      <point x="448.0" y="1420.0"/>
      <point x="948" y="1420" type="curve" smooth="yes"/>
      <point x="1469.33333333" y="1420.0"/>
      <point x="1737.66666667" y="1078.33333333"/>
    </contour>
    <contour>
      <point x="636" y="416" type="curve" smooth="yes"/>
      <point x="614.666666667" y="209.333333333"/>
      <point x="672.0" y="77.0"/>
      <point x="800" y="77" type="curve" smooth="yes"/>
      <point x="914.666666667" y="77.0"/>
      <point x="1008.33333333" y="125.0"/>
      <point x="1079" y="277" type="curve"/>
      <point x="1079.0" y="283.666666667"/>
      <point x="1078.66666667" y="287.666666667"/>
      <point x="1080" y="293" type="curve"/>
      <point x="1127" y="836" type="line"/>
      <point x="1084.33333333" y="866.666666667"/>
      <point x="1031.66666667" y="886.0"/>
      <point x="969" y="886" type="curve" smooth="yes"/>
      <point x="790.333333333" y="886.0"/>
      <point x="666.666666667" y="725.333333333"/>
    </contour>
  </outline>
</glyph>
<glyph name="B" format="1">
  <advance width="1322"/>
  <unicode hex="0042"/>
  <outline>
    <contour>
      <point x="659" y="1456" type="line" smooth="yes"/>
      <point x="961.6666666666664" y="1456.0"/>
      <point x="1139.0" y="1329.0"/>
      <point x="1139" y="1073" type="curve" smooth="yes"/>
      <point x="1139.0" y="923.6666666666667"/>
      <point x="1048.3333333333333" y="805.6666666666667"/>
      <point x="903" y="763" type="curve"/>
      <point x="1080.3333333333333" y="731.0"/>
      <point x="1202.0" y="581.0"/>
      <point x="1202" y="405" type="curve" smooth="yes"/>
      <point x="1202.0" y="144.9999999999999"/>
      <point x="1019.6666666666664" y="0.0"/>
      <point x="737" y="0" type="curve" smooth="yes"/>
      <point x="71" y="0" type="line"/>
      <point x="71" y="88" type="line"/>
      <point x="234" y="101" type="line"/>
      <point x="234" y="1354" type="line"/>
      <point x="71" y="1367" type="line"/>
      <point x="71" y="1456" type="line"/>
      <point x="234" y="1456" type="line"/>
    </contour>
    <contour>
      <point x="353" y="702" type="line"/>
      <point x="353" y="101" type="line"/>
      <point x="737" y="101" type="line" smooth="yes"/>
      <point x="951.6666666666666" y="101.0"/>
      <point x="1082.0" y="212.3333333333333"/>
      <point x="1082" y="403" type="curve" smooth="yes"/>
      <point x="1082.0" y="577.6666666666665"/>
      <point x="968.0000000000001" y="702.0"/>
      <point x="756" y="702" type="curve" smooth="yes"/>
    </contour>
    <contour>
      <point x="353" y="803" type="line"/>
      <point x="688" y="803" type="line" smooth="yes"/>
      <point x="898.6666666666667" y="803.0"/>
      <point x="1019.0" y="897.0"/>
      <point x="1019" y="1077" type="curve" smooth="yes"/>
      <point x="1019.0" y="1261.0"/>
      <point x="893.6666666666667" y="1354.0"/>
      <point x="659" y="1354" type="curve" smooth="yes"/>
      <point x="353" y="1354" type="line"/>
    </contour>
  </outline>
</glyph>
<glyph name="C" format="1">
  <advance width="1334"/>
  <unicode hex="0043"/>
  <outline>
    <contour>
      <point x="1200" y="1050" type="line"/>
      <point x="1107" y="1050" type="line"/>
      <point x="1090" y="1271" type="line"/>
      <point x="1003" y="1343"/>
      <point x="917" y="1375"/>
      <point x="754" y="1375" type="curve" smooth="yes"/>
      <point x="449" y="1375"/>
      <point x="222.0" y="1113.6666666666665"/>
      <point x="222" y="739" type="curve" smooth="yes"/>
      <point x="222" y="718" type="line" smooth="yes"/>
      <point x="222" y="333"/>
      <point x="440" y="80"/>
      <point x="748" y="80" type="curve" smooth="yes"/>
      <point x="903" y="80"/>
      <point x="1019" y="125"/>
      <point x="1105" y="184" type="curve"/>
      <point x="1122" y="405" type="line"/>
      <point x="1215" y="405" type="line"/>
      <point x="1215" y="132" type="line"/>
      <point x="1104" y="38"/>
      <point x="955" y="-21"/>
      <point x="747" y="-21" type="curve" smooth="yes"/>
      <point x="356" y="-21"/>
      <point x="103" y="276"/>
      <point x="103" y="718" type="curve" smooth="yes"/>
      <point x="103" y="737" type="line" smooth="yes"/>
      <point x="103.0" y="1170.3333333333333"/>
      <point x="382" y="1477"/>
      <point x="745" y="1477" type="curve" smooth="yes"/>
      <point x="961" y="1477"/>
      <point x="1089" y="1417"/>
      <point x="1200" y="1310" type="curve"/>
    </contour>
  </outline>
</glyph>
<glyph name="G" format="1">
  <advance width="1420"/>
  <unicode hex="0047"/>
  <outline>
    <contour>
      <point x="1239" y="130" type="line"/>
      <point x="1160" y="55"/>
      <point x="994" y="-21"/>
      <point x="750" y="-21" type="curve" smooth="yes"/>
      <point x="346" y="-21"/>
      <point x="95.0" y="279.33333333333337"/>
      <point x="95" y="718" type="curve" smooth="yes"/>
      <point x="95" y="749" type="line" smooth="yes"/>
      <point x="95.0" y="1181.0"/>
      <point x="365" y="1477"/>
      <point x="730" y="1477" type="curve" smooth="yes"/>
      <point x="949" y="1477"/>
      <point x="1091" y="1417"/>
      <point x="1196" y="1300" type="curve"/>
      <point x="1196" y="1047" type="line"/>
      <point x="1103" y="1047" type="line"/>
      <point x="1082" y="1260" type="line"/>
      <point x="1003" y="1337"/>
      <point x="906" y="1375"/>
      <point x="739" y="1375" type="curve" smooth="yes"/>
      <point x="428" y="1375"/>
      <point x="215.0" y="1119.0"/>
      <point x="215" y="751" type="curve" smooth="yes"/>
      <point x="215" y="718" type="line" smooth="yes"/>
      <point x="215.0" y="339.3333333333335"/>
      <point x="416" y="80"/>
      <point x="750" y="80" type="curve" smooth="yes"/>
      <point x="924" y="80"/>
      <point x="1055" y="130"/>
      <point x="1120" y="176" type="curve"/>
      <point x="1120" y="549" type="line"/>
      <point x="840" y="554" type="line"/>
      <point x="840" y="651" type="line"/>
      <point x="1239" y="651" type="line"/>
    </contour>
  </outline>
</glyph>
<glyph name="I" format="1">
  <advance width="627"/>
  <unicode hex="0049"/>
  <outline>
    <contour>
      <point x="91" y="1367" type="line"/>
      <point x="91" y="1456" type="line"/>
      <point x="537" y="1456" type="line"/>
      <point x="537" y="1367" type="line"/>
      <point x="374" y="1354" type="line"/>
      <point x="374" y="101" type="line"/>
      <point x="537" y="88" type="line"/>
      <point x="537" y="0" type="line"/>
      <point x="91" y="0" type="line"/>
      <point x="91" y="88" type="line"/>
      <point x="254" y="101" type="line"/>
      <point x="254" y="1354" type="line"/>
    </contour>
  </outline>
</glyph>
<glyph name="J" format="1">
  <advance width="1158"/>
  <unicode hex="004A"/>
  <outline>
    <contour>
      <point x="1080" y="1456" type="line"/>
      <point x="1080" y="1367" type="line"/>
      <point x="917" y="1354" type="line"/>
      <point x="917" y="420" type="line" smooth="yes"/>
      <point x="917" y="155"/>
      <point x="760" y="-21"/>
      <point x="489" y="-21" type="curve" smooth="yes"/>
      <point x="225" y="-21"/>
      <point x="56" y="131"/>
      <point x="54" y="405" type="curve"/>
      <point x="56" y="411" type="line"/>
      <point x="168" y="411" type="line"/>
      <point x="168" y="182"/>
      <point x="297" y="84"/>
      <point x="496" y="84" type="curve" smooth="yes"/>
      <point x="684" y="84"/>
      <point x="797" y="217"/>
      <point x="797" y="420" type="curve" smooth="yes"/>
      <point x="797" y="1354" type="line"/>
      <point x="615" y="1367" type="line"/>
      <point x="615" y="1456" type="line"/>
    </contour>
  </outline>
</glyph>
<glyph name="K" format="1">
  <advance width="1417"/>
  <unicode hex="004B"/>
  <outline>
    <contour>
      <point x="71.0" y="88.0" type="line"/>
      <point x="234.0" y="101.0" type="line"/>
      <point x="234.0" y="1354.0" type="line"/>
      <point x="71.0" y="1367.0" type="line"/>
      <point x="71.0" y="1456.0" type="line"/>
      <point x="516.0" y="1456.0" type="line"/>
      <point x="516.0" y="1367.0" type="line"/>
      <point x="353.0" y="1354.0" type="line"/>
      <point x="353.0" y="786.0" type="line"/>
      <point x="552.0" y="786.0" type="line"/>
      <point x="1040.0" y="1356.0" type="line"/>
      <point x="1042.0" y="1359.0" type="line"/>
      <point x="902.0" y="1367.0" type="line"/>
      <point x="902.0" y="1456.0" type="line"/>
      <point x="1309.0" y="1456.0" type="line"/>
      <point x="1309.0" y="1367.0" type="line"/>
      <point x="1181.0" y="1355.0" type="line"/>
      <point x="660.0" y="740.0" type="line"/>
      <point x="1222.0" y="100.0" type="line"/>
      <point x="1353.0" y="88.0" type="line"/>
      <point x="1353.0" y="0.0" type="line"/>
      <point x="938.0" y="0.0" type="line"/>
      <point x="938.0" y="88.0" type="line"/>
      <point x="1076.0" y="96.0" type="line"/>
      <point x="1075.0" y="97.0" type="line"/>
      <point x="553.0" y="685.0" type="line"/>
      <point x="353.0" y="685.0" type="line"/>
      <point x="353.0" y="101.0" type="line"/>
      <point x="516.0" y="88.0" type="line"/>
      <point x="516.0" y="0.0" type="line"/>
      <point x="71.0" y="0.0" type="line"/>
    </contour>
  </outline>
</glyph>
<glyph name="L" format="1">
  <advance width="1178"/>
  <unicode hex="004C"/>
  <outline>
    <contour>
      <point x="71" y="0" type="line"/>
      <point x="71" y="88" type="line"/>
      <point x="234" y="101" type="line"/>
      <point x="234" y="1354" type="line"/>
      <point x="71" y="1367" type="line"/>
      <point x="71" y="1456" type="line"/>
      <point x="234" y="1456" type="line"/>
      <point x="354" y="1456" type="line"/>
      <point x="517" y="1456" type="line"/>
      <point x="517" y="1367" type="line"/>
      <point x="354" y="1354" type="line"/>
      <point x="354" y="101" type="line"/>
      <point x="959" y="101" type="line"/>
      <point x="968" y="326" type="line"/>
      <point x="1074" y="326" type="line"/>
      <point x="1074" y="0" type="line"/>
    </contour>
  </outline>
</glyph>
<glyph name="N" format="1">
  <advance width="1536"/>
  <unicode hex="004E"/>
  <outline>
    <contour>
      <point x="1469" y="1456" type="line"/>
      <point x="1469" y="1367" type="line"/>
      <point x="1306" y="1354" type="line"/>
      <point x="1306" y="0" type="line"/>
      <point x="1187" y="0" type="line"/>
      <point x="356" y="1252" type="line"/>
      <point x="350" y="1251" type="line"/>
      <point x="350" y="101" type="line"/>
      <point x="517" y="88" type="line"/>
      <point x="517" y="0" type="line"/>
      <point x="71" y="0" type="line"/>
      <point x="71" y="88" type="line"/>
      <point x="234" y="101" type="line"/>
      <point x="234" y="1354" type="line"/>
      <point x="71" y="1367" type="line"/>
      <point x="71" y="1456" type="line"/>
      <point x="234" y="1456" type="line"/>
      <point x="354" y="1456" type="line"/>
      <point x="1184" y="206" type="line"/>
      <point x="1190" y="207" type="line"/>
      <point x="1190" y="1354" type="line"/>
      <point x="1024" y="1367" type="line"/>
      <point x="1024" y="1456" type="line"/>
      <point x="1306" y="1456" type="line"/>
    </contour>
  </outline>
</glyph>
<glyph name="O" format="1">
  <advance width="1468"/>
  <unicode hex="004F"/>
  <outline>
    <contour>
      <point x="1357" y="718" type="line" smooth="yes"/>
      <point x="1357.0" y="280.66666666666674"/>
      <point x="1100.3333333333333" y="-21.0"/>
      <point x="727" y="-21" type="curve" smooth="yes"/>
      <point x="359.0" y="-21.0"/>
      <point x="106.0" y="282.0"/>
      <point x="106" y="718" type="curve" smooth="yes"/>
      <point x="106" y="737" type="line" smooth="yes"/>
      <point x="106.0" y="1173.0"/>
      <point x="358.0" y="1477.0"/>
      <point x="726" y="1477" type="curve" smooth="yes"/>
      <point x="1099.3333333333333" y="1477.0"/>
      <point x="1357.0" y="1173.0"/>
      <point x="1357" y="737" type="curve" smooth="yes"/>
    </contour>
    <contour>
      <point x="1237" y="739" type="line" smooth="yes"/>
      <point x="1237.0" y="1116.3333333333333"/>
      <point x="1039.3333333333333" y="1372.0"/>
      <point x="726" y="1372" type="curve" smooth="yes"/>
      <point x="418.0" y="1372.0"/>
      <point x="226.0" y="1116.3333333333333"/>
      <point x="226" y="739" type="curve" smooth="yes"/>
      <point x="226" y="718" type="line" smooth="yes"/>
      <point x="226.0" y="337.99999999999994"/>
      <point x="419.00000000000006" y="83.0"/>
      <point x="727" y="83" type="curve" smooth="yes"/>
      <point x="1043.0" y="83.0"/>
      <point x="1237.0" y="336.66666666666674"/>
      <point x="1237" y="718" type="curve" smooth="yes"/>
    </contour>
  </outline>
</glyph>
<glyph name="Q" format="1">
  <advance width="1463"/>
  <unicode hex="0051"/>
  <outline>
    <contour>
      <point x="1357" y="718" type="line" smooth="yes"/>
      <point x="1357.0" y="434.0"/>
      <point x="1248.0" y="203.0"/>
      <point x="1064" y="79" type="curve"/>
      <point x="1365" y="-136" type="line"/>
      <point x="1299" y="-222" type="line"/>
      <point x="954" y="21" type="line"/>
      <point x="883.3333333333333" y="-7.0"/>
      <point x="807.0" y="-21.0"/>
      <point x="727" y="-21" type="curve" smooth="yes"/>
      <point x="359.0" y="-21.0"/>
      <point x="106.0" y="282.0"/>
      <point x="106" y="718" type="curve" smooth="yes"/>
      <point x="106" y="737" type="line" smooth="yes"/>
      <point x="106.0" y="1173.0"/>
      <point x="358.0" y="1477.0"/>
      <point x="726" y="1477" type="curve" smooth="yes"/>
      <point x="1099.3333333333333" y="1477.0"/>
      <point x="1357.0" y="1173.0"/>
      <point x="1357" y="737" type="curve" smooth="yes"/>
    </contour>
    <contour>
      <point x="1237" y="739" type="line" smooth="yes"/>
      <point x="1237.0" y="1116.3333333333333"/>
      <point x="1039.3333333333333" y="1372.0"/>
      <point x="726" y="1372" type="curve" smooth="yes"/>
      <point x="418.0" y="1372.0"/>
      <point x="226.0" y="1116.3333333333333"/>
      <point x="226" y="739" type="curve" smooth="yes"/>
      <point x="226" y="718" type="line" smooth="yes"/>
      <point x="226.0" y="337.99999999999994"/>
      <point x="419.00000000000006" y="83.0"/>
      <point x="727" y="83" type="curve" smooth="yes"/>
      <point x="1043.0" y="83.0"/>
      <point x="1237.0" y="336.66666666666674"/>
      <point x="1237" y="718" type="curve" smooth="yes"/>
    </contour>
  </outline>
</glyph>
<glyph name="V" format="1">
  <advance width="1455"/>
  <unicode hex="0056"/>
  <outline>
    <contour>
      <point x="430" y="1367" type="line"/>
      <point x="294" y="1356" type="line"/>
      <point x="695" y="246" type="line"/>
      <point x="725" y="151" type="line"/>
      <point x="731" y="151" type="line"/>
      <point x="760" y="246" type="line"/>
      <point x="1161" y="1356" type="line"/>
      <point x="1025" y="1367" type="line"/>
      <point x="1025" y="1456" type="line"/>
      <point x="1403" y="1456" type="line"/>
      <point x="1403" y="1367" type="line"/>
      <point x="1290" y="1358" type="line"/>
      <point x="784" y="0" type="line"/>
      <point x="671" y="0" type="line"/>
      <point x="164" y="1358" type="line"/>
      <point x="52" y="1367" type="line"/>
      <point x="52" y="1456" type="line"/>
      <point x="430" y="1456" type="line"/>
    </contour>
  </outline>
</glyph>
<glyph name="W" format="1">
  <advance width="2009"/>
  <unicode hex="0057"/>
  <outline>
    <contour>
      <point x="1966" y="1367" type="line"/>
      <point x="1857" y="1359" type="line"/>
      <point x="1508" y="0" type="line"/>
      <point x="1395" y="0" type="line"/>
      <point x="1051" y="1117" type="line"/>
      <point x="1007" y="1270" type="line"/>
      <point x="1001" y="1270" type="line"/>
      <point x="962" y="1117" type="line"/>
      <point x="614" y="0" type="line"/>
      <point x="501" y="0" type="line"/>
      <point x="152" y="1359" type="line"/>
      <point x="43" y="1367" type="line"/>
      <point x="43" y="1456" type="line"/>
      <point x="423" y="1456" type="line"/>
      <point x="423" y="1367" type="line"/>
      <point x="273" y="1356" type="line"/>
      <point x="506" y="412" type="line"/>
      <point x="558" y="190" type="line"/>
      <point x="564" y="190" type="line"/>
      <point x="619" y="412" type="line"/>
      <point x="949" y="1456" type="line"/>
      <point x="1062" y="1456" type="line"/>
      <point x="1386" y="412" type="line"/>
      <point x="1444" y="187" type="line"/>
      <point x="1450" y="188" type="line"/>
      <point x="1503" y="412" type="line"/>
      <point x="1734" y="1356" type="line"/>
      <point x="1586" y="1367" type="line"/>
      <point x="1586" y="1456" type="line"/>
      <point x="1966" y="1456" type="line"/>
    </contour>
  </outline>
</glyph>
<glyph name="X" format="1">
  <advance width="1437"/>
  <unicode hex="0058"/>
  <outline>
    <contour>
      <point x="55" y="88" type="line"/>
      <point x="177" y="98" type="line"/>
      <point x="649" y="738" type="line"/>
      <point x="221" y="1357" type="line"/>
      <point x="99" y="1367" type="line"/>
      <point x="99" y="1456" type="line"/>
      <point x="499" y="1456" type="line"/>
      <point x="499" y="1367" type="line"/>
      <point x="360" y="1361" type="line"/>
      <point x="718" y="829" type="line"/>
      <point x="1077" y="1361" type="line"/>
      <point x="940" y="1367" type="line"/>
      <point x="940" y="1456" type="line"/>
      <point x="1339" y="1456" type="line"/>
      <point x="1339" y="1367" type="line"/>
      <point x="1217" y="1357" type="line"/>
      <point x="790" y="738" type="line"/>
      <point x="1263" y="98" type="line"/>
      <point x="1386" y="88" type="line"/>
      <point x="1386" y="0" type="line"/>
      <point x="987" y="0" type="line"/>
      <point x="987" y="88" type="line"/>
      <point x="1124" y="94" type="line"/>
      <point x="720" y="647" type="line"/>
      <point x="316" y="94" type="line"/>
      <point x="454" y="88" type="line"/>
      <point x="454" y="0" type="line"/>
      <point x="55" y="0" type="line"/>
    </contour>
  </outline>
</glyph>
<glyph name="Y" format="1">
  <advance width="1423"/>
  <unicode hex="0059"/>
  <outline>
    <contour>
      <point x="455.0" y="1367.0" type="line"/>
      <point x="315.0" y="1357.0" type="line"/>
      <point x="688.0" y="684.0" type="line"/>
      <point x="709.0" y="647.0" type="line"/>
      <point x="710.0" y="649.0" type="line"/>
      <point x="737.0" y="697.0" type="line"/>
      <point x="1105.0" y="1357.0" type="line"/>
      <point x="965.0" y="1367.0" type="line"/>
      <point x="965.0" y="1456.0" type="line"/>
      <point x="1366.0" y="1456.0" type="line"/>
      <point x="1366.0" y="1367.0" type="line"/>
      <point x="1242.0" y="1357.0" type="line"/>
      <point x="768.0" y="532.0" type="line"/>
      <point x="768.0" y="101.0" type="line"/>
      <point x="931.0" y="88.0" type="line"/>
      <point x="931.0" y="0.0" type="line"/>
      <point x="485.0" y="0.0" type="line"/>
      <point x="485.0" y="88.0" type="line"/>
      <point x="648.0" y="101.0" type="line"/>
      <point x="648.0" y="539.0" type="line"/>
      <point x="178.0" y="1357.0" type="line"/>
      <point x="55.0" y="1367.0" type="line"/>
      <point x="55.0" y="1456.0" type="line"/>
      <point x="455.0" y="1456.0" type="line"/>
    </contour>
  </outline>
</glyph>
<glyph name="Z" format="1">
  <advance width="1220"/>
  <unicode hex="005A"/>
  <outline>
    <contour>
      <point x="1095" y="1456" type="line"/>
      <point x="1095" y="1369" type="line"/>
      <point x="234" y="101" type="line"/>
      <point x="1012" y="101" type="line"/>
      <point x="1021" y="306" type="line"/>
      <point x="1128" y="306" type="line"/>
      <point x="1128" y="0" type="line"/>
      <point x="92" y="0" type="line"/>
      <point x="92" y="92" type="line"/>
      <point x="949" y="1354" type="line"/>
      <point x="233" y="1354" type="line"/>
      <point x="225" y="1149" type="line"/>
      <point x="118" y="1149" type="line"/>
      <point x="118" y="1456" type="line"/>
    </contour>
  </outline>
</glyph>
<glyph name="bracketleft" format="1">
  <advance width="548"/>
  <unicode hex="005B"/>
  <outline>
    <contour>
      <point x="486" y="1562" type="line"/>
      <point x="276" y="1562" type="line"/>
      <point x="276" y="-210" type="line"/>
      <point x="486" y="-210" type="line"/>
      <point x="486" y="-312" type="line"/>
      <point x="157" y="-312" type="line"/>
      <point x="157" y="1664" type="line"/>
      <point x="486" y="1664" type="line"/>
    </contour>
  </outline>
</glyph>
<glyph name="backslash" format="1">
  <advance width="810"/>
  <unicode hex="005C"/>
  <outline>
    <contour>
      <point x="36" y="1456" type="line"/>
      <point x="152" y="1456" type="line"/>
      <point x="760" y="-125" type="line"/>
      <point x="644" y="-125" type="line"/>
    </contour>
  </outline>
</glyph>
<glyph name="bracketright" format="1">
  <advance width="526"/>
  <unicode hex="005D"/>
  <outline>
    <contour>
      <point x="23" y="1664" type="line"/>
      <point x="353" y="1664" type="line"/>
      <point x="353" y="-312" type="line"/>
      <point x="23" y="-312" type="line"/>
      <point x="23" y="-210" type="line"/>
      <point x="233" y="-210" type="line"/>
      <point x="233" y="1562" type="line"/>
      <point x="23" y="1562" type="line"/>
    </contour>
  </outline>
</glyph>
<glyph name="underscore" format="1">
  <advance width="1149"/>
  <unicode hex="005F"/>
  <outline>
    <contour>
      <point x="1000" y="-101" type="line"/>
      <point x="119" y="-101" type="line"/>
      <point x="119" y="0" type="line"/>
      <point x="1000" y="0" type="line"/>
    </contour>
  </outline>
</glyph>
<glyph name="grave" format="1">
  <advance width="562"/>
  <unicode hex="0060"/>
  <outline>
    <contour>
      <point x="442.0" y="1210.0" type="line"/>
      <point x="435.0" y="1210.0" type="line"/>
      <point x="325.0" y="1210.0" type="line"/>
      <point x="84.0" y="1471.0" type="line"/>
      <point x="86.0" y="1476.0" type="line"/>
      <point x="240.0" y="1476.0" type="line"/>
    </contour>
  </outline>
</glyph>
<glyph name="a" format="1">
  <advance width="1160"/>
  <unicode hex="0061"/>
  <outline>
    <contour>
      <point x="847" y="0" type="line"/>
      <point x="831" y="73"/>
      <point x="825" y="121"/>
      <point x="825" y="176" type="curve"/>
      <point x="745" y="63"/>
      <point x="603.6666666666667" y="-21.0"/>
      <point x="437" y="-21" type="curve" smooth="yes"/>
      <point x="225.0" y="-21.0"/>
      <point x="104.0" y="96.33333333333337"/>
      <point x="104" y="283" type="curve" smooth="yes"/>
      <point x="104.0" y="482.99999999999994"/>
      <point x="288.3333333333333" y="609.0"/>
      <point x="583" y="609" type="curve" smooth="yes"/>
      <point x="822" y="609" type="line"/>
      <point x="822" y="752" type="line" smooth="yes"/>
      <point x="822.0" y="906.6666666666667"/>
      <point x="718" y="1000"/>
      <point x="539" y="1000" type="curve" smooth="yes"/>
      <point x="429" y="1000"/>
      <point x="344" y="967"/>
      <point x="279" y="911" type="curve"/>
      <point x="269" y="764" type="line"/>
      <point x="170" y="764" type="line"/>
      <point x="171" y="972" type="line"/>
      <point x="280" y="1059"/>
      <point x="386.66666666666674" y="1102.0"/>
      <point x="544" y="1102" type="curve" smooth="yes"/>
      <point x="782.6666666666667" y="1102.0"/>
      <point x="941.0" y="976.6666666666667"/>
      <point x="941" y="750" type="curve" smooth="yes"/>
      <point x="941" y="218" type="line" smooth="yes"/>
      <point x="941.0" y="174.0"/>
      <point x="945" y="134"/>
      <point x="952" y="95" type="curve"/>
      <point x="1087" y="88" type="line"/>
      <point x="1087" y="0" type="line"/>
    </contour>
    <contour>
      <point x="450" y="85" type="curve" smooth="yes"/>
      <point x="615" y="85"/>
      <point x="731" y="163"/>
      <point x="822" y="300" type="curve"/>
      <point x="822" y="517" type="line"/>
      <point x="581" y="517" type="line" smooth="yes"/>
      <point x="363.66666666666674" y="517.0"/>
      <point x="223.0" y="416.33333333333326"/>
      <point x="223" y="279" type="curve" smooth="yes"/>
      <point x="223.0" y="163.0"/>
      <point x="309" y="85"/>
    </contour>
  </outline>
</glyph>
<glyph name="b" format="1">
  <advance width="1133"/>
  <unicode hex="0062"/>
  <outline>
    <contour>
      <point x="1027" y="511" type="line" smooth="yes"/>
      <point x="1027.0" y="187.0"/>
      <point x="871.3333333333333" y="-21.0"/>
      <point x="614" y="-21" type="curve" smooth="yes"/>
      <point x="455.33333333333326" y="-21.0"/>
      <point x="340.66666666666663" y="44.33333333333334"/>
      <point x="270" y="163" type="curve"/>
      <point x="257" y="0" type="line"/>
      <point x="155" y="0" type="line"/>
      <point x="155" y="1458" type="line"/>
      <point x="-8" y="1471" type="line"/>
      <point x="-8" y="1560" type="line"/>
      <point x="274" y="1560" type="line"/>
      <point x="274" y="912" type="line"/>
      <point x="346.0" y="1033.3333333333333"/>
      <point x="457.33333333333326" y="1102.0"/>
      <point x="612" y="1102" type="curve" smooth="yes"/>
      <point x="871.9999999999999" y="1102.0"/>
      <point x="1027.0" y="877.3333333333335"/>
      <point x="1027" y="532" type="curve" smooth="yes"/>
    </contour>
    <contour>
      <point x="906" y="532" type="line" smooth="yes"/>
      <point x="906.0" y="808.0"/>
      <point x="798.0" y="998.0"/>
      <point x="590" y="998" type="curve" smooth="yes"/>
      <point x="422.0" y="998.0"/>
      <point x="323.33333333333337" y="906.3333333333333"/>
      <point x="274" y="777" type="curve"/>
      <point x="274" y="288" type="line"/>
      <point x="327.33333333333337" y="162.66666666666669"/>
      <point x="433.33333333333326" y="83.0"/>
      <point x="592" y="83" type="curve" smooth="yes"/>
      <point x="800.0" y="83.0"/>
      <point x="906.0" y="249.66666666666674"/>
      <point x="906" y="511" type="curve" smooth="yes"/>
    </contour>
  </outline>
</glyph>
<glyph name="e" format="1">
  <advance width="1102"/>
  <unicode hex="0065"/>
  <outline>
    <contour>
      <point x="574" y="-21" type="curve" smooth="yes"/>
      <point x="302.0" y="-21.0"/>
      <point x="102.0" y="201.0"/>
      <point x="102" y="509" type="curve" smooth="yes"/>
      <point x="102" y="564" type="line" smooth="yes"/>
      <point x="102.0" y="873.3333333333333"/>
      <point x="306.0" y="1102.0"/>
      <point x="558" y="1102" type="curve" smooth="yes"/>
      <point x="823.3333333333333" y="1102.0"/>
      <point x="985.0" y="920.0"/>
      <point x="985" y="640" type="curve" smooth="yes"/>
      <point x="985" y="538" type="line"/>
      <point x="221" y="538" type="line"/>
      <point x="221" y="509" type="line" smooth="yes"/>
      <point x="221.0" y="266.3333333333333"/>
      <point x="363.33333333333337" y="80.0"/>
      <point x="574" y="80" type="curve" smooth="yes"/>
      <point x="722.0" y="80.0"/>
      <point x="824.3333333333333" y="122.66666666666669"/>
      <point x="899" y="200" type="curve"/>
      <point x="950" y="118" type="line"/>
      <point x="868.6666666666667" y="32.666666666666686"/>
      <point x="746.0" y="-21.0"/>
    </contour>
    <contour>
      <point x="558" y="1000" type="curve" smooth="yes"/>
      <point x="382.0" y="1000.0"/>
      <point x="250.0" y="848.0"/>
      <point x="230" y="644" type="curve"/>
      <point x="232" y="639" type="line"/>
      <point x="866" y="639" type="line"/>
      <point x="866" y="669" type="line" smooth="yes"/>
      <point x="866.0" y="857.0"/>
      <point x="747.3333333333333" y="1000.0"/>
    </contour>
  </outline>
</glyph>
<glyph name="i" format="1">
  <advance width="638"/>
  <unicode hex="0069"/>
  <outline>
    <contour>
      <point x="89" y="88" type="line"/>
      <point x="252" y="101" type="line"/>
      <point x="252" y="980" type="line"/>
      <point x="89" y="993" type="line"/>
      <point x="89" y="1082" type="line"/>
      <point x="371" y="1082" type="line"/>
      <point x="371" y="101" type="line"/>
      <point x="534" y="88" type="line"/>
      <point x="534" y="0" type="line"/>
      <point x="89" y="0" type="line"/>
    </contour>
    <contour>
      <point x="371" y="1382" type="line"/>
      <point x="240" y="1382" type="line"/>
      <point x="240" y="1560" type="line"/>
      <point x="371" y="1560" type="line"/>
    </contour>
  </outline>
</glyph>
<glyph name="m" format="1">
  <advance width="1959"/>
  <unicode hex="006D"/>
  <outline>
    <contour>
      <point x="71" y="993" type="line"/>
      <point x="71" y="1082" type="line"/>
      <point x="340" y="1082" type="line"/>
      <point x="351" y="903" type="line"/>
      <point x="420" y="1030"/>
      <point x="537" y="1102"/>
      <point x="697" y="1102" type="curve" smooth="yes"/>
      <point x="862" y="1102"/>
      <point x="975" y="1022"/>
      <point x="1023" y="857" type="curve"/>
      <point x="1088" y="1009"/>
      <point x="1210" y="1102"/>
      <point x="1383" y="1102" type="curve" smooth="yes"/>
      <point x="1614" y="1102"/>
      <point x="1745" y="952"/>
      <point x="1745" y="631" type="curve" smooth="yes"/>
      <point x="1745" y="102" type="line"/>
      <point x="1908" y="88" type="line"/>
      <point x="1908" y="0" type="line"/>
      <point x="1461" y="0" type="line"/>
      <point x="1461" y="88" type="line"/>
      <point x="1624" y="102" type="line"/>
      <point x="1624" y="633" type="line" smooth="yes"/>
      <point x="1624" y="900"/>
      <point x="1525" y="998"/>
      <point x="1357" y="998" type="curve" smooth="yes"/>
      <point x="1170" y="998"/>
      <point x="1074" y="867"/>
      <point x="1049" y="687" type="curve"/>
      <point x="1049" y="101" type="line"/>
      <point x="1212" y="88" type="line"/>
      <point x="1212" y="0" type="line"/>
      <point x="766" y="0" type="line"/>
      <point x="766" y="88" type="line"/>
      <point x="929" y="101" type="line"/>
      <point x="929" y="633" type="line" smooth="yes"/>
      <point x="929" y="894"/>
      <point x="828" y="998"/>
      <point x="661" y="998" type="curve" smooth="yes"/>
      <point x="490" y="998"/>
      <point x="394" y="905"/>
      <point x="354" y="760" type="curve"/>
      <point x="354" y="101" type="line"/>
      <point x="517" y="88" type="line"/>
      <point x="517" y="0" type="line"/>
      <point x="71" y="0" type="line"/>
      <point x="71" y="88" type="line"/>
      <point x="234" y="101" type="line"/>
      <point x="234" y="980" type="line"/>
    </contour>
  </outline>
</glyph>
<glyph name="n" format="1">
  <advance width="1319"/>
  <unicode hex="006E"/>
  <outline>
    <contour>
      <point x="75" y="88" type="line"/>
      <point x="238" y="101" type="line"/>
      <point x="238" y="980" type="line"/>
      <point x="75" y="993" type="line"/>
      <point x="75" y="1082" type="line"/>
      <point x="344" y="1082" type="line"/>
      <point x="355" y="893" type="line"/>
      <point x="424.33333333333337" y="1026.3333333333333"/>
      <point x="543.6666666666666" y="1102.0"/>
      <point x="705" y="1102" type="curve" smooth="yes"/>
      <point x="939.6666666666665" y="1102.0"/>
      <point x="1065.0" y="963.0000000000002"/>
      <point x="1065" y="659" type="curve" smooth="yes"/>
      <point x="1065" y="101" type="line"/>
      <point x="1228" y="88" type="line"/>
      <point x="1228" y="0" type="line"/>
      <point x="782" y="0" type="line"/>
      <point x="782" y="88" type="line"/>
      <point x="945" y="101" type="line"/>
      <point x="945" y="658" type="line" smooth="yes"/>
      <point x="945.0" y="906.0"/>
      <point x="848.6666666666667" y="998.0"/>
      <point x="678" y="998" type="curve" smooth="yes"/>
      <point x="510.0" y="998.0"/>
      <point x="404.66666666666663" y="901.6666666666667"/>
      <point x="358" y="755" type="curve"/>
      <point x="358" y="101" type="line"/>
      <point x="521" y="88" type="line"/>
      <point x="521" y="0" type="line"/>
      <point x="75" y="0" type="line"/>
    </contour>
  </outline>
</glyph>
<glyph name="p" format="1">
  <advance width="1197"/>
  <unicode hex="0070"/>
  <outline>
    <contour>
      <point x="65" y="993" type="line"/>
      <point x="65" y="1082" type="line"/>
      <point x="328" y="1082" type="line"/>
      <point x="343" y="914" type="line"/>
      <point x="416.333333333" y="1034.0"/>
      <point x="530.666666667" y="1102.0"/>
      <point x="684" y="1102" type="curve" smooth="yes"/>
      <point x="944.0" y="1102.0"/>
      <point x="1099.0" y="877.333333333"/>
      <point x="1099" y="532" type="curve" smooth="yes"/>
      <point x="1099" y="511" type="line" smooth="yes"/>
      <point x="1099.0" y="187.0"/>
      <point x="943.333333333" y="-21.0"/>
      <point x="686" y="-21" type="curve" smooth="yes"/>
      <point x="534.0" y="-21.0"/>
      <point x="419.0" y="39.3333333333"/>
      <point x="347" y="146" type="curve"/>
      <point x="347" y="-314" type="line"/>
      <point x="510" y="-327" type="line"/>
      <point x="510" y="-416" type="line"/>
      <point x="65" y="-416" type="line"/>
      <point x="65" y="-327" type="line"/>
      <point x="228" y="-314" type="line"/>
      <point x="228" y="980" type="line"/>
    </contour>
    <contour>
      <point x="979" y="532" type="line" smooth="yes"/>
      <point x="979.0" y="806.666666667"/>
      <point x="867.666666667" y="998.0"/>
      <point x="657" y="998" type="curve" smooth="yes"/>
      <point x="495.666666667" y="998.0"/>
      <point x="397.666666667" y="913.666666667"/>
      <point x="347" y="791" type="curve"/>
      <point x="347" y="271" type="line"/>
      <point x="401.666666667" y="152.333333333"/>
      <point x="504.333333333" y="80.0"/>
      <point x="659" y="80" type="curve" smooth="yes"/>
      <point x="868.333333333" y="80.0"/>
      <point x="979.0" y="251.0"/>
      <point x="979" y="511" type="curve" smooth="yes"/>
    </contour>
  </outline>
</glyph>
<glyph name="q" format="1">
  <advance width="1144"/>
  <unicode hex="0071"/>
  <outline>
    <contour>
      <point x="97" y="532" type="line" smooth="yes"/>
      <point x="97.0" y="877.3333333333335"/>
      <point x="250.66666666666686" y="1102.0"/>
      <point x="512" y="1102" type="curve" smooth="yes"/>
      <point x="661.3333333333333" y="1102.0"/>
      <point x="770.6666666666667" y="1038.0"/>
      <point x="844" y="922" type="curve"/>
      <point x="856" y="1082" type="line"/>
      <point x="961" y="1082" type="line"/>
      <point x="961" y="-314" type="line"/>
      <point x="1124" y="-327" type="line"/>
      <point x="1124" y="-416" type="line"/>
      <point x="678" y="-416" type="line"/>
      <point x="678" y="-327" type="line"/>
      <point x="841" y="-314" type="line"/>
      <point x="841" y="142" type="line"/>
      <point x="767.6666666666667" y="36.666666666666686"/>
      <point x="656.6666666666667" y="-21.0"/>
      <point x="510" y="-21" type="curve" smooth="yes"/>
      <point x="251.33333333333337" y="-21.0"/>
      <point x="97.0" y="188.33333333333337"/>
      <point x="97" y="511" type="curve" smooth="yes"/>
    </contour>
    <contour>
      <point x="218" y="511" type="line" smooth="yes"/>
      <point x="218.0" y="249.66666666666674"/>
      <point x="322.33333333333337" y="80.0"/>
      <point x="533" y="80" type="curve" smooth="yes"/>
      <point x="682.3333333333333" y="80.0"/>
      <point x="783.6666666666667" y="151.66666666666669"/>
      <point x="841" y="269" type="curve"/>
      <point x="841" y="797" type="line"/>
      <point x="785.0" y="915.6666666666667"/>
      <point x="688.3333333333333" y="1000.0"/>
      <point x="535" y="1000" type="curve" smooth="yes"/>
      <point x="324.33333333333337" y="1000.0"/>
      <point x="218.0" y="808.0"/>
      <point x="218" y="532" type="curve" smooth="yes"/>
    </contour>
  </outline>
</glyph>
<glyph name="r" format="1">
  <advance width="823"/>
  <unicode hex="0072"/>
  <outline>
    <contour>
      <point x="89" y="88" type="line"/>
      <point x="252" y="101" type="line"/>
      <point x="252" y="980" type="line"/>
      <point x="89" y="993" type="line"/>
      <point x="89" y="1082" type="line"/>
      <point x="356" y="1082" type="line"/>
      <point x="371" y="902" type="line"/>
      <point x="371" y="889" type="line"/>
      <point x="432.333333333" y="1022.33333333"/>
      <point x="539.666666667" y="1102.0"/>
      <point x="685" y="1102" type="curve" smooth="yes"/>
      <point x="715.666666667" y="1102.0"/>
      <point x="746.333333333" y="1096.33333333"/>
      <point x="765" y="1091" type="curve"/>
      <point x="749" y="979" type="line"/>
      <point x="660" y="985" type="line"/>
      <point x="509.333333333" y="985.0"/>
      <point x="412.333333333" y="895.0"/>
      <point x="371" y="747" type="curve"/>
      <point x="371" y="101" type="line"/>
      <point x="534" y="88" type="line"/>
      <point x="534" y="0" type="line"/>
      <point x="89" y="0" type="line"/>
    </contour>
  </outline>
</glyph>
<glyph name="u" format="1">
  <advance width="1232"/>
  <unicode hex="0075"/>
  <outline>
    <contour>
      <point x="892" y="178" type="line"/>
      <point x="824.0" y="51.33333333333334"/>
      <point x="704.0" y="-21.0"/>
      <point x="544" y="-21" type="curve" smooth="yes"/>
      <point x="316.00000000000006" y="-21.0"/>
      <point x="180.0" y="129.66666666666669"/>
      <point x="180" y="455" type="curve" smooth="yes"/>
      <point x="180" y="980" type="line"/>
      <point x="46" y="993" type="line"/>
      <point x="46" y="1082" type="line"/>
      <point x="180" y="1082" type="line"/>
      <point x="299" y="1082" type="line"/>
      <point x="299" y="453" type="line" smooth="yes"/>
      <point x="299.0" y="189.0"/>
      <point x="392.66666666666674" y="83.0"/>
      <point x="558" y="83" type="curve" smooth="yes"/>
      <point x="739.3333333333333" y="83.0"/>
      <point x="844.0" y="167.66666666666669"/>
      <point x="888" y="309" type="curve"/>
      <point x="888" y="980" type="line"/>
      <point x="734" y="993" type="line"/>
      <point x="734" y="1082" type="line"/>
      <point x="888" y="1082" type="line"/>
      <point x="1008" y="1082" type="line"/>
      <point x="1008" y="101" type="line"/>
      <point x="1153" y="88" type="line"/>
      <point x="1153" y="0" type="line"/>
      <point x="903" y="0" type="line"/>
    </contour>
  </outline>
</glyph>
<glyph name="v" format="1">
  <advance width="1155"/>
  <unicode hex="0076"/>
  <outline>
    <contour>
      <point x="411" y="993" type="line"/>
      <point x="276" y="983" type="line"/>
      <point x="546" y="271" type="line"/>
      <point x="581" y="144" type="line"/>
      <point x="587" y="144" type="line"/>
      <point x="625" y="271" type="line"/>
      <point x="891" y="983" type="line"/>
      <point x="756" y="993" type="line"/>
      <point x="756" y="1082" type="line"/>
      <point x="1120" y="1082" type="line"/>
      <point x="1120" y="993" type="line"/>
      <point x="1014" y="984" type="line"/>
      <point x="632" y="0" type="line"/>
      <point x="536" y="0" type="line"/>
      <point x="153" y="984" type="line"/>
      <point x="47" y="993" type="line"/>
      <point x="47" y="1082" type="line"/>
      <point x="411" y="1082" type="line"/>
    </contour>
  </outline>
</glyph>
<glyph name="x" format="1">
  <advance width="1192"/>
  <unicode hex="0078"/>
  <outline>
    <contour>
      <point x="73" y="88" type="line"/>
      <point x="194" y="99" type="line"/>
      <point x="536" y="551" type="line"/>
      <point x="210" y="982" type="line"/>
      <point x="88" y="993" type="line"/>
      <point x="88" y="1082" type="line"/>
      <point x="455" y="1082" type="line"/>
      <point x="455" y="993" type="line"/>
      <point x="343" y="987" type="line"/>
      <point x="601" y="640" type="line"/>
      <point x="860" y="988" type="line"/>
      <point x="749" y="993" type="line"/>
      <point x="749" y="1082" type="line"/>
      <point x="1116" y="1082" type="line"/>
      <point x="1116" y="993" type="line"/>
      <point x="995" y="982" type="line"/>
      <point x="669" y="551" type="line"/>
      <point x="1010" y="99" type="line"/>
      <point x="1132" y="88" type="line"/>
      <point x="1132" y="0" type="line"/>
      <point x="766" y="0" type="line"/>
      <point x="766" y="88" type="line"/>
      <point x="877" y="93" type="line"/>
      <point x="602" y="461" type="line"/>
      <point x="328" y="93" type="line"/>
      <point x="439" y="88" type="line"/>
      <point x="439" y="0" type="line"/>
      <point x="73" y="0" type="line"/>
    </contour>
  </outline>
</glyph>
<glyph name="y" format="1">
  <advance width="1174"/>
  <unicode hex="0079"/>
  <outline>
    <contour>
      <point x="1135" y="993" type="line"/>
      <point x="1025" y="984" type="line"/>
      <point x="588" y="-173" type="line" smooth="yes"/>
      <point x="532.0" y="-319.666666667"/>
      <point x="455.0" y="-437.0"/>
      <point x="283" y="-437" type="curve" smooth="yes"/>
      <point x="255.0" y="-437.0"/>
      <point x="206.666666667" y="-429.666666667"/>
      <point x="188" y="-423" type="curve"/>
      <point x="202" y="-323" type="line"/>
      <point x="218.0" y="-325.666666667"/>
      <point x="263.333333333" y="-330.0"/>
      <point x="278" y="-330" type="curve" smooth="yes"/>
      <point x="383.333333333" y="-330.0"/>
      <point x="437.333333333" y="-249.333333333"/>
      <point x="484" y="-132" type="curve" smooth="yes"/>
      <point x="540" y="13" type="line"/>
      <point x="156" y="984" type="line"/>
      <point x="46" y="993" type="line"/>
      <point x="46" y="1082" type="line"/>
      <point x="418" y="1082" type="line"/>
      <point x="418" y="993" type="line"/>
      <point x="289" y="983" type="line"/>
      <point x="553" y="293" type="line"/>
      <point x="591" y="163" type="line"/>
      <point x="597" y="163" type="line"/>
      <point x="893" y="983" type="line"/>
      <point x="761" y="993" type="line"/>
      <point x="761" y="1082" type="line"/>
      <point x="1135" y="1082" type="line"/>
    </contour>
  </outline>
</glyph>
<glyph name="braceleft" format="1">
  <advance width="697"/>
  <unicode hex="007B"/>
  <outline>
    <contour>
      <point x="631" y="-404" type="line"/>
      <point x="387.0" y="-330.66666666666663"/>
      <point x="294.0" y="-168.66666666666666"/>
      <point x="294" y="58" type="curve" smooth="yes"/>
      <point x="294" y="284" type="line" smooth="yes"/>
      <point x="294.0" y="446.6666666666665"/>
      <point x="220.33333333333337" y="543.0"/>
      <point x="63" y="543" type="curve"/>
      <point x="63" y="647" type="line"/>
      <point x="220.33333333333334" y="647.0"/>
      <point x="294.0" y="741.3333333333333"/>
      <point x="294" y="904" type="curve" smooth="yes"/>
      <point x="294" y="1132" type="line" smooth="yes"/>
      <point x="294.0" y="1360.0"/>
      <point x="387.0" y="1523.6666666666665"/>
      <point x="631" y="1597" type="curve"/>
      <point x="658" y="1518" type="line"/>
      <point x="487.33333333333326" y="1463.3333333333335"/>
      <point x="413.0" y="1324.0"/>
      <point x="413" y="1132" type="curve" smooth="yes"/>
      <point x="413" y="904" type="line" smooth="yes"/>
      <point x="413.0" y="757.3333333333333"/>
      <point x="352.66666666666663" y="644.3333333333333"/>
      <point x="230" y="595" type="curve"/>
      <point x="352.6666666666666" y="543.0"/>
      <point x="413.0" y="429.3333333333333"/>
      <point x="413" y="284" type="curve" smooth="yes"/>
      <point x="413" y="58" type="line" smooth="yes"/>
      <point x="413.0" y="-132.66666666666663"/>
      <point x="489.33333333333326" y="-268.0"/>
      <point x="660" y="-324" type="curve"/>
    </contour>
  </outline>
</glyph>
<glyph name="exclamdown" format="1">
  <advance width="456"/>
  <unicode hex="00A1"/>
  <outline>
    <contour>
      <point x="272" y="-374" type="line"/>
      <point x="153" y="-374" type="line"/>
      <point x="153" y="604" type="line"/>
      <point x="272" y="604" type="line"/>
    </contour>
    <contour>
      <point x="284" y="898" type="line"/>
      <point x="142" y="898" type="line"/>
      <point x="142" y="1082" type="line"/>
      <point x="284" y="1082" type="line"/>
    </contour>
  </outline>
</glyph>
<glyph name="brokenbar" format="1">
  <advance width="461"/>
  <unicode hex="00A6"/>
  <outline>
    <contour>
      <point x="150" y="-270" type="line"/>
      <point x="150" y="501" type="line"/>
      <point x="269" y="501" type="line"/>
      <point x="269" y="-270" type="line"/>
    </contour>
    <contour>
      <point x="269" y="698" type="line"/>
      <point x="150" y="698" type="line"/>
      <point x="150" y="1456" type="line"/>
      <point x="269" y="1456" type="line"/>
    </contour>
  </outline>
</glyph>
<glyph name="dieresis" format="1">
  <advance width="972"/>
  <unicode hex="00A8"/>
  <outline>
    <contour>
      <point x="795" y="1299" type="line"/>
      <point x="622" y="1299" type="line"/>
      <point x="622" y="1456" type="line"/>
      <point x="795" y="1456" type="line"/>
    </contour>
    <contour>
      <point x="326" y="1299" type="line"/>
      <point x="152" y="1299" type="line"/>
      <point x="152" y="1456" type="line"/>
      <point x="326" y="1456" type="line"/>
    </contour>
  </outline>
</glyph>
<glyph name="copyright" format="1">
  <advance width="1595"/>
  <unicode hex="00A9"/>
  <outline>
    <contour>
      <point x="1098" y="596" type="line"/>
      <point x="1100" y="590" type="line"/>
      <point x="1105.3333333333335" y="390.0"/>
      <point x="988.3333333333333" y="282.0"/>
      <point x="791" y="282" type="curve" smooth="yes"/>
      <point x="589.6666666666666" y="282.0"/>
      <point x="458.0" y="437.0000000000001"/>
      <point x="458" y="669" type="curve" smooth="yes"/>
      <point x="458" y="788" type="line" smooth="yes"/>
      <point x="458.0" y="1017.3333333333334"/>
      <point x="589.6666666666669" y="1175.0"/>
      <point x="791" y="1175" type="curve" smooth="yes"/>
      <point x="988.3333333333331" y="1175.0"/>
      <point x="1106.3333333333335" y="1066.666666666667"/>
      <point x="1101" y="868" type="curve"/>
      <point x="1099" y="862" type="line"/>
      <point x="1008" y="862" type="line"/>
      <point x="1008.0" y="1012.6666666666669"/>
      <point x="932.3333333333331" y="1085.0"/>
      <point x="791" y="1085" type="curve" smooth="yes"/>
      <point x="644.3333333333334" y="1085.0"/>
      <point x="558.0" y="961.0000000000001"/>
      <point x="558" y="789" type="curve" smooth="yes"/>
      <point x="558" y="669" type="line" smooth="yes"/>
      <point x="558.0" y="493.0"/>
      <point x="644.3333333333333" y="372.0"/>
      <point x="791" y="372" type="curve" smooth="yes"/>
      <point x="933.6666666666667" y="372.0"/>
      <point x="1007.0" y="441.33333333333326"/>
      <point x="1007" y="596" type="curve"/>
    </contour>
    <contour>
      <point x="177" y="729" type="curve" smooth="yes"/>
      <point x="177.0" y="357.00000000000006"/>
      <point x="455.3333333333334" y="65.0"/>
      <point x="802" y="65" type="curve" smooth="yes"/>
      <point x="1144.6666666666665" y="65.0"/>
      <point x="1425.0" y="357.0"/>
      <point x="1425" y="729" type="curve" smooth="yes"/>
      <point x="1425.0" y="1098.3333333333333"/>
      <point x="1146.0" y="1389.0"/>
      <point x="802" y="1389" type="curve" smooth="yes"/>
      <point x="455.3333333333335" y="1389.0"/>
      <point x="177.0" y="1098.3333333333333"/>
    </contour>
    <contour>
      <point x="92" y="729" type="curve" smooth="yes"/>
      <point x="92.0" y="1149.0"/>
      <point x="407.3333333333335" y="1476.0"/>
      <point x="802" y="1476" type="curve" smooth="yes"/>
      <point x="1195.3333333333333" y="1476.0"/>
      <point x="1511.0" y="1149.0"/>
      <point x="1511" y="729" type="curve" smooth="yes"/>
      <point x="1511.0" y="307.66666666666663"/>
      <point x="1194.0" y="-21.0"/>
      <point x="802" y="-21" type="curve" smooth="yes"/>
      <point x="407.3333333333335" y="-21.0"/>
      <point x="92.0" y="307.66666666666674"/>
    </contour>
  </outline>
</glyph>
<glyph name="plusminus" format="1">
  <advance width="1082"/>
  <unicode hex="00B1"/>
  <outline>
    <contour>
      <point x="600" y="829" type="line"/>
      <point x="991" y="829" type="line"/>
      <point x="991" y="728" type="line"/>
      <point x="600" y="728" type="line"/>
      <point x="600" y="289" type="line"/>
      <point x="489" y="289" type="line"/>
      <point x="489" y="728" type="line"/>
      <point x="75" y="728" type="line"/>
      <point x="75" y="829" type="line"/>
      <point x="489" y="829" type="line"/>
      <point x="489" y="1267" type="line"/>
      <point x="600" y="1267" type="line"/>
    </contour>
    <contour>
      <point x="1017" y="48" type="line"/>
      <point x="182" y="48" type="line"/>
      <point x="182" y="150" type="line"/>
      <point x="1017" y="150" type="line"/>
    </contour>
  </outline>
</glyph>
<glyph name="threesuperior" format="1">
  <advance width="837"/>
  <unicode hex="00B3"/>
  <outline>
    <contour>
      <point x="398" y="1119" type="line" smooth="yes"/>
      <point x="515.3333333333334" y="1119.0"/>
      <point x="570.0" y="1167.6666666666665"/>
      <point x="570" y="1253" type="curve" smooth="yes"/>
      <point x="570.0" y="1331.6666666666665"/>
      <point x="509.33333333333337" y="1387.0"/>
      <point x="392" y="1387" type="curve" smooth="yes"/>
      <point x="292.0" y="1387.0"/>
      <point x="219.0" y="1335.3333333333335"/>
      <point x="219" y="1258" type="curve"/>
      <point x="119" y="1258" type="line"/>
      <point x="117" y="1264" type="line"/>
      <point x="109.0" y="1389.3333333333335"/>
      <point x="233.33333333333337" y="1478.0"/>
      <point x="392" y="1478" type="curve" smooth="yes"/>
      <point x="569.3333333333333" y="1478.0"/>
      <point x="679.0" y="1397.0"/>
      <point x="679" y="1253" type="curve" smooth="yes"/>
      <point x="679.0" y="1174.3333333333335"/>
      <point x="629.3333333333333" y="1109.3333333333335"/>
      <point x="544" y="1076" type="curve"/>
      <point x="641.3333333333334" y="1046.6666666666665"/>
      <point x="693.0" y="980.6666666666666"/>
      <point x="693" y="886" type="curve" smooth="yes"/>
      <point x="693.0" y="740.6666666666667"/>
      <point x="570.6666666666666" y="655.0"/>
      <point x="392" y="655" type="curve" smooth="yes"/>
      <point x="232.0" y="655.0"/>
      <point x="97.33333333333334" y="735.3333333333333"/>
      <point x="104" y="882" type="curve"/>
      <point x="106" y="888" type="line"/>
      <point x="207" y="888" type="line"/>
      <point x="207.0" y="804.0"/>
      <point x="281.33333333333337" y="745.0"/>
      <point x="392" y="745" type="curve" smooth="yes"/>
      <point x="512.0" y="745.0"/>
      <point x="584.0" y="799.3333333333333"/>
      <point x="584" y="886" type="curve" smooth="yes"/>
      <point x="584.0" y="986.0"/>
      <point x="522.0" y="1030.0"/>
      <point x="398" y="1030" type="curve" smooth="yes"/>
      <point x="275" y="1030" type="line"/>
      <point x="275" y="1119" type="line"/>
    </contour>
  </outline>
</glyph>
<glyph name="acute" format="1">
  <advance width="574"/>
  <unicode hex="00B4"/>
  <outline>
    <contour>
      <point x="301.0" y="1478.0" type="line"/>
      <point x="448.0" y="1478.0" type="line"/>
      <point x="451.0" y="1472.0" type="line"/>
      <point x="202.0" y="1212.0" type="line"/>
      <point x="100.0" y="1212.0" type="line"/>
      <point x="95.0" y="1212.0" type="line"/>
    </contour>
  </outline>
</glyph>
<glyph name="micro" format="1">
  <advance width="1297"/>
  <unicode hex="00B5"/>
  <outline>
    <contour>
      <point x="931" y="155" type="line"/>
      <point x="867.0" y="41.6666666667"/>
      <point x="763.333333333" y="-21.0"/>
      <point x="618" y="-21" type="curve" smooth="yes"/>
      <point x="500.666666667" y="-21.0"/>
      <point x="407.0" y="17.0"/>
      <point x="347" y="105" type="curve"/>
      <point x="347" y="-416" type="line"/>
      <point x="229" y="-416" type="line"/>
      <point x="229" y="980" type="line"/>
      <point x="66" y="993" type="line"/>
      <point x="66" y="1082" type="line"/>
      <point x="229" y="1082" type="line"/>
      <point x="347" y="1082" type="line"/>
      <point x="347" y="449" type="line" smooth="yes"/>
      <point x="347.0" y="173.0"/>
      <point x="448.666666667" y="80.0"/>
      <point x="610" y="80" type="curve" smooth="yes"/>
      <point x="792.666666667" y="80.0"/>
      <point x="887.666666667" y="162.0"/>
      <point x="925" y="310" type="curve"/>
      <point x="925" y="980" type="line"/>
      <point x="762" y="993" type="line"/>
      <point x="762" y="1082" type="line"/>
      <point x="1045" y="1082" type="line"/>
      <point x="1045" y="101" type="line"/>
      <point x="1208" y="88" type="line"/>
      <point x="1208" y="0" type="line"/>
      <point x="942" y="0" type="line"/>
    </contour>
  </outline>
</glyph>
<glyph name="periodcentered" format="1">
  <advance width="496"/>
  <unicode hex="00B7"/>
  <outline>
    <contour>
      <point x="313" y="624" type="line"/>
      <point x="159" y="624" type="line"/>
      <point x="159" y="804" type="line"/>
      <point x="313" y="804" type="line"/>
    </contour>
  </outline>
</glyph>
<glyph name="cedilla" format="1">
  <advance width="470"/>
  <unicode hex="00B8"/>
  <outline>
    <contour>
      <point x="250" y="0" type="line"/>
      <point x="239" y="-64" type="line"/>
      <point x="344.33333333333337" y="-76.0"/>
      <point x="415.0" y="-124.3333333333334"/>
      <point x="415" y="-235" type="curve" smooth="yes"/>
      <point x="415.0" y="-356.33333333333337"/>
      <point x="306.0" y="-435.0"/>
      <point x="110" y="-435" type="curve"/>
      <point x="103" y="-357" type="line"/>
      <point x="221.66666666666663" y="-357.0"/>
      <point x="315.0" y="-315.66666666666663"/>
      <point x="315" y="-237" type="curve" smooth="yes"/>
      <point x="315.0" y="-160.99999999999997"/>
      <point x="267.6666666666666" y="-137.66666666666669"/>
      <point x="129" y="-127" type="curve"/>
      <point x="157" y="0" type="line"/>
    </contour>
  </outline>
</glyph>
<glyph name="onesuperior" format="1">
  <advance width="506"/>
  <unicode hex="00B9"/>
  <outline>
    <contour>
      <point x="348" y="665" type="line"/>
      <point x="239" y="665" type="line"/>
      <point x="239" y="1368" type="line"/>
      <point x="91" y="1361" type="line"/>
      <point x="91" y="1454" type="line"/>
      <point x="348" y="1477" type="line"/>
    </contour>
  </outline>
</glyph>
<glyph name="multiply" format="1">
  <advance width="1056"/>
  <unicode hex="00D7"/>
  <outline>
    <contour>
      <point x="79" y="318" type="line"/>
      <point x="436" y="683" type="line"/>
      <point x="93" y="1033" type="line"/>
      <point x="172" y="1113" type="line"/>
      <point x="515" y="763" type="line"/>
      <point x="858" y="1113" type="line"/>
      <point x="937" y="1033" type="line"/>
      <point x="593" y="683" type="line"/>
      <point x="952" y="318" type="line"/>
      <point x="873" y="239" type="line"/>
      <point x="515" y="603" type="line"/>
      <point x="158" y="239" type="line"/>
    </contour>
  </outline>
</glyph>
<glyph name="Oslash" format="1">
  <advance width="1408"/>
  <unicode hex="00D8"/>
  <outline>
    <contour>
      <point x="1351" y="718" type="line" smooth="yes"/>
      <point x="1351.0" y="280.666666667"/>
      <point x="1094.33333333" y="-21.0"/>
      <point x="721" y="-21" type="curve" smooth="yes"/>
      <point x="590.333333333" y="-21.0"/>
      <point x="472.666666667" y="16.3333333333"/>
      <point x="378" y="87" type="curve"/>
      <point x="273" y="-84" type="line"/>
      <point x="169" y="-84" type="line"/>
      <point x="310" y="145" type="line"/>
      <point x="175.333333333" y="277.0"/>
      <point x="100.0" y="479.333333333"/>
      <point x="100" y="718" type="curve" smooth="yes"/>
      <point x="100" y="737" type="line" smooth="yes"/>
      <point x="100.0" y="1173.0"/>
      <point x="352.0" y="1477.0"/>
      <point x="720" y="1477" type="curve" smooth="yes"/>
      <point x="848.0" y="1477.0"/>
      <point x="966.333333333" y="1440.0"/>
      <point x="1065" y="1372" type="curve"/>
      <point x="1147" y="1505" type="line"/>
      <point x="1251" y="1505" type="line"/>
      <point x="1134" y="1314" type="line"/>
      <point x="1271.33333333" y="1180.66666667"/>
      <point x="1351.0" y="975.666666667"/>
      <point x="1351" y="737" type="curve" smooth="yes"/>
    </contour>
    <contour>
      <point x="1231" y="739" type="line" smooth="yes"/>
      <point x="1231.0" y="936.333333333"/>
      <point x="1174.33333333" y="1105.33333333"/>
      <point x="1077" y="1212" type="curve"/>
      <point x="1071" y="1213" type="line"/>
      <point x="434" y="178" type="line"/>
      <point x="512.666666667" y="115.333333333"/>
      <point x="609.0" y="83.0"/>
      <point x="721" y="83" type="curve" smooth="yes"/>
      <point x="1037.0" y="83.0"/>
      <point x="1231.0" y="336.666666667"/>
      <point x="1231" y="718" type="curve" smooth="yes"/>
    </contour>
    <contour>
      <point x="220" y="718" type="line" smooth="yes"/>
      <point x="220.0" y="520.666666667"/>
      <point x="272.333333333" y="353.333333333"/>
      <point x="367" y="248" type="curve"/>
      <point x="373" y="247" type="line"/>
      <point x="1008" y="1280" type="line"/>
      <point x="928.0" y="1338.66666667"/>
      <point x="830.666666667" y="1372.0"/>
      <point x="720" y="1372" type="curve" smooth="yes"/>
      <point x="412.0" y="1372.0"/>
      <point x="220.0" y="1116.33333333"/>
      <point x="220" y="739" type="curve" smooth="yes"/>
    </contour>
  </outline>
</glyph>
<glyph name="divide" format="1">
  <advance width="1148"/>
  <unicode hex="00F7"/>
  <outline>
    <contour>
      <point x="1072" y="644" type="line"/>
      <point x="74" y="644" type="line"/>
      <point x="74" y="760" type="line"/>
      <point x="1072" y="760" type="line"/>
    </contour>
    <contour>
      <point x="650" y="1010" type="line"/>
      <point x="508" y="1010" type="line"/>
      <point x="508" y="1170" type="line"/>
      <point x="650" y="1170" type="line"/>
    </contour>
    <contour>
      <point x="650" y="212" type="line"/>
      <point x="508" y="212" type="line"/>
      <point x="508" y="372" type="line"/>
      <point x="650" y="372" type="line"/>
    </contour>
  </outline>
</glyph>
<glyph name="Dcroat" format="1">
  <advance width="1431"/>
  <unicode hex="0110"/>
  <outline>
    <contour>
      <point x="687" y="1456" type="line" smooth="yes"/>
      <point x="1043.0" y="1456.0"/>
      <point x="1302.0" y="1193.0"/>
      <point x="1302" y="821" type="curve" smooth="yes"/>
      <point x="1302" y="634" type="line" smooth="yes"/>
      <point x="1302.0" y="260.66666666666674"/>
      <point x="1043.0" y="0.0"/>
      <point x="687" y="0" type="curve" smooth="yes"/>
      <point x="101" y="0" type="line"/>
      <point x="101" y="88" type="line"/>
      <point x="264" y="101" type="line"/>
      <point x="264" y="689" type="line"/>
      <point x="103" y="689" type="line"/>
      <point x="103" y="791" type="line"/>
      <point x="264" y="791" type="line"/>
      <point x="264" y="1354" type="line"/>
      <point x="101" y="1367" type="line"/>
      <point x="101" y="1456" type="line"/>
    </contour>
    <contour>
      <point x="715" y="689" type="line"/>
      <point x="383" y="689" type="line"/>
      <point x="383" y="101" type="line"/>
      <point x="687" y="101" type="line" smooth="yes"/>
      <point x="975.0" y="101.0"/>
      <point x="1182.0" y="326.0"/>
      <point x="1182" y="634" type="curve" smooth="yes"/>
      <point x="1182" y="824" type="line" smooth="yes"/>
      <point x="1182.0" y="1128.0"/>
      <point x="973.6666666666665" y="1354.0"/>
      <point x="687" y="1354" type="curve" smooth="yes"/>
      <point x="383" y="1354" type="line"/>
      <point x="383" y="791" type="line"/>
      <point x="715" y="791" type="line"/>
    </contour>
  </outline>
</glyph>
<glyph name="kgreenlandic" format="1">
  <advance width="1202"/>
  <unicode hex="0138"/>
  <outline>
    <contour>
      <point x="62" y="88" type="line"/>
      <point x="225" y="101" type="line"/>
      <point x="225" y="979" type="line"/>
      <point x="66" y="993" type="line"/>
      <point x="66" y="1081" type="line"/>
      <point x="344" y="1081" type="line"/>
      <point x="344" y="630" type="line"/>
      <point x="471" y="630" type="line"/>
      <point x="811" y="981" type="line"/>
      <point x="809" y="986" type="line"/>
      <point x="712" y="993" type="line"/>
      <point x="712" y="1082" type="line"/>
      <point x="1094" y="1082" type="line"/>
      <point x="1094" y="993" type="line"/>
      <point x="967" y="981" type="line"/>
      <point x="585" y="587" type="line"/>
      <point x="1005" y="99" type="line"/>
      <point x="1125" y="88" type="line"/>
      <point x="1125" y="0" type="line"/>
      <point x="942" y="0" type="line"/>
      <point x="483" y="527" type="line"/>
      <point x="344" y="527" type="line"/>
      <point x="344" y="101" type="line"/>
      <point x="507" y="88" type="line"/>
      <point x="507" y="0" type="line"/>
      <point x="62" y="0" type="line"/>
    </contour>
  </outline>
</glyph>
<glyph name="Lslash" format="1">
  <advance width="1179"/>
  <unicode hex="0141"/>
  <outline>
    <contour>
      <point x="517" y="1367" type="line"/>
      <point x="354" y="1354" type="line"/>
      <point x="354" y="812" type="line"/>
      <point x="660" y="909" type="line"/>
      <point x="660" y="801" type="line"/>
      <point x="354" y="704" type="line"/>
      <point x="354" y="101" type="line"/>
      <point x="959" y="101" type="line"/>
      <point x="968" y="306" type="line"/>
      <point x="1074" y="306" type="line"/>
      <point x="1074" y="0" type="line"/>
      <point x="71" y="0" type="line"/>
      <point x="71" y="88" type="line"/>
      <point x="234" y="101" type="line"/>
      <point x="234" y="666" type="line"/>
      <point x="71" y="614" type="line"/>
      <point x="71" y="722" type="line"/>
      <point x="234" y="774" type="line"/>
      <point x="234" y="1354" type="line"/>
      <point x="71" y="1367" type="line"/>
      <point x="71" y="1456" type="line"/>
      <point x="517" y="1456" type="line"/>
    </contour>
  </outline>
</glyph>
<glyph name="Eng" format="1">
  <advance width="1547"/>
  <unicode hex="014A"/>
  <outline>
    <contour>
      <point x="70" y="1367" type="line"/>
      <point x="70" y="1456" type="line"/>
      <point x="352" y="1456" type="line"/>
      <point x="1180" y="211" type="line"/>
      <point x="1186" y="212" type="line"/>
      <point x="1186" y="1354" type="line"/>
      <point x="1023" y="1367" type="line"/>
      <point x="1023" y="1456" type="line"/>
      <point x="1469" y="1456" type="line"/>
      <point x="1469" y="1367" type="line"/>
      <point x="1306" y="1354" type="line"/>
      <point x="1306" y="-89" type="line" smooth="yes"/>
      <point x="1306.0" y="-311.666666667"/>
      <point x="1192.66666667" y="-437.0"/>
      <point x="1002" y="-437" type="curve" smooth="yes"/>
      <point x="960.666666667" y="-437.0"/>
      <point x="928.666666667" y="-430.0"/>
      <point x="890" y="-418" type="curve"/>
      <point x="903" y="-319" type="line"/>
      <point x="923.0" y="-325.666666667"/>
      <point x="972.666666667" y="-335.0"/>
      <point x="1002" y="-335" type="curve" smooth="yes"/>
      <point x="1118.0" y="-335.0"/>
      <point x="1186.0" y="-245.0"/>
      <point x="1186" y="-89" type="curve" smooth="yes"/>
      <point x="1186" y="0" type="line"/>
      <point x="358" y="1246" type="line"/>
      <point x="352" y="1245" type="line"/>
      <point x="352" y="101" type="line"/>
      <point x="515" y="88" type="line"/>
      <point x="515" y="0" type="line"/>
      <point x="70" y="0" type="line"/>
      <point x="70" y="88" type="line"/>
      <point x="233" y="101" type="line"/>
      <point x="233" y="1354" type="line"/>
    </contour>
  </outline>
</glyph>
<glyph name="oe" format="1">
  <advance width="1916"/>
  <unicode hex="0153"/>
  <outline>
    <contour>
      <point x="104" y="557" type="line" smooth="yes"/>
      <point x="104.0" y="875.6666666666665"/>
      <point x="293.0" y="1102.0"/>
      <point x="581" y="1102" type="curve" smooth="yes"/>
      <point x="775.6666666666669" y="1102.0"/>
      <point x="926.3333333333333" y="999.3333333333331"/>
      <point x="1005" y="830" type="curve"/>
      <point x="1083.6666666666665" y="996.6666666666667"/>
      <point x="1235.6666666666665" y="1102.0"/>
      <point x="1405" y="1102" type="curve" smooth="yes"/>
      <point x="1670.3333333333335" y="1102.0"/>
      <point x="1832.0" y="920.0"/>
      <point x="1832" y="640" type="curve" smooth="yes"/>
      <point x="1832" y="538" type="line"/>
      <point x="1068" y="538" type="line"/>
      <point x="1068" y="509" type="line" smooth="yes"/>
      <point x="1068.0" y="265.0"/>
      <point x="1209.3333333333335" y="80.0"/>
      <point x="1420" y="80" type="curve" smooth="yes"/>
      <point x="1569.3333333333335" y="80.0"/>
      <point x="1671.3333333333335" y="122.66666666666669"/>
      <point x="1746" y="200" type="curve"/>
      <point x="1797" y="118" type="line"/>
      <point x="1715.6666666666665" y="32.666666666666686"/>
      <point x="1592.0" y="-21.0"/>
      <point x="1420" y="-21" type="curve" smooth="yes"/>
      <point x="1236.0" y="-21.0"/>
      <point x="1081.6666666666665" y="81.33333333333337"/>
      <point x="1003" y="248" type="curve"/>
      <point x="925.6666666666667" y="80.0"/>
      <point x="775.0" y="-21.0"/>
      <point x="583" y="-21" type="curve" smooth="yes"/>
      <point x="293.66666666666674" y="-21.0"/>
      <point x="104.0" y="204.0"/>
      <point x="104" y="524" type="curve" smooth="yes"/>
    </contour>
    <contour>
      <point x="223" y="524" type="line" smooth="yes"/>
      <point x="223.0" y="273.33333333333337"/>
      <point x="356.33333333333337" y="80.0"/>
      <point x="583" y="80" type="curve" smooth="yes"/>
      <point x="805.6666666666667" y="80.0"/>
      <point x="941.0" y="273.33333333333337"/>
      <point x="941" y="524" type="curve" smooth="yes"/>
      <point x="941" y="557" type="line" smooth="yes"/>
      <point x="941.0" y="803.6666666666667"/>
      <point x="805.0" y="1000.0"/>
      <point x="581" y="1000" type="curve" smooth="yes"/>
      <point x="357.0" y="1000.0"/>
      <point x="223.0" y="803.6666666666667"/>
      <point x="223" y="557" type="curve" smooth="yes"/>
    </contour>
    <contour>
      <point x="1405" y="1000" type="curve" smooth="yes"/>
      <point x="1229.0" y="1000.0"/>
      <point x="1097.0" y="848.0"/>
      <point x="1077" y="644" type="curve"/>
      <point x="1079" y="639" type="line"/>
      <point x="1713" y="639" type="line"/>
      <point x="1713" y="669" type="line" smooth="yes"/>
      <point x="1713.0" y="857.0"/>
      <point x="1594.3333333333335" y="1000.0"/>
    </contour>
  </outline>
</glyph>
<glyph name="Tbar" format="1">
  <advance width="1280"/>
  <unicode hex="0166"/>
  <outline>
    <contour>
      <point x="1218" y="1456" type="line"/>
      <point x="1218" y="1149" type="line"/>
      <point x="1112" y="1149" type="line"/>
      <point x="1103" y="1354" type="line"/>
      <point x="699" y="1354" type="line"/>
      <point x="699" y="900" type="line"/>
      <point x="969" y="900" type="line"/>
      <point x="969" y="798" type="line"/>
      <point x="699" y="798" type="line"/>
      <point x="699" y="101" type="line"/>
      <point x="862" y="88" type="line"/>
      <point x="862" y="0" type="line"/>
      <point x="416" y="0" type="line"/>
      <point x="416" y="88" type="line"/>
      <point x="579" y="101" type="line"/>
      <point x="579" y="798" type="line"/>
      <point x="357" y="798" type="line"/>
      <point x="357" y="900" type="line"/>
      <point x="579" y="900" type="line"/>
      <point x="579" y="1354" type="line"/>
      <point x="175" y="1354" type="line"/>
      <point x="167" y="1149" type="line"/>
      <point x="60" y="1149" type="line"/>
      <point x="60" y="1456" type="line"/>
    </contour>
  </outline>
</glyph>
<glyph name="longs" format="1">
  <advance width="715"/>
  <unicode hex="017F"/>
  <outline>
    <contour>
      <point x="57" y="88" type="line"/>
      <point x="220" y="101" type="line"/>
      <point x="220" y="1240" type="line" smooth="yes"/>
      <point x="220.0" y="1457.33333333"/>
      <point x="334.0" y="1581.0"/>
      <point x="530" y="1581" type="curve" smooth="yes"/>
      <point x="574.0" y="1581.0"/>
      <point x="619.666666667" y="1574.0"/>
      <point x="665" y="1562" type="curve"/>
      <point x="650" y="1466" type="line"/>
      <point x="616.666666667" y="1474.0"/>
      <point x="587.666666667" y="1479.0"/>
      <point x="545" y="1479" type="curve" smooth="yes"/>
      <point x="414.333333333" y="1479.0"/>
      <point x="339.0" y="1389.33333333"/>
      <point x="339" y="1240" type="curve" smooth="yes"/>
      <point x="339" y="101" type="line"/>
      <point x="502" y="88" type="line"/>
      <point x="502" y="0" type="line"/>
      <point x="57" y="0" type="line"/>
    </contour>
  </outline>
</glyph>
<glyph name="florin" format="1">
  <advance width="774"/>
  <unicode hex="0192"/>
  <outline>
    <contour>
      <point x="657" y="984" type="line"/>
      <point x="412" y="984" type="line"/>
      <point x="412" y="-89" type="line" smooth="yes"/>
      <point x="412.0" y="-311.66666666666663"/>
      <point x="299.66666666666663" y="-437.0"/>
      <point x="109" y="-437" type="curve" smooth="yes"/>
      <point x="67.66666666666669" y="-437.0"/>
      <point x="34.33333333333332" y="-430.0"/>
      <point x="-3" y="-418" type="curve"/>
      <point x="10" y="-319" type="line"/>
      <point x="29.999999999999996" y="-327.0"/>
      <point x="79.66666666666666" y="-335.0"/>
      <point x="109" y="-335" type="curve" smooth="yes"/>
      <point x="225.0" y="-335.0"/>
      <point x="292.0" y="-243.66666666666663"/>
      <point x="292" y="-89" type="curve" smooth="yes"/>
      <point x="292" y="984" type="line"/>
      <point x="113" y="984" type="line"/>
      <point x="113" y="1082" type="line"/>
      <point x="292" y="1082" type="line"/>
      <point x="292" y="1240" type="line" smooth="yes"/>
      <point x="292.0" y="1457.3333333333335"/>
      <point x="407.0" y="1581.0"/>
      <point x="603" y="1581" type="curve" smooth="yes"/>
      <point x="645.6666666666667" y="1581.0"/>
      <point x="691.3333333333333" y="1574.0"/>
      <point x="738" y="1562" type="curve"/>
      <point x="723" y="1463" type="line"/>
      <point x="691.0" y="1471.0"/>
      <point x="660.3333333333333" y="1476.0"/>
      <point x="615" y="1476" type="curve" smooth="yes"/>
      <point x="484.33333333333326" y="1476.0"/>
      <point x="412.0" y="1389.3333333333335"/>
      <point x="412" y="1240" type="curve" smooth="yes"/>
      <point x="412" y="1082" type="line"/>
      <point x="657" y="1082" type="line"/>
    </contour>
  </outline>
</glyph>
<glyph name="Ohorn" format="1">
  <advance width="1468"/>
  <unicode hex="01A0"/>
  <outline>
    <contour>
      <point x="1349" y="718" type="line" smooth="yes"/>
      <point x="1349.0" y="280.66666666666674"/>
      <point x="1092.3333333333333" y="-21.0"/>
      <point x="719" y="-21" type="curve" smooth="yes"/>
      <point x="351.0" y="-21.0"/>
      <point x="98.0" y="282.0"/>
      <point x="98" y="718" type="curve" smooth="yes"/>
      <point x="98" y="737" type="line" smooth="yes"/>
      <point x="98.0" y="1173.0"/>
      <point x="350.0" y="1477.0"/>
      <point x="718" y="1477" type="curve" smooth="yes"/>
      <point x="898.0" y="1477.0"/>
      <point x="1053.0" y="1405.6666666666665"/>
      <point x="1165" y="1279" type="curve"/>
      <point x="1313.0" y="1291.0"/>
      <point x="1366.0" y="1384.6666666666665"/>
      <point x="1366" y="1566" type="curve"/>
      <point x="1477" y="1566" type="line"/>
      <point x="1477.0" y="1352.6666666666665"/>
      <point x="1397.0" y="1227.3333333333335"/>
      <point x="1229" y="1194" type="curve"/>
      <point x="1306.3333333333335" y="1068.6666666666665"/>
      <point x="1349.0" y="913.0"/>
      <point x="1349" y="737" type="curve" smooth="yes"/>
    </contour>
    <contour>
      <point x="1229" y="739" type="line" smooth="yes"/>
      <point x="1229.0" y="1116.3333333333333"/>
      <point x="1031.3333333333333" y="1372.0"/>
      <point x="718" y="1372" type="curve" smooth="yes"/>
      <point x="410.0" y="1372.0"/>
      <point x="218.0" y="1116.3333333333333"/>
      <point x="218" y="739" type="curve" smooth="yes"/>
      <point x="218" y="718" type="line" smooth="yes"/>
      <point x="218.0" y="337.99999999999994"/>
      <point x="411.00000000000006" y="83.0"/>
      <point x="719" y="83" type="curve" smooth="yes"/>
      <point x="1035.0" y="83.0"/>
      <point x="1229.0" y="336.66666666666674"/>
      <point x="1229" y="718" type="curve" smooth="yes"/>
    </contour>
  </outline>
</glyph>
<glyph name="uhorn" format="1">
  <advance width="1374"/>
  <unicode hex="01B0"/>
  <outline>
    <contour>
      <point x="1030" y="1082" type="line"/>
      <point x="1030" y="947" type="line"/>
      <point x="1036" y="945" type="line"/>
      <point x="1182.66666667" y="943.666666667"/>
      <point x="1216.0" y="1008.66666667"/>
      <point x="1216" y="1174" type="curve"/>
      <point x="1303" y="1174" type="line"/>
      <point x="1305" y="1169" type="line"/>
      <point x="1309.0" y="963.666666667"/>
      <point x="1236.66666667" y="864.333333333"/>
      <point x="1030" y="859" type="curve"/>
      <point x="1030" y="101" type="line"/>
      <point x="1175" y="88" type="line"/>
      <point x="1175" y="0" type="line"/>
      <point x="925" y="0" type="line"/>
      <point x="914" y="178" type="line"/>
      <point x="846.0" y="51.3333333333"/>
      <point x="726.0" y="-21.0"/>
      <point x="566" y="-21" type="curve" smooth="yes"/>
      <point x="338.0" y="-21.0"/>
      <point x="202.0" y="129.666666667"/>
      <point x="202" y="455" type="curve" smooth="yes"/>
      <point x="202" y="980" type="line"/>
      <point x="68" y="993" type="line"/>
      <point x="68" y="1082" type="line"/>
      <point x="321" y="1082" type="line"/>
      <point x="321" y="453" type="line" smooth="yes"/>
      <point x="321.0" y="189.0"/>
      <point x="414.666666667" y="83.0"/>
      <point x="580" y="83" type="curve" smooth="yes"/>
      <point x="761.333333333" y="83.0"/>
      <point x="866.0" y="167.666666667"/>
      <point x="910" y="309" type="curve"/>
      <point x="910" y="980" type="line"/>
      <point x="756" y="993" type="line"/>
      <point x="756" y="1082" type="line"/>
    </contour>
  </outline>
</glyph>
<glyph name="jdotless" format="1">
  <advance width="570"/>
  <unicode hex="0237"/>
  <outline>
    <contour>
      <point x="411" y="-89" type="line" smooth="yes"/>
      <point x="411.0" y="-311.66666666666663"/>
      <point x="298.66666666666663" y="-437.0"/>
      <point x="108" y="-437" type="curve" smooth="yes"/>
      <point x="66.66666666666669" y="-437.0"/>
      <point x="33.33333333333332" y="-430.0"/>
      <point x="-4" y="-418" type="curve"/>
      <point x="9" y="-319" type="line"/>
      <point x="28.999999999999996" y="-327.0"/>
      <point x="78.66666666666666" y="-335.0"/>
      <point x="108" y="-335" type="curve" smooth="yes"/>
      <point x="224.0" y="-335.0"/>
      <point x="291.0" y="-243.66666666666663"/>
      <point x="291" y="-89" type="curve" smooth="yes"/>
      <point x="291" y="980" type="line"/>
      <point x="128" y="993" type="line"/>
      <point x="128" y="1082" type="line"/>
      <point x="411" y="1082" type="line"/>
    </contour>
  </outline>
</glyph>
<glyph name="circumflex" format="1">
  <advance width="801"/>
  <unicode hex="02C6"/>
  <outline>
    <contour>
      <point x="658" y="1270" type="line"/>
      <point x="658" y="1252" type="line"/>
      <point x="546" y="1252" type="line"/>
      <point x="379" y="1420" type="line"/>
      <point x="213" y="1252" type="line"/>
      <point x="104" y="1252" type="line"/>
      <point x="104" y="1273" type="line"/>
      <point x="330" y="1494" type="line"/>
      <point x="428" y="1494" type="line"/>
    </contour>
  </outline>
</glyph>
<glyph name="caron" format="1">
  <advance width="779"/>
  <unicode hex="02C7"/>
  <outline>
    <contour>
      <point x="370" y="1325" type="line"/>
      <point x="537" y="1494" type="line"/>
      <point x="652" y="1494" type="line"/>
      <point x="652" y="1477" type="line"/>
      <point x="419" y="1252" type="line"/>
      <point x="321" y="1252" type="line"/>
      <point x="90" y="1477" type="line"/>
      <point x="90" y="1494" type="line"/>
      <point x="204" y="1494" type="line"/>
    </contour>
  </outline>
</glyph>
<glyph name="breve" format="1">
  <advance width="827"/>
  <unicode hex="02D8"/>
  <outline>
    <contour>
      <point x="688" y="1456" type="line"/>
      <point x="690" y="1450" type="line"/>
      <point x="695.3333333333333" y="1302.0"/>
      <point x="584.0" y="1198.0"/>
      <point x="408" y="1198" type="curve" smooth="yes"/>
      <point x="229.33333333333337" y="1198.0"/>
      <point x="118.33333333333334" y="1300.6666666666665"/>
      <point x="125" y="1450" type="curve"/>
      <point x="127" y="1456" type="line"/>
      <point x="221" y="1456" type="line"/>
      <point x="221.0" y="1353.3333333333335"/>
      <point x="278.66666666666674" y="1285.0"/>
      <point x="408" y="1285" type="curve" smooth="yes"/>
      <point x="533.3333333333334" y="1285.0"/>
      <point x="594.0" y="1356.0"/>
      <point x="594" y="1456" type="curve"/>
    </contour>
  </outline>
</glyph>
<glyph name="dotaccent" format="1">
  <advance width="499"/>
  <unicode hex="02D9"/>
  <outline>
    <contour>
      <point x="303" y="1288" type="line"/>
      <point x="152" y="1288" type="line"/>
      <point x="152" y="1456" type="line"/>
      <point x="303" y="1456" type="line"/>
    </contour>
  </outline>
</glyph>
<glyph name="ogonek" format="1">
  <advance width="440"/>
  <unicode hex="02DB"/>
  <outline>
    <contour>
      <point x="309" y="0" type="line"/>
      <point x="213.0" y="-80.0"/>
      <point x="161.0" y="-137.33333333333337"/>
      <point x="161" y="-212" type="curve" smooth="yes"/>
      <point x="161.0" y="-253.33333333333331"/>
      <point x="182.0" y="-297.0"/>
      <point x="250" y="-297" type="curve" smooth="yes"/>
      <point x="292.66666666666663" y="-297.0"/>
      <point x="323.0" y="-283.66666666666663"/>
      <point x="355" y="-265" type="curve"/>
      <point x="379" y="-348" type="line"/>
      <point x="340.33333333333337" y="-373.33333333333337"/>
      <point x="293.66666666666663" y="-392.0"/>
      <point x="227" y="-392" type="curve" smooth="yes"/>
      <point x="125.66666666666666" y="-392.0"/>
      <point x="54.0" y="-329.66666666666663"/>
      <point x="54" y="-223" type="curve" smooth="yes"/>
      <point x="54.0" y="-129.66666666666669"/>
      <point x="125.33333333333337" y="-33.66666666666666"/>
      <point x="248" y="37" type="curve"/>
    </contour>
  </outline>
</glyph>
<glyph name="tilde" format="1">
  <advance width="934"/>
  <unicode hex="02DC"/>
  <outline>
    <contour>
      <point x="791" y="1481" type="line"/>
      <point x="791.0" y="1363.6666666666665"/>
      <point x="708.3333333333333" y="1277.0"/>
      <point x="599" y="1277" type="curve" smooth="yes"/>
      <point x="500.33333333333326" y="1277.0"/>
      <point x="389.0" y="1387.0"/>
      <point x="317" y="1387" type="curve" smooth="yes"/>
      <point x="254.33333333333334" y="1387.0"/>
      <point x="206.0" y="1335.0"/>
      <point x="206" y="1263" type="curve"/>
      <point x="127" y="1281" type="line"/>
      <point x="127.0" y="1395.6666666666665"/>
      <point x="206.33333333333337" y="1484.0"/>
      <point x="317" y="1484" type="curve" smooth="yes"/>
      <point x="403.66666666666663" y="1484.0"/>
      <point x="529.6666666666667" y="1374.0"/>
      <point x="599" y="1374" type="curve" smooth="yes"/>
      <point x="660.3333333333333" y="1374.0"/>
      <point x="711.0" y="1427.6666666666665"/>
      <point x="711" y="1501" type="curve"/>
    </contour>
  </outline>
</glyph>
<glyph name="lowringmod" format="1">
  <advance width="437"/>
  <unicode hex="02F3"/>
  <outline>
    <contour>
      <point x="72" y="-237" type="curve" smooth="yes"/>
      <point x="72.0" y="-161.0"/>
      <point x="138.0" y="-97.0"/>
      <point x="218" y="-97" type="curve" smooth="yes"/>
      <point x="295.33333333333337" y="-97.0"/>
      <point x="360.0" y="-159.66666666666669"/>
      <point x="360" y="-237" type="curve" smooth="yes"/>
      <point x="360.0" y="-311.66666666666663"/>
      <point x="295.33333333333337" y="-372.0"/>
      <point x="218" y="-372" type="curve" smooth="yes"/>
      <point x="138.0" y="-372.0"/>
      <point x="72.0" y="-310.33333333333337"/>
    </contour>
    <contour>
      <point x="144" y="-237" type="curve" smooth="yes"/>
      <point x="144.0" y="-271.6666666666667"/>
      <point x="178.0" y="-304.0"/>
      <point x="218" y="-304" type="curve" smooth="yes"/>
      <point x="256.6666666666667" y="-304.0"/>
      <point x="289.0" y="-273.0"/>
      <point x="289" y="-237" type="curve" smooth="yes"/>
      <point x="289.0" y="-198.33333333333331"/>
      <point x="256.6666666666667" y="-166.0"/>
      <point x="218" y="-166" type="curve" smooth="yes"/>
      <point x="178.0" y="-166.0"/>
      <point x="144.0" y="-198.33333333333331"/>
    </contour>
  </outline>
</glyph>
<glyph name="dotbelowcomb" format="1">
  <advance width="358"/>
  <unicode hex="0323"/>
  <outline>
    <contour>
      <point x="252" y="-315" type="line"/>
      <point x="100" y="-315" type="line"/>
      <point x="100" y="-147" type="line"/>
      <point x="252" y="-147" type="line"/>
    </contour>
  </outline>
</glyph>
<glyph name="dieresistonos" format="1">
  <advance width="984"/>
  <unicode hex="0385"/>
  <outline>
    <contour>
      <point x="803" y="1304" type="line"/>
      <point x="644" y="1304" type="line"/>
      <point x="644" y="1456" type="line"/>
      <point x="803" y="1456" type="line"/>
    </contour>
    <contour>
      <point x="310" y="1304" type="line"/>
      <point x="151" y="1304" type="line"/>
      <point x="151" y="1456" type="line"/>
      <point x="310" y="1456" type="line"/>
    </contour>
    <contour>
      <point x="461" y="1664" type="line"/>
      <point x="635" y="1664" type="line"/>
      <point x="513" y="1412" type="line"/>
      <point x="425" y="1412" type="line"/>
    </contour>
  </outline>
</glyph>
<glyph name="Gamma" format="1">
  <advance width="1209"/>
  <unicode hex="0393"/>
  <outline>
    <contour>
      <point x="77" y="88" type="line"/>
      <point x="240" y="101" type="line"/>
      <point x="240" y="1354" type="line"/>
      <point x="77" y="1367" type="line"/>
      <point x="77" y="1456" type="line"/>
      <point x="1116" y="1456" type="line"/>
      <point x="1116" y="1149" type="line"/>
      <point x="1009" y="1149" type="line"/>
      <point x="1000" y="1354" type="line"/>
      <point x="359" y="1354" type="line"/>
      <point x="359" y="101" type="line"/>
      <point x="522" y="88" type="line"/>
      <point x="522" y="0" type="line"/>
      <point x="77" y="0" type="line"/>
    </contour>
  </outline>
</glyph>
<glyph name="Theta" format="1">
  <advance width="1386"/>
  <unicode hex="0398"/>
  <outline>
    <contour>
      <point x="1012" y="676" type="line"/>
      <point x="458" y="676" type="line"/>
      <point x="458" y="777" type="line"/>
      <point x="1012" y="777" type="line"/>
    </contour>
    <contour>
      <point x="1351" y="718" type="line" smooth="yes"/>
      <point x="1351.0" y="280.66666666666674"/>
      <point x="1094.3333333333333" y="-21.0"/>
      <point x="721" y="-21" type="curve" smooth="yes"/>
      <point x="353.0" y="-21.0"/>
      <point x="100.0" y="282.0"/>
      <point x="100" y="718" type="curve" smooth="yes"/>
      <point x="100" y="737" type="line" smooth="yes"/>
      <point x="100.0" y="1173.0"/>
      <point x="352.0" y="1477.0"/>
      <point x="720" y="1477" type="curve" smooth="yes"/>
      <point x="1093.3333333333333" y="1477.0"/>
      <point x="1351.0" y="1173.0"/>
      <point x="1351" y="737" type="curve" smooth="yes"/>
    </contour>
    <contour>
      <point x="1231" y="739" type="line" smooth="yes"/>
      <point x="1231.0" y="1116.3333333333333"/>
      <point x="1033.3333333333333" y="1372.0"/>
      <point x="720" y="1372" type="curve" smooth="yes"/>
      <point x="412.0" y="1372.0"/>
      <point x="220.0" y="1116.3333333333333"/>
      <point x="220" y="739" type="curve" smooth="yes"/>
      <point x="220" y="718" type="line" smooth="yes"/>
      <point x="220.0" y="337.99999999999994"/>
      <point x="413.00000000000006" y="83.0"/>
      <point x="721" y="83" type="curve" smooth="yes"/>
      <point x="1037.0" y="83.0"/>
      <point x="1231.0" y="336.66666666666674"/>
      <point x="1231" y="718" type="curve" smooth="yes"/>
    </contour>
  </outline>
</glyph>
<glyph name="Xi" format="1">
  <advance width="1194"/>
  <unicode hex="039E"/>
  <outline>
    <contour>
      <point x="80" y="306" type="line"/>
      <point x="187" y="306" type="line"/>
      <point x="195" y="101" type="line"/>
      <point x="1004" y="101" type="line"/>
      <point x="1014" y="306" type="line"/>
      <point x="1120" y="306" type="line"/>
      <point x="1120" y="0" type="line"/>
      <point x="80" y="0" type="line"/>
    </contour>
    <contour>
      <point x="1093" y="1456" type="line"/>
      <point x="1093" y="1149" type="line"/>
      <point x="987" y="1149" type="line"/>
      <point x="978" y="1354" type="line"/>
      <point x="207" y="1354" type="line"/>
      <point x="199" y="1149" type="line"/>
      <point x="92" y="1149" type="line"/>
      <point x="92" y="1456" type="line"/>
    </contour>
    <contour>
      <point x="290" y="784" type="line"/>
      <point x="901" y="784" type="line"/>
      <point x="901" y="682" type="line"/>
      <point x="290" y="682" type="line"/>
    </contour>
  </outline>
</glyph>
<glyph name="Phi" format="1">
  <advance width="1458"/>
  <unicode hex="03A6"/>
  <outline>
    <contour>
      <point x="659" y="211" type="line" smooth="yes"/>
      <point x="315.0" y="211.0"/>
      <point x="79.0" y="428.666666667"/>
      <point x="79" y="730" type="curve" smooth="yes"/>
      <point x="79.0" y="1028.66666667"/>
      <point x="315.0" y="1250.0"/>
      <point x="659" y="1250" type="curve" smooth="yes"/>
      <point x="661" y="1250" type="line"/>
      <point x="661" y="1354" type="line"/>
      <point x="498" y="1367" type="line"/>
      <point x="498" y="1456" type="line"/>
      <point x="944" y="1456" type="line"/>
      <point x="944" y="1367" type="line"/>
      <point x="781" y="1354" type="line"/>
      <point x="781" y="1250" type="line"/>
      <point x="783" y="1250" type="line" smooth="yes"/>
      <point x="1124.33333333" y="1250.0"/>
      <point x="1364.0" y="1029.33333333"/>
      <point x="1364" y="732" type="curve" smooth="yes"/>
      <point x="1364.0" y="430.666666667"/>
      <point x="1124.33333333" y="211.0"/>
      <point x="783" y="211" type="curve" smooth="yes"/>
      <point x="781" y="211" type="line"/>
      <point x="781" y="101" type="line"/>
      <point x="944" y="88" type="line"/>
      <point x="944" y="0" type="line"/>
      <point x="498" y="0" type="line"/>
      <point x="498" y="88" type="line"/>
      <point x="661" y="101" type="line"/>
      <point x="661" y="211" type="line"/>
    </contour>
    <contour>
      <point x="198" y="730" type="curve" smooth="yes"/>
      <point x="198.0" y="479.333333333"/>
      <point x="372.333333333" y="312.0"/>
      <point x="659" y="312" type="curve" smooth="yes"/>
      <point x="661" y="312" type="line"/>
      <point x="661" y="1148" type="line"/>
      <point x="659" y="1148" type="line" smooth="yes"/>
      <point x="373.666666667" y="1148.0"/>
      <point x="198.0" y="975.333333333"/>
    </contour>
    <contour>
      <point x="1245" y="732" type="curve" smooth="yes"/>
      <point x="1245.0" y="978.666666667"/>
      <point x="1067.66666667" y="1148.0"/>
      <point x="785" y="1148" type="curve" smooth="yes"/>
      <point x="781" y="1148" type="line"/>
      <point x="781" y="312" type="line"/>
      <point x="785" y="312" type="line" smooth="yes"/>
      <point x="1069.0" y="312.0"/>
      <point x="1245.0" y="481.333333333"/>
    </contour>
  </outline>
</glyph>
<glyph name="Psi" format="1">
  <advance width="1640"/>
  <unicode hex="03A8"/>
  <outline>
    <contour>
      <point x="1018" y="1367" type="line"/>
      <point x="855" y="1354" type="line"/>
      <point x="855" y="499" type="line"/>
      <point x="861" y="497" type="line"/>
      <point x="1099.66666667" y="509.0"/>
      <point x="1263.0" y="677.333333333"/>
      <point x="1263" y="936" type="curve" smooth="yes"/>
      <point x="1263" y="1456" type="line"/>
      <point x="1545" y="1456" type="line"/>
      <point x="1545" y="1367" type="line"/>
      <point x="1382" y="1354" type="line"/>
      <point x="1382" y="936" type="line" smooth="yes"/>
      <point x="1382.0" y="608.0"/>
      <point x="1171.0" y="406.666666667"/>
      <point x="855" y="388" type="curve"/>
      <point x="855" y="101" type="line"/>
      <point x="1018" y="88" type="line"/>
      <point x="1018" y="0" type="line"/>
      <point x="572" y="0" type="line"/>
      <point x="572" y="88" type="line"/>
      <point x="735" y="101" type="line"/>
      <point x="735" y="388" type="line"/>
      <point x="424.333333333" y="408.0"/>
      <point x="218.0" y="609.333333333"/>
      <point x="218" y="936" type="curve" smooth="yes"/>
      <point x="218" y="1354" type="line"/>
      <point x="55" y="1367" type="line"/>
      <point x="55" y="1456" type="line"/>
      <point x="337" y="1456" type="line"/>
      <point x="337" y="936" type="line" smooth="yes"/>
      <point x="337.0" y="678.666666667"/>
      <point x="495.666666667" y="511.666666667"/>
      <point x="729" y="497" type="curve"/>
      <point x="735" y="499" type="line"/>
      <point x="735" y="1354" type="line"/>
      <point x="572" y="1367" type="line"/>
      <point x="572" y="1456" type="line"/>
      <point x="1018" y="1456" type="line"/>
    </contour>
  </outline>
</glyph>
<glyph name="alpha" format="1">
  <advance width="1204"/>
  <unicode hex="03B1"/>
  <outline>
    <contour>
      <point x="971" y="1082" type="line"/>
      <point x="971" y="274" type="line" smooth="yes"/>
      <point x="971.0" y="135.333333333"/>
      <point x="1008.0" y="87.0"/>
      <point x="1072" y="87" type="curve" smooth="yes"/>
      <point x="1088.0" y="87.0"/>
      <point x="1099.33333333" y="88.3333333333"/>
      <point x="1122" y="95" type="curve"/>
      <point x="1139" y="2" type="line"/>
      <point x="1108.33333333" y="-15.3333333333"/>
      <point x="1077.0" y="-21.0"/>
      <point x="1041" y="-21" type="curve" smooth="yes"/>
      <point x="934.333333333" y="-21.0"/>
      <point x="873.333333333" y="37.3333333333"/>
      <point x="856" y="176" type="curve"/>
      <point x="785.333333333" y="49.3333333333"/>
      <point x="671.666666667" y="-21.0"/>
      <point x="517" y="-21" type="curve" smooth="yes"/>
      <point x="258.333333333" y="-21.0"/>
      <point x="104.0" y="187.0"/>
      <point x="104" y="511" type="curve" smooth="yes"/>
      <point x="104" y="532" type="line" smooth="yes"/>
      <point x="104.0" y="877.333333333"/>
      <point x="257.666666667" y="1102.0"/>
      <point x="519" y="1102" type="curve" smooth="yes"/>
      <point x="672.333333333" y="1102.0"/>
      <point x="783.333333333" y="1028.0"/>
      <point x="854" y="896" type="curve"/>
      <point x="868" y="1082" type="line"/>
    </contour>
    <contour>
      <point x="224" y="511" type="line" smooth="yes"/>
      <point x="224.0" y="249.666666667"/>
      <point x="328.333333333" y="80.0"/>
      <point x="539" y="80" type="curve" smooth="yes"/>
      <point x="695.0" y="80.0"/>
      <point x="793.666666667" y="171.333333333"/>
      <point x="851" y="322" type="curve"/>
      <point x="851" y="735" type="line"/>
      <point x="795.0" y="891.0"/>
      <point x="695.666666667" y="1000.0"/>
      <point x="541" y="1000" type="curve" smooth="yes"/>
      <point x="330.333333333" y="1000.0"/>
      <point x="224.0" y="808.0"/>
      <point x="224" y="532" type="curve" smooth="yes"/>
    </contour>
  </outline>
</glyph>
<glyph name="beta" format="1">
  <advance width="1158"/>
  <unicode hex="03B2"/>
  <outline>
    <contour>
      <point x="560" y="1477" type="curve" smooth="yes"/>
      <point x="805.3333333333333" y="1477.0"/>
      <point x="969.0" y="1318.3333333333335"/>
      <point x="969" y="1093" type="curve" smooth="yes"/>
      <point x="969.0" y="958.3333333333335"/>
      <point x="895.3333333333333" y="842.0"/>
      <point x="770" y="782" type="curve"/>
      <point x="953.9999999999999" y="730.0"/>
      <point x="1056.0" y="588.0000000000001"/>
      <point x="1056" y="404" type="curve" smooth="yes"/>
      <point x="1056.0" y="137.33333333333337"/>
      <point x="875.3333333333333" y="-21.0"/>
      <point x="606" y="-21" type="curve" smooth="yes"/>
      <point x="478.0" y="-21.0"/>
      <point x="345.66666666666663" y="22.666666666666686"/>
      <point x="263" y="108" type="curve"/>
      <point x="263" y="-399" type="line"/>
      <point x="144" y="-399" type="line"/>
      <point x="144" y="1063" type="line" smooth="yes"/>
      <point x="144.0" y="1295.0"/>
      <point x="330.66666666666674" y="1477.0"/>
    </contour>
    <contour>
      <point x="556" y="823" type="line" smooth="yes"/>
      <point x="757.3333333333333" y="823.0"/>
      <point x="850.0" y="923.3333333333333"/>
      <point x="850" y="1098" type="curve" smooth="yes"/>
      <point x="850.0" y="1248.6666666666665"/>
      <point x="745.3333333333333" y="1375.0"/>
      <point x="560" y="1375" type="curve" smooth="yes"/>
      <point x="392.0" y="1375.0"/>
      <point x="263.0" y="1241.6666666666665"/>
      <point x="263" y="1063" type="curve" smooth="yes"/>
      <point x="263" y="238" type="line"/>
      <point x="323.0" y="140.6666666666667"/>
      <point x="450.33333333333326" y="80.0"/>
      <point x="597" y="80" type="curve" smooth="yes"/>
      <point x="813.0" y="80.0"/>
      <point x="936.0" y="202.66666666666674"/>
      <point x="936" y="400" type="curve" smooth="yes"/>
      <point x="936.0" y="586.6666666666666"/>
      <point x="813.0" y="721.0"/>
      <point x="605" y="721" type="curve" smooth="yes"/>
      <point x="462" y="721" type="line"/>
      <point x="462" y="823" type="line"/>
    </contour>
  </outline>
</glyph>
<glyph name="epsilon" format="1">
  <advance width="1093"/>
  <unicode hex="03B5"/>
  <outline>
    <contour>
      <point x="543" y="502" type="line" smooth="yes"/>
      <point x="331.0" y="502.0"/>
      <point x="225.0" y="436.333333333"/>
      <point x="225" y="295" type="curve" smooth="yes"/>
      <point x="225.0" y="167.0"/>
      <point x="344.333333333" y="82.0"/>
      <point x="547" y="82" type="curve" smooth="yes"/>
      <point x="741.666666667" y="82.0"/>
      <point x="877.0" y="180.666666667"/>
      <point x="877" y="310" type="curve"/>
      <point x="987" y="310" type="line"/>
      <point x="989" y="304" type="line"/>
      <point x="995.666666667" y="96.0"/>
      <point x="789.666666667" y="-18.0"/>
      <point x="547" y="-18" type="curve" smooth="yes"/>
      <point x="284.333333333" y="-18.0"/>
      <point x="105.0" y="101.0"/>
      <point x="105" y="297" type="curve" smooth="yes"/>
      <point x="105.0" y="426.333333333"/>
      <point x="181.0" y="515.0"/>
      <point x="329" y="555" type="curve"/>
      <point x="198.333333333" y="600.333333333"/>
      <point x="124.0" y="690.0"/>
      <point x="124" y="794" type="curve" smooth="yes"/>
      <point x="124.0" y="988.666666667"/>
      <point x="285.666666667" y="1099.0"/>
      <point x="547" y="1099" type="curve" smooth="yes"/>
      <point x="788.333333333" y="1099.0"/>
      <point x="977.666666667" y="974.666666667"/>
      <point x="971" y="796" type="curve"/>
      <point x="969" y="790" type="line"/>
      <point x="860" y="790" type="line"/>
      <point x="860.0" y="911.333333333"/>
      <point x="723.0" y="998.0"/>
      <point x="547" y="998" type="curve" smooth="yes"/>
      <point x="345.666666667" y="998.0"/>
      <point x="244.0" y="913.333333333"/>
      <point x="244" y="796" type="curve" smooth="yes"/>
      <point x="244.0" y="673.333333333"/>
      <point x="337.666666667" y="602.0"/>
      <point x="543" y="602" type="curve" smooth="yes"/>
      <point x="728" y="602" type="line"/>
      <point x="728" y="502" type="line"/>
    </contour>
  </outline>
</glyph>
<glyph name="lambda" format="1">
  <advance width="1135"/>
  <unicode hex="03BB"/>
  <outline>
    <contour>
      <point x="167" y="0" type="line"/>
      <point x="35" y="0" type="line"/>
      <point x="451" y="1052" type="line"/>
      <point x="371" y="1258" type="line" smooth="yes"/>
      <point x="335.0" y="1364.6666666666665"/>
      <point x="294.0" y="1416.0"/>
      <point x="214" y="1416" type="curve" smooth="yes"/>
      <point x="203.33333333333331" y="1416.0"/>
      <point x="176.33333333333331" y="1413.3333333333335"/>
      <point x="167" y="1412" type="curve"/>
      <point x="162" y="1507" type="line"/>
      <point x="178.0" y="1512.3333333333335"/>
      <point x="221.66666666666669" y="1518.0"/>
      <point x="247" y="1518" type="curve" smooth="yes"/>
      <point x="383.0" y="1518.0"/>
      <point x="439.33333333333337" y="1434.3333333333335"/>
      <point x="482" y="1305" type="curve" smooth="yes"/>
      <point x="880" y="258" type="line" smooth="yes"/>
      <point x="920.0" y="151.33333333333337"/>
      <point x="958.6666666666667" y="95.0"/>
      <point x="1020" y="95" type="curve" smooth="yes"/>
      <point x="1032.0" y="95.0"/>
      <point x="1052.6666666666665" y="95.0"/>
      <point x="1062" y="99" type="curve"/>
      <point x="1070" y="0" type="line"/>
      <point x="1055.3333333333335" y="-5.333333333333333"/>
      <point x="1025.6666666666667" y="-11.0"/>
      <point x="1003" y="-11" type="curve" smooth="yes"/>
      <point x="880.3333333333333" y="-11.0"/>
      <point x="822.3333333333333" y="67.66666666666669"/>
      <point x="765" y="221" type="curve" smooth="yes"/>
      <point x="509" y="898" type="line"/>
      <point x="503" y="898" type="line"/>
      <point x="470" y="784" type="line"/>
    </contour>
  </outline>
</glyph>
<glyph name="xi" format="1">
  <advance width="1005"/>
  <unicode hex="03BE"/>
  <outline>
    <contour>
      <point x="902" y="1333" type="line"/>
      <point x="826.0" y="1358.3333333333335"/>
      <point x="750.0" y="1374.0"/>
      <point x="674" y="1374" type="curve" smooth="yes"/>
      <point x="434.0" y="1374.0"/>
      <point x="313.0" y="1278.0"/>
      <point x="313" y="1142" type="curve" smooth="yes"/>
      <point x="313.0" y="990.0"/>
      <point x="426.33333333333326" y="904.0"/>
      <point x="677" y="904" type="curve" smooth="yes"/>
      <point x="808" y="904" type="line"/>
      <point x="808" y="801" type="line"/>
      <point x="677" y="801" type="line" smooth="yes"/>
      <point x="409.0" y="801.0"/>
      <point x="239.0" y="684.0"/>
      <point x="239" y="444" type="curve" smooth="yes"/>
      <point x="239.0" y="248.0"/>
      <point x="377.66666666666674" y="144.0"/>
      <point x="607" y="88" type="curve" smooth="yes"/>
      <point x="682" y="72" type="line" smooth="yes"/>
      <point x="850.0" y="32.0"/>
      <point x="923.0" y="-8.666666666666686"/>
      <point x="923" y="-126" type="curve" smooth="yes"/>
      <point x="923.0" y="-223.33333333333331"/>
      <point x="835.0" y="-326.33333333333337"/>
      <point x="759" y="-381" type="curve"/>
      <point x="694" y="-323" type="line"/>
      <point x="770.0" y="-252.33333333333337"/>
      <point x="808.0" y="-214.33333333333331"/>
      <point x="808" y="-137" type="curve" smooth="yes"/>
      <point x="808.0" y="-75.66666666666669"/>
      <point x="760.6666666666667" y="-48.33333333333333"/>
      <point x="642" y="-23" type="curve" smooth="yes"/>
      <point x="594" y="-11" type="line" smooth="yes"/>
      <point x="287.33333333333337" y="61.0"/>
      <point x="119.0" y="178.66666666666674"/>
      <point x="119" y="448" type="curve" smooth="yes"/>
      <point x="119.0" y="652.0"/>
      <point x="241.66666666666674" y="792.0"/>
      <point x="447" y="852" type="curve"/>
      <point x="284.33333333333337" y="901.3333333333333"/>
      <point x="192.0" y="1008.6666666666665"/>
      <point x="192" y="1138" type="curve" smooth="yes"/>
      <point x="192.0" y="1352.6666666666665"/>
      <point x="376.3333333333335" y="1475.0"/>
      <point x="675" y="1475" type="curve" smooth="yes"/>
      <point x="760.3333333333333" y="1475.0"/>
      <point x="852.3333333333333" y="1457.6666666666665"/>
      <point x="919" y="1431" type="curve"/>
    </contour>
  </outline>
</glyph>
<glyph name="rho" format="1">
  <advance width="1134"/>
  <unicode hex="03C1"/>
  <outline>
    <contour>
      <point x="1002" y="511" type="line" smooth="yes"/>
      <point x="1002.0" y="187.0"/>
      <point x="849.333333333" y="-21.0"/>
      <point x="592" y="-21" type="curve" smooth="yes"/>
      <point x="442.666666667" y="-21.0"/>
      <point x="328.666666667" y="34.0"/>
      <point x="254" y="134" type="curve"/>
      <point x="254" y="-416" type="line"/>
      <point x="134" y="-416" type="line"/>
      <point x="134" y="608" type="line" smooth="yes"/>
      <point x="134" y="920"/>
      <point x="316.333333333" y="1102.0"/>
      <point x="567" y="1102" type="curve" smooth="yes"/>
      <point x="843.0" y="1102.0"/>
      <point x="1002.0" y="880.0"/>
      <point x="1002" y="532" type="curve" smooth="yes"/>
    </contour>
    <contour>
      <point x="882" y="532" type="line" smooth="yes"/>
      <point x="882.0" y="808.0"/>
      <point x="776.333333333" y="1000.0"/>
      <point x="567" y="1000" type="curve" smooth="yes"/>
      <point x="356.333333333" y="1000.0"/>
      <point x="254.0" y="809.333333333"/>
      <point x="254" y="596" type="curve" smooth="yes"/>
      <point x="254" y="267" type="line"/>
      <point x="310.0" y="151.0"/>
      <point x="413.0" y="80.0"/>
      <point x="565" y="80" type="curve" smooth="yes"/>
      <point x="774.333333333" y="80.0"/>
      <point x="882.0" y="249.666666667"/>
      <point x="882" y="511" type="curve" smooth="yes"/>
    </contour>
  </outline>
</glyph>
<glyph name="phi" format="1">
  <advance width="1453"/>
  <unicode hex="03C6"/>
  <outline>
    <contour>
      <point x="635" y="-19" type="line"/>
      <point x="277.66666666666674" y="5.0"/>
      <point x="113.0" y="228.66666666666674"/>
      <point x="113" y="554" type="curve" smooth="yes"/>
      <point x="113.0" y="788.6666666666667"/>
      <point x="212.0" y="974.0"/>
      <point x="372" y="1082" type="curve"/>
      <point x="435" y="995" type="line"/>
      <point x="307.0" y="901.6666666666667"/>
      <point x="233.33333333333331" y="730.3333333333333"/>
      <point x="232" y="553" type="curve"/>
      <point x="232.0" y="303.6666666666667"/>
      <point x="350.33333333333337" y="107.33333333333334"/>
      <point x="629" y="90" type="curve"/>
      <point x="635" y="92" type="line"/>
      <point x="635" y="860" type="line" smooth="yes"/>
      <point x="635.0" y="988.0"/>
      <point x="735.6666666666667" y="1082.0"/>
      <point x="857" y="1082" type="curve" smooth="yes"/>
      <point x="1102.333333333333" y="1082.0"/>
      <point x="1293.0" y="854.3333333333334"/>
      <point x="1293" y="545" type="curve" smooth="yes"/>
      <point x="1293.0" y="238.33333333333337"/>
      <point x="1108.3333333333333" y="3.6666666666666643"/>
      <point x="755" y="-19" type="curve"/>
      <point x="755" y="-478" type="line"/>
      <point x="635" y="-478" type="line"/>
    </contour>
    <contour>
      <point x="755" y="90" type="line"/>
      <point x="761" y="88" type="line"/>
      <point x="1029.0" y="104.0"/>
      <point x="1174.0" y="306.66666666666674"/>
      <point x="1174" y="544" type="curve" smooth="yes"/>
      <point x="1171.3333333333335" y="780.0"/>
      <point x="1045.0" y="979.0"/>
      <point x="857" y="979" type="curve" smooth="yes"/>
      <point x="797.0" y="979.0"/>
      <point x="755.0" y="931.0"/>
      <point x="755" y="863" type="curve" smooth="yes"/>
    </contour>
  </outline>
</glyph>
<glyph name="chi" format="1">
  <advance width="1192"/>
  <unicode hex="03C7"/>
  <outline>
    <contour>
      <point x="73" y="88" type="line"/>
      <point x="194" y="99" type="line"/>
      <point x="531" y="546" type="line"/>
      <point x="210" y="982" type="line"/>
      <point x="88" y="993" type="line"/>
      <point x="88" y="1082" type="line"/>
      <point x="293" y="1081" type="line"/>
      <point x="606" y="643" type="line"/>
      <point x="860" y="988" type="line"/>
      <point x="749" y="993" type="line"/>
      <point x="749" y="1082" type="line"/>
      <point x="1116" y="1082" type="line"/>
      <point x="1116" y="993" type="line"/>
      <point x="995" y="982" type="line"/>
      <point x="669" y="553" type="line"/>
      <point x="1010" y="99" type="line"/>
      <point x="1132" y="88" type="line"/>
      <point x="1132" y="0" type="line"/>
      <point x="934" y="0" type="line"/>
      <point x="602" y="461" type="line"/>
      <point x="328" y="93" type="line"/>
      <point x="439" y="88" type="line"/>
      <point x="439" y="0" type="line"/>
      <point x="73" y="0" type="line"/>
    </contour>
  </outline>
</glyph>
<glyph name="omega" format="1">
  <advance width="1666"/>
  <unicode hex="03C9"/>
  <outline>
    <contour>
      <point x="383" y="1082" type="line"/>
      <point x="291.0" y="902.0"/>
      <point x="236.33333333333331" y="721.0"/>
      <point x="235" y="529" type="curve"/>
      <point x="235.0" y="272.99999999999994"/>
      <point x="322.33333333333337" y="80.0"/>
      <point x="501" y="80" type="curve" smooth="yes"/>
      <point x="659.6666666666667" y="80.0"/>
      <point x="762.0" y="204.66666666666674"/>
      <point x="762" y="478" type="curve" smooth="yes"/>
      <point x="762" y="770" type="line"/>
      <point x="883" y="770" type="line"/>
      <point x="883" y="478" type="line" smooth="yes"/>
      <point x="883.0" y="204.66666666666674"/>
      <point x="983.0" y="80.0"/>
      <point x="1143" y="80" type="curve" smooth="yes"/>
      <point x="1321.6666666666665" y="80.0"/>
      <point x="1411.0" y="271.6666666666667"/>
      <point x="1411" y="529" type="curve" smooth="yes"/>
      <point x="1407.0" y="719.6666666666667"/>
      <point x="1351.3333333333335" y="900.6666666666667"/>
      <point x="1262" y="1082" type="curve"/>
      <point x="1392" y="1082" type="line"/>
      <point x="1477.3333333333335" y="912.6666666666667"/>
      <point x="1530.0" y="757.6666666666667"/>
      <point x="1530" y="531" type="curve" smooth="yes"/>
      <point x="1530.0" y="207.0"/>
      <point x="1398.3333333333335" y="-21.0"/>
      <point x="1149" y="-21" type="curve" smooth="yes"/>
      <point x="987.6666666666665" y="-21.0"/>
      <point x="874.0" y="62.666666666666686"/>
      <point x="822" y="232" type="curve"/>
      <point x="768.6666666666667" y="62.666666666666686"/>
      <point x="656.0" y="-21.0"/>
      <point x="496" y="-21" type="curve" smooth="yes"/>
      <point x="244.0" y="-21.0"/>
      <point x="116.0" y="205.66666666666674"/>
      <point x="116" y="531" type="curve" smooth="yes"/>
      <point x="116.0" y="759.0"/>
      <point x="167.66666666666669" y="916.6666666666667"/>
      <point x="253" y="1082" type="curve"/>
    </contour>
  </outline>
</glyph>
<glyph name="UpsilonhookSymbol" format="1">
  <advance width="1257"/>
  <unicode hex="03D2"/>
  <outline>
    <contour>
      <point x="873" y="1239" type="line" smooth="yes"/>
      <point x="942.3333333333333" y="1404.3333333333333"/>
      <point x="1017.3333333333334" y="1467.0"/>
      <point x="1132" y="1467" type="curve" smooth="yes"/>
      <point x="1172.0" y="1467.0"/>
      <point x="1210.0" y="1457.0"/>
      <point x="1238" y="1441" type="curve"/>
      <point x="1215" y="1347" type="line"/>
      <point x="1201.6666666666665" y="1353.6666666666665"/>
      <point x="1178.6666666666665" y="1362.0"/>
      <point x="1152" y="1362" type="curve" smooth="yes"/>
      <point x="1086.6666666666665" y="1362.0"/>
      <point x="1036.3333333333333" y="1332.3333333333335"/>
      <point x="987" y="1219" type="curve" smooth="yes"/>
      <point x="706" y="599" type="line"/>
      <point x="706" y="0" type="line"/>
      <point x="586" y="0" type="line"/>
      <point x="586" y="601" type="line"/>
      <point x="302" y="1219" type="line" smooth="yes"/>
      <point x="250.0" y="1332.3333333333335"/>
      <point x="200.66666666666669" y="1362.0"/>
      <point x="138" y="1362" type="curve" smooth="yes"/>
      <point x="110.0" y="1362.0"/>
      <point x="85.66666666666666" y="1353.6666666666665"/>
      <point x="75" y="1347" type="curve"/>
      <point x="52" y="1441" type="line"/>
      <point x="78.66666666666666" y="1457.0"/>
      <point x="116.66666666666669" y="1467.0"/>
      <point x="158" y="1467" type="curve" smooth="yes"/>
      <point x="271.3333333333333" y="1467.0"/>
      <point x="346.33333333333337" y="1404.3333333333335"/>
      <point x="417" y="1239" type="curve" smooth="yes"/>
      <point x="606" y="813" type="line"/>
      <point x="642" y="702" type="line"/>
      <point x="648" y="702" type="line"/>
      <point x="684" y="813" type="line"/>
    </contour>
  </outline>
</glyph>
<glyph name="piSymbol" format="1">
  <advance width="1687"/>
  <unicode hex="03D6"/>
  <outline>
    <contour>
      <point x="1621" y="979" type="line"/>
      <point x="1455" y="979" type="line"/>
      <point x="1509.6666666666665" y="849.6666666666667"/>
      <point x="1543.0" y="709.6666666666667"/>
      <point x="1543" y="531" type="curve" smooth="yes"/>
      <point x="1543.0" y="207.0"/>
      <point x="1418.3333333333335" y="-21.0"/>
      <point x="1181" y="-21" type="curve" smooth="yes"/>
      <point x="1019.6666666666666" y="-21.0"/>
      <point x="906.0" y="62.66666666666654"/>
      <point x="854" y="232" type="curve"/>
      <point x="800.6666666666667" y="62.666666666666686"/>
      <point x="689.0" y="-21.0"/>
      <point x="529" y="-21" type="curve" smooth="yes"/>
      <point x="290.33333333333337" y="-21.0"/>
      <point x="167.0" y="207.0"/>
      <point x="167" y="531" type="curve" smooth="yes"/>
      <point x="167.0" y="708.3333333333333"/>
      <point x="199.0" y="848.3333333333333"/>
      <point x="255" y="979" type="curve"/>
      <point x="105" y="979" type="line"/>
      <point x="105" y="1082" type="line"/>
      <point x="1621" y="1082" type="line"/>
    </contour>
    <contour>
      <point x="1424" y="529" type="curve" smooth="yes"/>
      <point x="1421.3333333333335" y="683.6666666666667"/>
      <point x="1384.3333333333335" y="831.0"/>
      <point x="1323" y="979" type="curve"/>
      <point x="386" y="979" type="line"/>
      <point x="323.33333333333337" y="831.0"/>
      <point x="286.0" y="682.3333333333333"/>
      <point x="286" y="529" type="curve" smooth="yes"/>
      <point x="286.0" y="271.66666666666674"/>
      <point x="368.33333333333337" y="80.0"/>
      <point x="535" y="80" type="curve" smooth="yes"/>
      <point x="693.6666666666667" y="80.0"/>
      <point x="794.0" y="204.66666666666669"/>
      <point x="794" y="478" type="curve" smooth="yes"/>
      <point x="794" y="747" type="line"/>
      <point x="915" y="747" type="line"/>
      <point x="915" y="478" type="line" smooth="yes"/>
      <point x="915.0" y="204.66666666666674"/>
      <point x="1016.0" y="80.0"/>
      <point x="1176" y="80" type="curve" smooth="yes"/>
      <point x="1340.0" y="80.0"/>
      <point x="1424.0" y="271.66666666666674"/>
    </contour>
  </outline>
</glyph>
<glyph name="Dze-cy" format="1">
  <advance width="1220"/>
  <unicode hex="0405"/>
  <outline>
    <contour>
      <point x="1099" y="1024" type="line"/>
      <point x="1001" y="1024" type="line"/>
      <point x="984" y="1230" type="line"/>
      <point x="912.0" y="1320.6666666666665"/>
      <point x="785.6666666666667" y="1375.0"/>
      <point x="619" y="1375" type="curve" smooth="yes"/>
      <point x="379.0" y="1375.0"/>
      <point x="238.0" y="1257.6666666666665"/>
      <point x="238" y="1103" type="curve" smooth="yes"/>
      <point x="238.0" y="956.3333333333335"/>
      <point x="344.66666666666674" y="864.6666666666667"/>
      <point x="642" y="790" type="curve" smooth="yes"/>
      <point x="955.3333333333334" y="710.0"/>
      <point x="1122.0" y="581.6666666666665"/>
      <point x="1122" y="359" type="curve" smooth="yes"/>
      <point x="1122.0" y="127.00000000000011"/>
      <point x="911.6666666666666" y="-21.0"/>
      <point x="617" y="-21" type="curve" smooth="yes"/>
      <point x="409.0" y="-21.0"/>
      <point x="222.33333333333331" y="55.0"/>
      <point x="109" y="191" type="curve"/>
      <point x="109" y="446" type="line"/>
      <point x="207" y="446" type="line"/>
      <point x="224" y="233" type="line"/>
      <point x="312.0" y="133.0"/>
      <point x="455.66666666666674" y="80.0"/>
      <point x="617" y="80" type="curve" smooth="yes"/>
      <point x="846.3333333333333" y="80.0"/>
      <point x="1002.0" y="190.33333333333337"/>
      <point x="1002" y="357" type="curve" smooth="yes"/>
      <point x="1002.0" y="515.6666666666667"/>
      <point x="897.6666666666664" y="607.6666666666667"/>
      <point x="603" y="685" type="curve" smooth="yes"/>
      <point x="284.33333333333337" y="765.0"/>
      <point x="118.0" y="882.6666666666667"/>
      <point x="118" y="1100" type="curve" smooth="yes"/>
      <point x="118.0" y="1322.6666666666665"/>
      <point x="324.33333333333337" y="1477.0"/>
      <point x="619" y="1477" type="curve" smooth="yes"/>
      <point x="831.0" y="1477.0"/>
      <point x="1003.0" y="1398.3333333333335"/>
      <point x="1099" y="1273" type="curve"/>
    </contour>
  </outline>
</glyph>
<glyph name="Nje-cy" format="1">
  <advance width="2247"/>
  <unicode hex="040A"/>
  <outline>
    <contour>
      <point x="77" y="88" type="line"/>
      <point x="240" y="101" type="line"/>
      <point x="240" y="1354" type="line"/>
      <point x="77" y="1367" type="line"/>
      <point x="77" y="1456" type="line"/>
      <point x="522" y="1456" type="line"/>
      <point x="522" y="1367" type="line"/>
      <point x="359" y="1354" type="line"/>
      <point x="359" y="785" type="line"/>
      <point x="1188" y="785" type="line"/>
      <point x="1188" y="1354" type="line"/>
      <point x="1025" y="1367" type="line"/>
      <point x="1025" y="1456" type="line"/>
      <point x="1188" y="1456" type="line"/>
      <point x="1307" y="1456" type="line"/>
      <point x="1470" y="1456" type="line"/>
      <point x="1470" y="1367" type="line"/>
      <point x="1307" y="1354" type="line"/>
      <point x="1307" y="824" type="line"/>
      <point x="1672" y="824" type="line" smooth="yes"/>
      <point x="1978.66666667" y="824.0"/>
      <point x="2152.0" y="659.333333333"/>
      <point x="2152" y="414" type="curve" smooth="yes"/>
      <point x="2152.0" y="167.333333333"/>
      <point x="1976.0" y="0.0"/>
      <point x="1672" y="0" type="curve" smooth="yes"/>
      <point x="1025" y="0" type="line"/>
      <point x="1025" y="88" type="line"/>
      <point x="1188" y="101" type="line"/>
      <point x="1188" y="684" type="line"/>
      <point x="359" y="684" type="line"/>
      <point x="359" y="101" type="line"/>
      <point x="522" y="88" type="line"/>
      <point x="522" y="0" type="line"/>
      <point x="77" y="0" type="line"/>
    </contour>
    <contour>
      <point x="1307" y="722" type="line"/>
      <point x="1307" y="106" type="line"/>
      <point x="1672" y="106" type="line" smooth="yes"/>
      <point x="1912.0" y="106.0"/>
      <point x="2033.0" y="237.333333333"/>
      <point x="2033" y="416" type="curve" smooth="yes"/>
      <point x="2033.0" y="588.0"/>
      <point x="1912.0" y="722.0"/>
      <point x="1672" y="722" type="curve" smooth="yes"/>
    </contour>
  </outline>
</glyph>
<glyph name="Tshe-cy" format="1">
  <advance width="1732"/>
  <unicode hex="040B"/>
  <outline>
    <contour>
      <point x="1209" y="1149" type="line"/>
      <point x="1103" y="1149" type="line"/>
      <point x="1094" y="1354" type="line"/>
      <point x="648" y="1354" type="line"/>
      <point x="648" y="808" type="line"/>
      <point x="770.6666666666667" y="841.3333333333333"/>
      <point x="886.3333333333333" y="860.0"/>
      <point x="1025" y="860" type="curve" smooth="yes"/>
      <point x="1343.6666666666665" y="860.0"/>
      <point x="1508.0" y="727.6666666666665"/>
      <point x="1508" y="413" type="curve" smooth="yes"/>
      <point x="1508" y="101" type="line"/>
      <point x="1671" y="88" type="line"/>
      <point x="1671" y="0" type="line"/>
      <point x="1226" y="0" type="line"/>
      <point x="1226" y="88" type="line"/>
      <point x="1389" y="101" type="line"/>
      <point x="1389" y="413" type="line" smooth="yes"/>
      <point x="1389.0" y="659.6666666666667"/>
      <point x="1270.3333333333335" y="758.0"/>
      <point x="1025" y="758" type="curve" smooth="yes"/>
      <point x="895.6666666666667" y="758.0"/>
      <point x="773.3333333333333" y="739.3333333333333"/>
      <point x="648" y="706" type="curve"/>
      <point x="648" y="101" type="line"/>
      <point x="811" y="88" type="line"/>
      <point x="811" y="0" type="line"/>
      <point x="365" y="0" type="line"/>
      <point x="365" y="88" type="line"/>
      <point x="528" y="101" type="line"/>
      <point x="528" y="1354" type="line"/>
      <point x="184" y="1354" type="line"/>
      <point x="176" y="1149" type="line"/>
      <point x="69" y="1149" type="line"/>
      <point x="69" y="1456" type="line"/>
      <point x="1209" y="1456" type="line"/>
    </contour>
  </outline>
</glyph>
<glyph name="De-cy" format="1">
  <advance width="1544"/>
  <unicode hex="0414"/>
  <outline>
    <contour>
      <point x="1390" y="-353" type="line"/>
      <point x="1279" y="-353" type="line"/>
      <point x="1279" y="0" type="line"/>
      <point x="174" y="0" type="line"/>
      <point x="174" y="-353" type="line"/>
      <point x="68" y="-353" type="line"/>
      <point x="55" y="101" type="line"/>
      <point x="153" y="101" type="line"/>
      <point x="262.333333333" y="215.666666667"/>
      <point x="391.333333333" y="466.666666667"/>
      <point x="414" y="932" type="curve" smooth="yes"/>
      <point x="435" y="1354" type="line"/>
      <point x="277" y="1367" type="line"/>
      <point x="277" y="1456" type="line"/>
      <point x="1406" y="1456" type="line"/>
      <point x="1406" y="1367" type="line"/>
      <point x="1243" y="1354" type="line"/>
      <point x="1243" y="101" type="line"/>
      <point x="1399" y="101" type="line"/>
    </contour>
    <contour>
      <point x="534" y="932" type="line" smooth="yes"/>
      <point x="514.0" y="552.0"/>
      <point x="415.0" y="257.0"/>
      <point x="291" y="101" type="curve"/>
      <point x="1123" y="101" type="line"/>
      <point x="1123" y="1354" type="line"/>
      <point x="555" y="1354" type="line"/>
    </contour>
  </outline>
</glyph>
<glyph name="Ii-cy" format="1">
  <advance width="1562"/>
  <unicode hex="0418"/>
  <outline>
    <contour>
      <point x="522" y="1456" type="line"/>
      <point x="522" y="1367" type="line"/>
      <point x="359" y="1354" type="line"/>
      <point x="359" y="364" type="line"/>
      <point x="365" y="362" type="line"/>
      <point x="1193" y="1238" type="line"/>
      <point x="1193" y="1354" type="line"/>
      <point x="1030" y="1367" type="line"/>
      <point x="1030" y="1456" type="line"/>
      <point x="1193" y="1456" type="line"/>
      <point x="1312" y="1456" type="line"/>
      <point x="1475" y="1456" type="line"/>
      <point x="1475" y="1367" type="line"/>
      <point x="1312" y="1354" type="line"/>
      <point x="1312" y="101" type="line"/>
      <point x="1475" y="88" type="line"/>
      <point x="1475" y="0" type="line"/>
      <point x="1030" y="0" type="line"/>
      <point x="1030" y="88" type="line"/>
      <point x="1193" y="101" type="line"/>
      <point x="1193" y="1082" type="line"/>
      <point x="1187" y="1084" type="line"/>
      <point x="359" y="205" type="line"/>
      <point x="359" y="101" type="line"/>
      <point x="522" y="88" type="line"/>
      <point x="522" y="0" type="line"/>
      <point x="77" y="0" type="line"/>
      <point x="77" y="88" type="line"/>
      <point x="240" y="101" type="line"/>
      <point x="240" y="1354" type="line"/>
      <point x="77" y="1367" type="line"/>
      <point x="77" y="1456" type="line"/>
      <point x="240" y="1456" type="line"/>
      <point x="359" y="1456" type="line"/>
    </contour>
  </outline>
</glyph>
<glyph name="Che-cy" format="1">
  <advance width="1491"/>
  <unicode hex="0427"/>
  <outline>
    <contour>
      <point x="941" y="88" type="line"/>
      <point x="1104" y="101" type="line"/>
      <point x="1104" y="664" type="line"/>
      <point x="969.333333333" y="625.333333333"/>
      <point x="849.0" y="606.0"/>
      <point x="705" y="606" type="curve" smooth="yes"/>
      <point x="385.0" y="606.0"/>
      <point x="222.0" y="737.0"/>
      <point x="222" y="1053" type="curve" smooth="yes"/>
      <point x="222" y="1354" type="line"/>
      <point x="59" y="1367" type="line"/>
      <point x="59" y="1456" type="line"/>
      <point x="504" y="1456" type="line"/>
      <point x="504" y="1367" type="line"/>
      <point x="341" y="1354" type="line"/>
      <point x="341" y="1053" type="line" smooth="yes"/>
      <point x="341.0" y="805.0"/>
      <point x="457.0" y="708.0"/>
      <point x="705" y="708" type="curve" smooth="yes"/>
      <point x="841.0" y="708.0"/>
      <point x="969.333333333" y="727.333333333"/>
      <point x="1104" y="766" type="curve"/>
      <point x="1104" y="1354" type="line"/>
      <point x="941" y="1367" type="line"/>
      <point x="941" y="1456" type="line"/>
      <point x="1387" y="1456" type="line"/>
      <point x="1387" y="1367" type="line"/>
      <point x="1224" y="1354" type="line"/>
      <point x="1224" y="101" type="line"/>
      <point x="1387" y="88" type="line"/>
      <point x="1387" y="0" type="line"/>
      <point x="941" y="0" type="line"/>
    </contour>
  </outline>
</glyph>
<glyph name="Shcha-cy" format="1">
  <advance width="2024"/>
  <unicode hex="0429"/>
  <outline>
    <contour>
      <point x="1930" y="1456" type="line"/>
      <point x="1930" y="1367" type="line"/>
      <point x="1767" y="1354" type="line"/>
      <point x="1767" y="102" type="line"/>
      <point x="1940" y="102" type="line"/>
      <point x="1931" y="-351" type="line"/>
      <point x="1821" y="-351" type="line"/>
      <point x="1821" y="0" type="line"/>
      <point x="77" y="0" type="line"/>
      <point x="77" y="88" type="line"/>
      <point x="240" y="101" type="line"/>
      <point x="240" y="1354" type="line"/>
      <point x="77" y="1367" type="line"/>
      <point x="77" y="1456" type="line"/>
      <point x="523" y="1456" type="line"/>
      <point x="523" y="1367" type="line"/>
      <point x="360" y="1354" type="line"/>
      <point x="360" y="101" type="line"/>
      <point x="944" y="101" type="line"/>
      <point x="944" y="1354" type="line"/>
      <point x="781" y="1367" type="line"/>
      <point x="781" y="1456" type="line"/>
      <point x="1227" y="1456" type="line"/>
      <point x="1227" y="1367" type="line"/>
      <point x="1064" y="1354" type="line"/>
      <point x="1064" y="101" type="line"/>
      <point x="1648" y="101" type="line"/>
      <point x="1648" y="1354" type="line"/>
      <point x="1485" y="1367" type="line"/>
      <point x="1485" y="1456" type="line"/>
    </contour>
  </outline>
</glyph>
<glyph name="Ia-cy" format="1">
  <advance width="1372"/>
  <unicode hex="042F"/>
  <outline>
    <contour>
      <point x="1280" y="88" type="line"/>
      <point x="1117" y="101" type="line"/>
      <point x="1117" y="1354" type="line"/>
      <point x="1280" y="1367" type="line"/>
      <point x="1280" y="1456" type="line"/>
      <point x="672" y="1456" type="line" smooth="yes"/>
      <point x="364.0" y="1456.0"/>
      <point x="179.0" y="1300.33333333"/>
      <point x="179" y="1023" type="curve" smooth="yes"/>
      <point x="179.0" y="829.666666667"/>
      <point x="285.666666667" y="699.333333333"/>
      <point x="487" y="638" type="curve"/>
      <point x="490" y="636" type="line"/>
      <point x="291" y="232" type="line" smooth="yes"/>
      <point x="245.666666667" y="138.666666667"/>
      <point x="200.333333333" y="101.0"/>
      <point x="139" y="101" type="curve" smooth="yes"/>
      <point x="116.333333333" y="101.0"/>
      <point x="95.3333333333" y="105.666666667"/>
      <point x="78" y="115" type="curve"/>
      <point x="52" y="25" type="line"/>
      <point x="82.6666666667" y="2.33333333333"/>
      <point x="114.666666667" y="-8.0"/>
      <point x="156" y="-8" type="curve" smooth="yes"/>
      <point x="245.333333333" y="-8.0"/>
      <point x="325.333333333" y="45.6666666667"/>
      <point x="384" y="171" type="curve" smooth="yes"/>
      <point x="587" y="606" type="line"/>
      <point x="996" y="606" type="line"/>
      <point x="996" y="101" type="line"/>
      <point x="833" y="88" type="line"/>
      <point x="833" y="0" type="line"/>
      <point x="1280" y="0" type="line"/>
    </contour>
    <contour>
      <point x="672" y="1354" type="curve" smooth="yes"/>
      <point x="996" y="1354" type="line"/>
      <point x="996" y="709" type="line"/>
      <point x="638" y="709" type="line" smooth="yes"/>
      <point x="424.666666667" y="709.0"/>
      <point x="299.0" y="834.333333333"/>
      <point x="299" y="1025" type="curve" smooth="yes"/>
      <point x="299.0" y="1234.33333333"/>
      <point x="426.666666667" y="1354.0"/>
    </contour>
  </outline>
</glyph>
<glyph name="be-cy" format="1">
  <advance width="1162"/>
  <unicode hex="0431"/>
  <outline>
    <contour>
      <point x="601" y="1010" type="curve" smooth="yes"/>
      <point x="879.6666666666665" y="1010.0"/>
      <point x="1063.0" y="808.6666666666665"/>
      <point x="1063" y="526" type="curve" smooth="yes"/>
      <point x="1063" y="493" type="line" smooth="yes"/>
      <point x="1063.0" y="191.66666666666674"/>
      <point x="873.0" y="-21.0"/>
      <point x="585" y="-21" type="curve" smooth="yes"/>
      <point x="295.66666666666674" y="-21.0"/>
      <point x="106.0" y="191.66666666666674"/>
      <point x="106" y="493" type="curve" smooth="yes"/>
      <point x="106" y="650" type="line" smooth="yes"/>
      <point x="106.0" y="1068.6666666666665"/>
      <point x="292.33333333333337" y="1333.0"/>
      <point x="591" y="1381" type="curve" smooth="yes"/>
      <point x="792.3333333333333" y="1411.6666666666665"/>
      <point x="867.0" y="1455.6666666666665"/>
      <point x="867" y="1553" type="curve"/>
      <point x="961" y="1553" type="line"/>
      <point x="963" y="1547" type="line"/>
      <point x="968.3333333333333" y="1365.6666666666665"/>
      <point x="850.6666666666667" y="1305.6666666666665"/>
      <point x="616" y="1275" type="curve" smooth="yes"/>
      <point x="409.33333333333326" y="1249.6666666666665"/>
      <point x="255.0" y="1096.0"/>
      <point x="227" y="840" type="curve"/>
      <point x="231" y="835" type="line"/>
      <point x="308.33333333333337" y="940.3333333333333"/>
      <point x="445.0" y="1010.0"/>
    </contour>
    <contour>
      <point x="583" y="909" type="curve" smooth="yes"/>
      <point x="359.0" y="909.0"/>
      <point x="225.0" y="738.0"/>
      <point x="225" y="526" type="curve" smooth="yes"/>
      <point x="225" y="493" type="line" smooth="yes"/>
      <point x="225.0" y="259.6666666666667"/>
      <point x="358.33333333333337" y="80.0"/>
      <point x="585" y="80" type="curve" smooth="yes"/>
      <point x="807.6666666666667" y="80.0"/>
      <point x="943.0" y="259.66666666666674"/>
      <point x="943" y="493" type="curve" smooth="yes"/>
      <point x="943" y="526" type="line" smooth="yes"/>
      <point x="943.0" y="739.3333333333333"/>
      <point x="807.0" y="909.0"/>
    </contour>
  </outline>
</glyph>
<glyph name="ge-cy" format="1">
  <advance width="1050"/>
  <unicode hex="0433"/>
  <outline>
    <contour>
      <point x="235" y="980" type="line"/>
      <point x="72" y="993" type="line"/>
      <point x="72" y="1082" type="line"/>
      <point x="917" y="1082" type="line"/>
      <point x="917" y="849" type="line"/>
      <point x="829" y="849" type="line"/>
      <point x="820" y="979" type="line"/>
      <point x="354" y="979" type="line"/>
      <point x="354" y="101" type="line"/>
      <point x="517" y="88" type="line"/>
      <point x="517" y="0" type="line"/>
      <point x="72" y="0" type="line"/>
      <point x="72" y="88" type="line"/>
      <point x="235" y="101" type="line"/>
    </contour>
  </outline>
</glyph>
<glyph name="de-cy" format="1">
  <advance width="1277"/>
  <unicode hex="0434"/>
  <outline>
    <contour>
      <point x="144.0" y="101.0" type="line"/>
      <point x="259.0" y="245.0"/>
      <point x="328.0" y="364.0"/>
      <point x="343.0" y="691.0" type="curve" smooth="yes"/>
      <point x="356.0" y="980.0" type="line"/>
      <point x="198.0" y="993.0" type="line"/>
      <point x="198.0" y="1082.0" type="line"/>
      <point x="1041.0" y="1082.0" type="line"/>
      <point x="1163.0" y="1082.0" type="line"/>
      <point x="1163.0" y="993.0" type="line"/>
      <point x="1000.0" y="980.0" type="line"/>
      <point x="1000.0" y="101.0" type="line"/>
      <point x="1112.0" y="101.0" type="line"/>
      <point x="1103.0" y="-318.0" type="line"/>
      <point x="993.0" y="-318.0" type="line"/>
      <point x="993.0" y="0.0" type="line"/>
      <point x="180.0" y="0.0" type="line"/>
      <point x="180.0" y="-318.0" type="line"/>
      <point x="74.0" y="-318.0" type="line"/>
      <point x="66.0" y="101.0" type="line"/>
    </contour>
    <contour>
      <point x="462" y="691" type="line" smooth="yes"/>
      <point x="450.0" y="408.3333333333335"/>
      <point x="382.0" y="223.66666666666663"/>
      <point x="282" y="101" type="curve"/>
      <point x="880" y="101" type="line"/>
      <point x="880" y="970" type="line"/>
      <point x="475" y="970" type="line"/>
    </contour>
  </outline>
</glyph>
<glyph name="en-cy" format="1">
  <advance width="1371"/>
  <unicode hex="043D"/>
  <outline>
    <contour>
      <point x="97" y="993" type="line"/>
      <point x="97" y="1082" type="line"/>
      <point x="542" y="1082" type="line"/>
      <point x="542" y="993" type="line"/>
      <point x="379" y="980" type="line"/>
      <point x="379" y="597" type="line"/>
      <point x="962" y="597" type="line"/>
      <point x="962" y="980" type="line"/>
      <point x="799" y="993" type="line"/>
      <point x="799" y="1082" type="line"/>
      <point x="962" y="1082" type="line"/>
      <point x="1082" y="1082" type="line"/>
      <point x="1245" y="1082" type="line"/>
      <point x="1245" y="993" type="line"/>
      <point x="1082" y="980" type="line"/>
      <point x="1082" y="101" type="line"/>
      <point x="1245" y="88" type="line"/>
      <point x="1245" y="0" type="line"/>
      <point x="799" y="0" type="line"/>
      <point x="799" y="88" type="line"/>
      <point x="962" y="101" type="line"/>
      <point x="962" y="496" type="line"/>
      <point x="379" y="496" type="line"/>
      <point x="379" y="101" type="line"/>
      <point x="542" y="88" type="line"/>
      <point x="542" y="0" type="line"/>
      <point x="97" y="0" type="line"/>
      <point x="97" y="88" type="line"/>
      <point x="260" y="101" type="line"/>
      <point x="260" y="980" type="line"/>
    </contour>
  </outline>
</glyph>
<glyph name="te-cy" format="1">
  <advance width="1130"/>
  <unicode hex="0442"/>
  <outline>
    <contour>
      <point x="1031" y="1082" type="line"/>
      <point x="1031" y="775" type="line"/>
      <point x="925" y="775" type="line"/>
      <point x="916" y="980" type="line"/>
      <point x="610" y="980" type="line"/>
      <point x="610" y="101" type="line"/>
      <point x="773" y="88" type="line"/>
      <point x="773" y="0" type="line"/>
      <point x="328" y="0" type="line"/>
      <point x="328" y="88" type="line"/>
      <point x="491" y="101" type="line"/>
      <point x="491" y="980" type="line"/>
      <point x="199" y="980" type="line"/>
      <point x="191" y="775" type="line"/>
      <point x="84" y="775" type="line"/>
      <point x="84" y="1082" type="line"/>
    </contour>
  </outline>
</glyph>
<glyph name="hardsign-cy" format="1">
  <advance width="1413"/>
  <unicode hex="044A"/>
  <outline>
    <contour>
      <point x="178" y="980" type="line"/>
      <point x="170" y="776" type="line"/>
      <point x="63" y="776" type="line"/>
      <point x="63" y="1082" type="line"/>
      <point x="753" y="1082" type="line"/>
      <point x="753" y="993" type="line"/>
      <point x="590" y="980" type="line"/>
      <point x="590" y="689" type="line"/>
      <point x="900" y="689" type="line" smooth="yes"/>
      <point x="1148.0" y="689.0"/>
      <point x="1296.0" y="548.666666667"/>
      <point x="1296" y="346" type="curve" smooth="yes"/>
      <point x="1296.0" y="142.0"/>
      <point x="1148.0" y="0.0"/>
      <point x="900" y="0" type="curve" smooth="yes"/>
      <point x="308" y="0" type="line"/>
      <point x="308" y="88" type="line"/>
      <point x="471" y="101" type="line"/>
      <point x="471" y="980" type="line"/>
    </contour>
    <contour>
      <point x="590" y="587" type="line"/>
      <point x="590" y="101" type="line"/>
      <point x="900" y="101" type="line" smooth="yes"/>
      <point x="1085.33333333" y="101.0"/>
      <point x="1176.0" y="205.333333333"/>
      <point x="1176" y="344" type="curve" smooth="yes"/>
      <point x="1176.0" y="477.333333333"/>
      <point x="1084.0" y="587.0"/>
      <point x="900" y="587" type="curve" smooth="yes"/>
    </contour>
  </outline>
</glyph>
<glyph name="yeru-cy" format="1">
  <advance width="1625"/>
  <unicode hex="044B"/>
  <outline>
    <contour>
      <point x="379" y="1082" type="line"/>
      <point x="379" y="689" type="line"/>
      <point x="689" y="689" type="line" smooth="yes"/>
      <point x="937.0" y="689.0"/>
      <point x="1085.0" y="548.666666667"/>
      <point x="1085" y="346" type="curve" smooth="yes"/>
      <point x="1085.0" y="142.0"/>
      <point x="937.0" y="0.0"/>
      <point x="689" y="0" type="curve" smooth="yes"/>
      <point x="97" y="0" type="line"/>
      <point x="97" y="88" type="line"/>
      <point x="260" y="101" type="line"/>
      <point x="260" y="980" type="line"/>
      <point x="97" y="993" type="line"/>
      <point x="97" y="1082" type="line"/>
      <point x="260" y="1082" type="line"/>
    </contour>
    <contour>
      <point x="1139" y="993" type="line"/>
      <point x="1139" y="1082" type="line"/>
      <point x="1421" y="1082" type="line"/>
      <point x="1421" y="101" type="line"/>
      <point x="1584" y="88" type="line"/>
      <point x="1584" y="0" type="line"/>
      <point x="1139" y="0" type="line"/>
      <point x="1139" y="88" type="line"/>
      <point x="1302" y="101" type="line"/>
      <point x="1302" y="980" type="line"/>
    </contour>
    <contour>
      <point x="379" y="587" type="line"/>
      <point x="379" y="101" type="line"/>
      <point x="689" y="101" type="line" smooth="yes"/>
      <point x="874.333333333" y="101.0"/>
      <point x="965.0" y="205.333333333"/>
      <point x="965" y="344" type="curve" smooth="yes"/>
      <point x="965.0" y="477.333333333"/>
      <point x="873.0" y="587.0"/>
      <point x="689" y="587" type="curve" smooth="yes"/>
    </contour>
    <contour>
      <point x="542" y="1082" type="line"/>
      <point x="542" y="993" type="line"/>
      <point x="379" y="980" type="line"/>
      <point x="379" y="1082" type="line"/>
    </contour>
  </outline>
</glyph>
<glyph name="softsign-cy" format="1">
  <advance width="1191"/>
  <unicode hex="044C"/>
  <outline>
    <contour>
      <point x="379" y="1082" type="line"/>
      <point x="379" y="689" type="line"/>
      <point x="689" y="689" type="line" smooth="yes"/>
      <point x="937.0" y="689.0"/>
      <point x="1085.0" y="548.6666666666666"/>
      <point x="1085" y="346" type="curve" smooth="yes"/>
      <point x="1085.0" y="141.99999999999994"/>
      <point x="937.0" y="0.0"/>
      <point x="689" y="0" type="curve" smooth="yes"/>
      <point x="97" y="0" type="line"/>
      <point x="97" y="88" type="line"/>
      <point x="260" y="101" type="line"/>
      <point x="260" y="980" type="line"/>
      <point x="97" y="993" type="line"/>
      <point x="97" y="1082" type="line"/>
      <point x="260" y="1082" type="line"/>
    </contour>
    <contour>
      <point x="379" y="587" type="line"/>
      <point x="379" y="101" type="line"/>
      <point x="689" y="101" type="line" smooth="yes"/>
      <point x="874.3333333333333" y="101.0"/>
      <point x="965.0" y="205.33333333333337"/>
      <point x="965" y="344" type="curve" smooth="yes"/>
      <point x="965.0" y="477.3333333333332"/>
      <point x="873.0000000000001" y="587.0"/>
      <point x="689" y="587" type="curve" smooth="yes"/>
    </contour>
    <contour>
      <point x="542" y="1082" type="line"/>
      <point x="542" y="993" type="line"/>
      <point x="379" y="980" type="line"/>
      <point x="379" y="1082" type="line"/>
    </contour>
  </outline>
</glyph>
<glyph name="ereversed-cy" format="1">
  <advance width="1077"/>
  <unicode hex="044D"/>
  <outline>
    <contour>
      <point x="530" y="80" type="curve" smooth="yes"/>
      <point x="754.0" y="80.0"/>
      <point x="864.0" y="252.33333333333331"/>
      <point x="868" y="491" type="curve"/>
      <point x="865" y="496" type="line"/>
      <point x="371" y="496" type="line"/>
      <point x="371" y="597" type="line"/>
      <point x="864" y="597" type="line"/>
      <point x="866" y="602" type="line"/>
      <point x="860.6666666666667" y="830.0"/>
      <point x="749.6666666666667" y="1000.0"/>
      <point x="531" y="1000" type="curve" smooth="yes"/>
      <point x="408.33333333333337" y="1000.0"/>
      <point x="310.33333333333337" y="955.0"/>
      <point x="249" y="883" type="curve"/>
      <point x="229" y="691" type="line"/>
      <point x="128" y="691" type="line"/>
      <point x="132" y="927" type="line"/>
      <point x="218.66666666666657" y="1035.0"/>
      <point x="361.66666666666663" y="1102.0"/>
      <point x="531" y="1102" type="curve" smooth="yes"/>
      <point x="821.6666666666666" y="1102.0"/>
      <point x="991.0" y="876.6666666666664"/>
      <point x="991" y="562" type="curve" smooth="yes"/>
      <point x="991" y="520" type="line" smooth="yes"/>
      <point x="991.0" y="202.66666666666674"/>
      <point x="822.0" y="-21.0"/>
      <point x="530" y="-21" type="curve" smooth="yes"/>
      <point x="308.66666666666674" y="-21.0"/>
      <point x="113.0" y="131.0"/>
      <point x="121" y="331" type="curve"/>
      <point x="123" y="337" type="line"/>
      <point x="228" y="337" type="line"/>
      <point x="228.0" y="175.66666666666674"/>
      <point x="370.0" y="80.0"/>
    </contour>
  </outline>
</glyph>
<glyph name="iu-cy" format="1">
  <advance width="1735"/>
  <unicode hex="044E"/>
  <outline>
    <contour>
      <point x="81" y="88" type="line"/>
      <point x="244" y="101" type="line"/>
      <point x="244" y="980" type="line"/>
      <point x="81" y="993" type="line"/>
      <point x="81" y="1082" type="line"/>
      <point x="363" y="1082" type="line"/>
      <point x="363" y="589" type="line"/>
      <point x="648" y="589" type="line"/>
      <point x="660.0" y="890.3333333333334"/>
      <point x="847.6666666666669" y="1102.0"/>
      <point x="1125" y="1102" type="curve" smooth="yes"/>
      <point x="1414.3333333333335" y="1102.0"/>
      <point x="1604.0" y="875.6666666666665"/>
      <point x="1604" y="557" type="curve" smooth="yes"/>
      <point x="1604" y="524" type="line" smooth="yes"/>
      <point x="1604.0" y="204.0"/>
      <point x="1415.0" y="-21.0"/>
      <point x="1127" y="-21" type="curve" smooth="yes"/>
      <point x="848.3333333333335" y="-21.0"/>
      <point x="661.3333333333333" y="185.33333333333337"/>
      <point x="648" y="488" type="curve"/>
      <point x="363" y="488" type="line"/>
      <point x="363" y="101" type="line"/>
      <point x="526" y="88" type="line"/>
      <point x="526" y="0" type="line"/>
      <point x="81" y="0" type="line"/>
    </contour>
    <contour>
      <point x="767" y="524" type="line" smooth="yes"/>
      <point x="767.0" y="273.33333333333337"/>
      <point x="900.3333333333333" y="80.0"/>
      <point x="1127" y="80" type="curve" smooth="yes"/>
      <point x="1349.6666666666665" y="80.0"/>
      <point x="1484.0" y="273.3333333333333"/>
      <point x="1484" y="524" type="curve" smooth="yes"/>
      <point x="1484" y="557" type="line" smooth="yes"/>
      <point x="1484.0" y="803.6666666666667"/>
      <point x="1349.0" y="1000.0"/>
      <point x="1125" y="1000" type="curve" smooth="yes"/>
      <point x="901.0" y="1000.0"/>
      <point x="767.0" y="803.6666666666667"/>
      <point x="767" y="557" type="curve" smooth="yes"/>
    </contour>
  </outline>
</glyph>
<glyph name="ia-cy" format="1">
  <advance width="1275"/>
  <unicode hex="044F"/>
  <outline>
    <contour>
      <point x="706" y="88" type="line"/>
      <point x="869" y="101" type="line"/>
      <point x="869" y="436" type="line"/>
      <point x="532" y="436" type="line"/>
      <point x="268" y="0" type="line"/>
      <point x="65" y="0" type="line"/>
      <point x="65" y="88" type="line"/>
      <point x="195" y="98" type="line"/>
      <point x="409" y="450" type="line"/>
      <point x="259.666666667" y="490.0"/>
      <point x="175.0" y="605.666666667"/>
      <point x="175" y="759" type="curve" smooth="yes"/>
      <point x="175.0" y="948.333333333"/>
      <point x="319.0" y="1082.0"/>
      <point x="563" y="1082" type="curve" smooth="yes"/>
      <point x="1152" y="1082" type="line"/>
      <point x="1152" y="993" type="line"/>
      <point x="989" y="980" type="line"/>
      <point x="989" y="101" type="line"/>
      <point x="1152" y="88" type="line"/>
      <point x="1152" y="0" type="line"/>
      <point x="706" y="0" type="line"/>
    </contour>
    <contour>
      <point x="295" y="757" type="curve" smooth="yes"/>
      <point x="295.0" y="634.333333333"/>
      <point x="372.666666667" y="538.0"/>
      <point x="530" y="538" type="curve" smooth="yes"/>
      <point x="869" y="538" type="line"/>
      <point x="869" y="980" type="line"/>
      <point x="563" y="980" type="line" smooth="yes"/>
      <point x="384.333333333" y="980.0"/>
      <point x="295.0" y="882.333333333"/>
    </contour>
  </outline>
</glyph>
<glyph name="lje-cy" format="1">
  <advance width="1790"/>
  <unicode hex="0459"/>
  <outline>
    <contour>
      <point x="437" y="979" type="line"/>
      <point x="437" y="604" type="line" smooth="yes"/>
      <point x="437.0" y="181.333333333"/>
      <point x="344.0" y="0.0"/>
      <point x="108" y="0" type="curve" smooth="yes"/>
      <point x="65" y="0" type="line"/>
      <point x="66" y="103" type="line"/>
      <point x="104" y="103" type="line" smooth="yes"/>
      <point x="250.666666667" y="103.0"/>
      <point x="317.0" y="238.666666667"/>
      <point x="317" y="604" type="curve" smooth="yes"/>
      <point x="317" y="980" type="line"/>
      <point x="154" y="993" type="line"/>
      <point x="154" y="1082" type="line"/>
      <point x="998" y="1082" type="line"/>
      <point x="1161" y="1082" type="line"/>
      <point x="1161" y="993" type="line"/>
      <point x="998" y="980" type="line"/>
      <point x="998" y="649" type="line"/>
      <point x="1308" y="649" type="line" smooth="yes"/>
      <point x="1557.33333333" y="649.0"/>
      <point x="1704.0" y="516.666666667"/>
      <point x="1704" y="326" type="curve" smooth="yes"/>
      <point x="1704.0" y="134.0"/>
      <point x="1557.33333333" y="0.0"/>
      <point x="1308" y="0" type="curve" smooth="yes"/>
      <point x="715" y="0" type="line"/>
      <point x="715" y="88" type="line"/>
      <point x="878" y="101" type="line"/>
      <point x="878" y="979" type="line"/>
    </contour>
    <contour>
      <point x="998" y="548" type="line"/>
      <point x="998" y="100" type="line"/>
      <point x="1308" y="100" type="line" smooth="yes"/>
      <point x="1493.33333333" y="100.0"/>
      <point x="1584.0" y="200.0"/>
      <point x="1584" y="328" type="curve" smooth="yes"/>
      <point x="1584.0" y="450.666666667"/>
      <point x="1493.33333333" y="548.0"/>
      <point x="1308" y="548" type="curve" smooth="yes"/>
    </contour>
  </outline>
</glyph>
<glyph name="tshe-cy" format="1">
  <advance width="1298"/>
  <unicode hex="045B"/>
  <outline>
    <contour>
      <point x="62" y="88" type="line"/>
      <point x="225" y="101" type="line"/>
      <point x="225" y="1224" type="line"/>
      <point x="31" y="1224" type="line"/>
      <point x="31" y="1326" type="line"/>
      <point x="225" y="1326" type="line"/>
      <point x="225" y="1458" type="line"/>
      <point x="62" y="1471" type="line"/>
      <point x="62" y="1560" type="line"/>
      <point x="344" y="1560" type="line"/>
      <point x="344" y="1326" type="line"/>
      <point x="643" y="1326" type="line"/>
      <point x="643" y="1224" type="line"/>
      <point x="344" y="1224" type="line"/>
      <point x="344" y="897" type="line"/>
      <point x="416.0" y="1026.33333333"/>
      <point x="538.0" y="1102.0"/>
      <point x="698" y="1102" type="curve" smooth="yes"/>
      <point x="926.0" y="1102.0"/>
      <point x="1052.0" y="964.333333333"/>
      <point x="1052" y="667" type="curve" smooth="yes"/>
      <point x="1052" y="101" type="line"/>
      <point x="1215" y="88" type="line"/>
      <point x="1215" y="0" type="line"/>
      <point x="769" y="0" type="line"/>
      <point x="769" y="88" type="line"/>
      <point x="932" y="101" type="line"/>
      <point x="932" y="669" type="line" smooth="yes"/>
      <point x="932.0" y="903.666666667"/>
      <point x="833.666666667" y="998.0"/>
      <point x="671" y="998" type="curve" smooth="yes"/>
      <point x="507.0" y="998.0"/>
      <point x="396.0" y="904.666666667"/>
      <point x="344" y="762" type="curve"/>
      <point x="344" y="101" type="line"/>
      <point x="507" y="88" type="line"/>
      <point x="507" y="0" type="line"/>
      <point x="62" y="0" type="line"/>
    </contour>
  </outline>
</glyph>
<glyph name="omega-cy" format="1">
  <advance width="1619"/>
  <unicode hex="0461"/>
  <outline>
    <contour>
      <point x="1500" y="1082" type="line"/>
      <point x="1500" y="382" type="line" smooth="yes"/>
      <point x="1500.0" y="119.33333333333337"/>
      <point x="1351.6666666666665" y="-21.0"/>
      <point x="1133" y="-21" type="curve" smooth="yes"/>
      <point x="990.3333333333335" y="-21.0"/>
      <point x="878.6666666666667" y="43.0"/>
      <point x="824" y="167" type="curve"/>
      <point x="765.3333333333333" y="43.0"/>
      <point x="650.6666666666667" y="-21.0"/>
      <point x="508" y="-21" type="curve" smooth="yes"/>
      <point x="292.0" y="-21.0"/>
      <point x="150.0" y="119.33333333333337"/>
      <point x="150" y="382" type="curve" smooth="yes"/>
      <point x="150" y="1082" type="line"/>
      <point x="269" y="1082" type="line"/>
      <point x="269" y="382" type="line" smooth="yes"/>
      <point x="269.0" y="188.66666666666674"/>
      <point x="365.33333333333337" y="80.0"/>
      <point x="508" y="80" type="curve" smooth="yes"/>
      <point x="660.0" y="80.0"/>
      <point x="765.0" y="188.66666666666674"/>
      <point x="765" y="382" type="curve" smooth="yes"/>
      <point x="765" y="1082" type="line"/>
      <point x="885" y="1082" type="line"/>
      <point x="885" y="382" type="line" smooth="yes"/>
      <point x="885.0" y="188.66666666666674"/>
      <point x="985.0" y="80.0"/>
      <point x="1133" y="80" type="curve" smooth="yes"/>
      <point x="1279.6666666666665" y="80.0"/>
      <point x="1380.0" y="188.66666666666674"/>
      <point x="1380" y="382" type="curve" smooth="yes"/>
      <point x="1380" y="1082" type="line"/>
    </contour>
  </outline>
</glyph>
<glyph name="yat-cy" format="1">
  <advance width="1137"/>
  <unicode hex="0463"/>
  <outline>
    <contour>
      <point x="339" y="1183" type="line"/>
      <point x="665" y="1183" type="line"/>
      <point x="665" y="1082" type="line"/>
      <point x="339" y="1082" type="line"/>
      <point x="339" y="707" type="line"/>
      <point x="649" y="707" type="line" smooth="yes"/>
      <point x="898.3333333333333" y="707.0"/>
      <point x="1045.0" y="563.0"/>
      <point x="1045" y="355" type="curve" smooth="yes"/>
      <point x="1045.0" y="145.66666666666669"/>
      <point x="898.3333333333333" y="0.0"/>
      <point x="649" y="0" type="curve" smooth="yes"/>
      <point x="57" y="0" type="line"/>
      <point x="57" y="88" type="line"/>
      <point x="220" y="101" type="line"/>
      <point x="220" y="1082" type="line"/>
      <point x="21" y="1082" type="line"/>
      <point x="21" y="1183" type="line"/>
      <point x="220" y="1183" type="line"/>
      <point x="220" y="1459" type="line"/>
      <point x="57" y="1472" type="line"/>
      <point x="57" y="1561" type="line"/>
      <point x="339" y="1561" type="line"/>
    </contour>
    <contour>
      <point x="339" y="605" type="line"/>
      <point x="339" y="101" type="line"/>
      <point x="649" y="101" type="line" smooth="yes"/>
      <point x="834.3333333333333" y="101.0"/>
      <point x="925.0" y="209.0"/>
      <point x="925" y="353" type="curve" smooth="yes"/>
      <point x="925.0" y="491.66666666666663"/>
      <point x="833.0" y="605.0"/>
      <point x="649" y="605" type="curve" smooth="yes"/>
    </contour>
  </outline>
</glyph>
<glyph name="eiotified-cy" format="1">
  <advance width="1589"/>
  <unicode hex="0465"/>
  <outline>
    <contour>
      <point x="370" y="601" type="line"/>
      <point x="599" y="601" type="line"/>
      <point x="612.3333333333333" y="895.6666666666664"/>
      <point x="778.9999999999999" y="1102.0"/>
      <point x="1059" y="1102" type="curve" smooth="yes"/>
      <point x="1225.6666666666665" y="1102.0"/>
      <point x="1370.3333333333335" y="1035.0"/>
      <point x="1457" y="927" type="curve"/>
      <point x="1462" y="691" type="line"/>
      <point x="1360" y="691" type="line"/>
      <point x="1341" y="883" type="line"/>
      <point x="1277.0" y="955.0"/>
      <point x="1180.3333333333335" y="1000.0"/>
      <point x="1059" y="1000" type="curve" smooth="yes"/>
      <point x="839.0" y="1000.0"/>
      <point x="729.3333333333333" y="832.6666666666667"/>
      <point x="724" y="606" type="curve"/>
      <point x="726" y="601" type="line"/>
      <point x="1197" y="601" type="line"/>
      <point x="1197" y="500" type="line"/>
      <point x="725" y="500" type="line"/>
      <point x="722" y="495" type="line"/>
      <point x="722.0" y="255.0"/>
      <point x="832.0" y="80.0"/>
      <point x="1060" y="80" type="curve" smooth="yes"/>
      <point x="1218.6666666666665" y="80.0"/>
      <point x="1361.0" y="175.66666666666674"/>
      <point x="1361" y="337" type="curve"/>
      <point x="1467" y="337" type="line"/>
      <point x="1469" y="331" type="line"/>
      <point x="1475.6666666666665" y="130.99999999999994"/>
      <point x="1280.0" y="-21.0"/>
      <point x="1060" y="-21" type="curve" smooth="yes"/>
      <point x="772.0" y="-21.0"/>
      <point x="604.6666666666667" y="192.0"/>
      <point x="598" y="500" type="curve"/>
      <point x="370" y="500" type="line"/>
      <point x="370" y="101" type="line"/>
      <point x="533" y="88" type="line"/>
      <point x="533" y="0" type="line"/>
      <point x="88" y="0" type="line"/>
      <point x="88" y="88" type="line"/>
      <point x="251" y="101" type="line"/>
      <point x="251" y="980" type="line"/>
      <point x="88" y="993" type="line"/>
      <point x="88" y="1082" type="line"/>
      <point x="251" y="1082" type="line"/>
      <point x="370" y="1082" type="line"/>
    </contour>
  </outline>
</glyph>
<glyph name="Yuslittleiotified-cy" format="1">
  <advance width="1966"/>
  <unicode hex="0468"/>
  <outline>
    <contour>
      <point x="510" y="1456" type="line"/>
      <point x="510" y="1367" type="line"/>
      <point x="347" y="1354" type="line"/>
      <point x="347" y="590" type="line"/>
      <point x="878" y="590" type="line"/>
      <point x="1196" y="1456" type="line"/>
      <point x="1309" y="1456" type="line"/>
      <point x="1805" y="96" type="line"/>
      <point x="1912" y="88" type="line"/>
      <point x="1912" y="0" type="line"/>
      <point x="1553" y="0" type="line"/>
      <point x="1553" y="88" type="line"/>
      <point x="1681" y="98" type="line"/>
      <point x="1542" y="484" type="line"/>
      <point x="1305" y="484" type="line"/>
      <point x="1305" y="0" type="line"/>
      <point x="1185" y="0" type="line"/>
      <point x="1185" y="484" type="line"/>
      <point x="960" y="484" type="line"/>
      <point x="820" y="98" type="line"/>
      <point x="948" y="88" type="line"/>
      <point x="948" y="0" type="line"/>
      <point x="590" y="0" type="line"/>
      <point x="590" y="88" type="line"/>
      <point x="696" y="96" type="line"/>
      <point x="839" y="484" type="line"/>
      <point x="347" y="484" type="line"/>
      <point x="347" y="101" type="line"/>
      <point x="510" y="88" type="line"/>
      <point x="510" y="0" type="line"/>
      <point x="64" y="0" type="line"/>
      <point x="64" y="88" type="line"/>
      <point x="227" y="101" type="line"/>
      <point x="227" y="1354" type="line"/>
      <point x="64" y="1367" type="line"/>
      <point x="64" y="1456" type="line"/>
      <point x="227" y="1456" type="line"/>
      <point x="347" y="1456" type="line"/>
    </contour>
    <contour>
      <point x="998.0" y="590.0" type="line"/>
      <point x="1504.0" y="590.0" type="line"/>
      <point x="1270.0" y="1247.0" type="line"/>
      <point x="1256.0" y="1285.0" type="line"/>
      <point x="1250.0" y="1285.0" type="line"/>
      <point x="1236.0" y="1245.0" type="line"/>
    </contour>
  </outline>
</glyph>
<glyph name="Yusbigiotified-cy" format="1">
  <advance width="2402"/>
  <unicode hex="046C"/>
  <outline>
    <contour>
      <point x="61" y="88" type="line"/>
      <point x="224" y="101" type="line"/>
      <point x="224" y="1354" type="line"/>
      <point x="61" y="1367" type="line"/>
      <point x="61" y="1456" type="line"/>
      <point x="507" y="1456" type="line"/>
      <point x="507" y="1367" type="line"/>
      <point x="344" y="1354" type="line"/>
      <point x="344" y="780" type="line"/>
      <point x="1306" y="780" type="line"/>
      <point x="937" y="1356" type="line"/>
      <point x="802" y="1367" type="line"/>
      <point x="802" y="1456" type="line"/>
      <point x="2077" y="1456" type="line"/>
      <point x="2077" y="1367" type="line"/>
      <point x="1942" y="1356" type="line"/>
      <point x="1574" y="780" type="line"/>
      <point x="1669" y="780" type="line" smooth="yes"/>
      <point x="1958" y="780"/>
      <point x="2113" y="661"/>
      <point x="2113" y="380" type="curve" smooth="yes"/>
      <point x="2113" y="101" type="line"/>
      <point x="2276" y="88" type="line"/>
      <point x="2276" y="0" type="line"/>
      <point x="1830" y="0" type="line"/>
      <point x="1830" y="88" type="line"/>
      <point x="1993" y="101" type="line"/>
      <point x="1993" y="380" type="line" smooth="yes"/>
      <point x="1993" y="600"/>
      <point x="1896" y="678"/>
      <point x="1669" y="678" type="curve" smooth="yes"/>
      <point x="1509" y="678" type="line"/>
      <point x="1498" y="661" type="line"/>
      <point x="1498" y="101" type="line"/>
      <point x="1661" y="88" type="line"/>
      <point x="1661" y="0" type="line"/>
      <point x="1215" y="0" type="line"/>
      <point x="1215" y="88" type="line"/>
      <point x="1378" y="101" type="line"/>
      <point x="1378" y="667" type="line"/>
      <point x="1371" y="678" type="line"/>
      <point x="1189" y="678" type="line" smooth="yes"/>
      <point x="974" y="673"/>
      <point x="882" y="593"/>
      <point x="882" y="380" type="curve" smooth="yes"/>
      <point x="882" y="101" type="line"/>
      <point x="1045" y="88" type="line"/>
      <point x="1045" y="0" type="line"/>
      <point x="599" y="0" type="line"/>
      <point x="599" y="88" type="line"/>
      <point x="762" y="101" type="line"/>
      <point x="762" y="380" type="line" smooth="yes"/>
      <point x="762" y="515"/>
      <point x="798" y="613"/>
      <point x="867" y="678" type="curve"/>
      <point x="344" y="678" type="line"/>
      <point x="344" y="101" type="line"/>
      <point x="507" y="88" type="line"/>
      <point x="507" y="0" type="line"/>
      <point x="61" y="0" type="line"/>
    </contour>
    <contour>
      <point x="1449.0" y="780.0" type="line"/>
      <point x="1473.0" y="818.0" type="line"/>
      <point x="1804.0" y="1354.0" type="line"/>
      <point x="1076.0" y="1354.0" type="line"/>
      <point x="1409.0" y="814.0" type="line"/>
      <point x="1430.0" y="780.0" type="line"/>
    </contour>
  </outline>
</glyph>
<glyph name="yusbigiotified-cy" format="1">
  <advance width="2113"/>
  <unicode hex="046D"/>
  <outline>
    <contour>
      <point x="57.0" y="88.0" type="line"/>
      <point x="220.0" y="101.0" type="line"/>
      <point x="220.0" y="980.0" type="line"/>
      <point x="57.0" y="993.0" type="line"/>
      <point x="57.0" y="1082.0" type="line"/>
      <point x="339.0" y="1082.0" type="line"/>
      <point x="339.0" y="594.0" type="line"/>
      <point x="1104.0" y="594.0" type="line"/>
      <point x="845.0" y="982.0" type="line"/>
      <point x="707.0" y="993.0" type="line"/>
      <point x="707.0" y="1082.0" type="line"/>
      <point x="1774.0" y="1082.0" type="line"/>
      <point x="1774.0" y="993.0" type="line"/>
      <point x="1636.0" y="982.0" type="line"/>
      <point x="1376.0" y="594.0" type="line"/>
      <point x="1378.0" y="594.0"/>
      <point x="1380.0" y="594.0"/>
      <point x="1382.0" y="594.0" type="curve" smooth="yes"/>
      <point x="1655.0" y="592.0"/>
      <point x="1802.0" y="473.0"/>
      <point x="1802.0" y="195.0" type="curve" smooth="yes"/>
      <point x="1802.0" y="101.0" type="line"/>
      <point x="1947.0" y="88.0" type="line"/>
      <point x="1947.0" y="0.0" type="line"/>
      <point x="1682.0" y="0.0" type="line"/>
      <point x="1682.0" y="195.0" type="line" smooth="yes"/>
      <point x="1682.0" y="414.0"/>
      <point x="1589.0" y="492.0"/>
      <point x="1376.0" y="492.0" type="curve" smooth="yes"/>
      <point x="1308.0" y="492.0" type="line"/>
      <point x="1299.0" y="478.0" type="line"/>
      <point x="1299.0" y="101.0" type="line"/>
      <point x="1462.0" y="88.0" type="line"/>
      <point x="1462.0" y="0.0" type="line"/>
      <point x="1016.0" y="0.0" type="line"/>
      <point x="1016.0" y="88.0" type="line"/>
      <point x="1179.0" y="101.0" type="line"/>
      <point x="1179.0" y="482.0" type="line"/>
      <point x="1172.0" y="492.0" type="line"/>
      <point x="1098.0" y="492.0" type="line" smooth="yes"/>
      <point x="883.0" y="492.0"/>
      <point x="792.0" y="414.0"/>
      <point x="792.0" y="195.0" type="curve" smooth="yes"/>
      <point x="792.0" y="0.0" type="line"/>
      <point x="527.0" y="0.0" type="line"/>
      <point x="527.0" y="88.0" type="line"/>
      <point x="672.0" y="101.0" type="line"/>
      <point x="672.0" y="195.0" type="line" smooth="yes"/>
      <point x="672.0" y="330.0"/>
      <point x="705.0" y="427.0"/>
      <point x="772.0" y="492.0" type="curve"/>
      <point x="339.0" y="492.0" type="line"/>
      <point x="339.0" y="101.0" type="line"/>
      <point x="502.0" y="88.0" type="line"/>
      <point x="502.0" y="0.0" type="line"/>
      <point x="57.0" y="0.0" type="line"/>
    </contour>
    <contour>
      <point x="1230" y="594" type="line"/>
      <point x="1251" y="594" type="line"/>
      <point x="1499" y="979" type="line"/>
      <point x="982" y="979" type="line"/>
    </contour>
  </outline>
</glyph>
<glyph name="ksi-cy" format="1">
  <advance width="943"/>
  <unicode hex="046F"/>
  <outline>
    <contour>
      <point x="391" y="596" type="line" smooth="yes"/>
      <point x="612.333333333" y="596.0"/>
      <point x="716.0" y="671.333333333"/>
      <point x="716" y="798" type="curve" smooth="yes"/>
      <point x="716.0" y="906.0"/>
      <point x="618.666666667" y="983.666666667"/>
      <point x="428" y="985" type="curve" smooth="yes"/>
      <point x="314.666666667" y="985.0"/>
      <point x="225.333333333" y="946.666666667"/>
      <point x="168" y="888" type="curve"/>
      <point x="162" y="744" type="line"/>
      <point x="61" y="744" type="line"/>
      <point x="61" y="932" type="line"/>
      <point x="139.666666667" y="1026.66666667"/>
      <point x="272.0" y="1086.0"/>
      <point x="428" y="1086" type="curve" smooth="yes"/>
      <point x="674.666666667" y="1086.0"/>
      <point x="836.0" y="975.333333333"/>
      <point x="836" y="794" type="curve" smooth="yes"/>
      <point x="836.0" y="688.666666667"/>
      <point x="758.0" y="596.0"/>
      <point x="626" y="548" type="curve"/>
      <point x="778.0" y="508.0"/>
      <point x="858.0" y="422.666666667"/>
      <point x="858" y="300" type="curve" smooth="yes"/>
      <point x="858.0" y="106.666666667"/>
      <point x="668.333333333" y="-9.0"/>
      <point x="407" y="-9" type="curve" smooth="yes"/>
      <point x="362" y="-9" type="line" smooth="yes"/>
      <point x="240.666666667" y="-9.0"/>
      <point x="191.0" y="-53.0"/>
      <point x="191" y="-137" type="curve" smooth="yes"/>
      <point x="191.0" y="-223.666666667"/>
      <point x="278.0" y="-291.333333333"/>
      <point x="362" y="-322" type="curve"/>
      <point x="317" y="-409" type="line"/>
      <point x="194.333333333" y="-365.0"/>
      <point x="76.0" y="-258.333333333"/>
      <point x="76" y="-133" type="curve" smooth="yes"/>
      <point x="76.0" y="11.0"/>
      <point x="175.333333333" y="92.0"/>
      <point x="366" y="92" type="curve" smooth="yes"/>
      <point x="407" y="92" type="line" smooth="yes"/>
      <point x="609.666666667" y="92.0"/>
      <point x="738.0" y="169.333333333"/>
      <point x="738" y="296" type="curve" smooth="yes"/>
      <point x="738.0" y="430.666666667"/>
      <point x="620.333333333" y="493.0"/>
      <point x="391" y="493" type="curve" smooth="yes"/>
      <point x="259" y="493" type="line"/>
      <point x="259" y="596" type="line"/>
    </contour>
    <contour>
      <point x="430" y="1387" type="line"/>
      <point x="597" y="1556" type="line"/>
      <point x="712" y="1556" type="line"/>
      <point x="712" y="1539" type="line"/>
      <point x="479" y="1314" type="line"/>
      <point x="381" y="1314" type="line"/>
      <point x="150" y="1539" type="line"/>
      <point x="150" y="1556" type="line"/>
      <point x="264" y="1556" type="line"/>
    </contour>
  </outline>
</glyph>
<glyph name="fita-cy" format="1">
  <advance width="1180"/>
  <unicode hex="0473"/>
  <outline>
    <contour>
      <point x="103" y="557" type="line" smooth="yes"/>
      <point x="103.0" y="875.666666667"/>
      <point x="293.0" y="1102.0"/>
      <point x="581" y="1102" type="curve" smooth="yes"/>
      <point x="870.333333333" y="1102.0"/>
      <point x="1060.0" y="875.666666667"/>
      <point x="1060" y="557" type="curve" smooth="yes"/>
      <point x="1060" y="524" type="line" smooth="yes"/>
      <point x="1060.0" y="204.0"/>
      <point x="871.0" y="-21.0"/>
      <point x="583" y="-21" type="curve" smooth="yes"/>
      <point x="292.333333333" y="-21.0"/>
      <point x="103.0" y="204.0"/>
      <point x="103" y="524" type="curve" smooth="yes"/>
    </contour>
    <contour>
      <point x="581" y="1000" type="curve" smooth="yes"/>
      <point x="367.666666667" y="1000.0"/>
      <point x="235.666666667" y="823.0"/>
      <point x="229" y="599" type="curve"/>
      <point x="231" y="594" type="line"/>
      <point x="932" y="594" type="line"/>
      <point x="934" y="599" type="line"/>
      <point x="924.666666667" y="824.333333333"/>
      <point x="793.0" y="1000.0"/>
    </contour>
    <contour>
      <point x="583" y="80" type="curve" smooth="yes"/>
      <point x="795.0" y="80.0"/>
      <point x="927.333333333" y="256.333333333"/>
      <point x="934" y="487" type="curve"/>
      <point x="932" y="492" type="line"/>
      <point x="231" y="492" type="line"/>
      <point x="229" y="487" type="line"/>
      <point x="233.0" y="255.0"/>
      <point x="365.666666667" y="80.0"/>
    </contour>
  </outline>
</glyph>
<glyph name="Izhitsa-cy" format="1">
  <advance width="1387"/>
  <unicode hex="0474"/>
  <outline>
    <contour>
      <point x="421" y="1367" type="line"/>
      <point x="290" y="1356" type="line"/>
      <point x="642" y="255" type="line"/>
      <point x="671" y="154" type="line"/>
      <point x="677" y="154" type="line"/>
      <point x="706" y="255" type="line"/>
      <point x="1013" y="1208" type="line" smooth="yes"/>
      <point x="1071.6666666666665" y="1401.3333333333335"/>
      <point x="1158.0" y="1476.0"/>
      <point x="1302" y="1476" type="curve" smooth="yes"/>
      <point x="1330" y="1475" type="line"/>
      <point x="1329" y="1370" type="line"/>
      <point x="1318" y="1370" type="line" smooth="yes"/>
      <point x="1231.3333333333335" y="1370.0"/>
      <point x="1170.0" y="1333.3333333333335"/>
      <point x="1122" y="1184" type="curve" smooth="yes"/>
      <point x="730" y="0" type="line"/>
      <point x="618" y="0" type="line"/>
      <point x="160" y="1359" type="line"/>
      <point x="57" y="1367" type="line"/>
      <point x="57" y="1456" type="line"/>
      <point x="421" y="1456" type="line"/>
    </contour>
  </outline>
</glyph>
<glyph name="izhitsa-cy" format="1">
  <advance width="1183"/>
  <unicode hex="0475"/>
  <outline>
    <contour>
      <point x="423" y="993" type="line"/>
      <point x="292" y="982" type="line"/>
      <point x="526" y="271" type="line"/>
      <point x="561" y="144" type="line"/>
      <point x="567" y="144" type="line"/>
      <point x="605" y="271" type="line"/>
      <point x="791" y="864" type="line" smooth="yes"/>
      <point x="847.0" y="1032.0"/>
      <point x="928.0" y="1101.0"/>
      <point x="1044" y="1101" type="curve" smooth="yes"/>
      <point x="1084.0" y="1101.0"/>
      <point x="1120.6666666666665" y="1091.3333333333335"/>
      <point x="1150" y="1074" type="curve"/>
      <point x="1127" y="981" type="line"/>
      <point x="1113.6666666666665" y="987.6666666666667"/>
      <point x="1089.6666666666665" y="996.0"/>
      <point x="1063" y="996" type="curve" smooth="yes"/>
      <point x="997.6666666666665" y="996.0"/>
      <point x="943.6666666666667" y="961.3333333333333"/>
      <point x="905" y="844" type="curve" smooth="yes"/>
      <point x="612" y="0" type="line"/>
      <point x="516" y="0" type="line"/>
      <point x="170" y="985" type="line"/>
      <point x="65" y="993" type="line"/>
      <point x="65" y="1082" type="line"/>
      <point x="423" y="1082" type="line"/>
    </contour>
  </outline>
</glyph>
